G04*
G04 #@! TF.GenerationSoftware,Altium Limited,Altium Designer,24.3.1 (35)*
G04*
G04 Layer_Color=128*
%FSLAX42Y42*%
%MOMM*%
G71*
G04*
G04 #@! TF.SameCoordinates,998AAEF2-78E8-49C1-A84E-A9ECD080E68D*
G04*
G04*
G04 #@! TF.FilePolarity,Positive*
G04*
G01*
G75*
G36*
X8327Y9548D02*
D01*
X8147D01*
Y9888D01*
X8327D01*
Y9548D01*
D02*
G37*
G36*
X8581D02*
D01*
X8401D01*
Y9888D01*
X8581D01*
Y9548D01*
D02*
G37*
G36*
X8835D02*
D01*
X8655D01*
Y9888D01*
X8835D01*
Y9548D01*
D02*
G37*
G36*
X9089D02*
D01*
X8909D01*
Y9888D01*
X9089D01*
Y9548D01*
D02*
G37*
G36*
X9343D02*
D01*
X9163D01*
Y9888D01*
X9343D01*
Y9548D01*
D02*
G37*
G36*
X9597D02*
D01*
X9417D01*
Y9888D01*
X9597D01*
Y9548D01*
D02*
G37*
G36*
X9851D02*
D01*
X9671D01*
Y9888D01*
X9851D01*
Y9548D01*
D02*
G37*
G36*
X10105D02*
D01*
X9925D01*
Y9888D01*
X10105D01*
Y9548D01*
D02*
G37*
G36*
X10359D02*
D01*
X10179D01*
Y9888D01*
X10359D01*
Y9548D01*
D02*
G37*
G36*
X10613D02*
D01*
X10433D01*
Y9888D01*
X10613D01*
Y9548D01*
D02*
G37*
G36*
X10867D02*
D01*
X10687D01*
Y9888D01*
X10867D01*
Y9548D01*
D02*
G37*
G36*
X11121D02*
D01*
X10941D01*
Y9888D01*
X11121D01*
Y9548D01*
D02*
G37*
G36*
X11375D02*
D01*
X11195D01*
Y9888D01*
X11375D01*
Y9548D01*
D02*
G37*
G36*
X11629D02*
D01*
X11449D01*
Y9888D01*
X11629D01*
Y9548D01*
D02*
G37*
G36*
X11883D02*
D01*
X11703D01*
Y9888D01*
X11883D01*
Y9548D01*
D02*
G37*
G36*
X12137D02*
D01*
X11957D01*
Y9888D01*
X12137D01*
Y9548D01*
D02*
G37*
G36*
X12391D02*
D01*
X12211D01*
Y9888D01*
X12391D01*
Y9548D01*
D02*
G37*
G36*
X12645D02*
D01*
X12465D01*
Y9888D01*
X12645D01*
Y9548D01*
D02*
G37*
G36*
X12899D02*
D01*
X12719D01*
Y9888D01*
X12899D01*
Y9548D01*
D02*
G37*
G36*
X13153D02*
D01*
X12973D01*
Y9888D01*
X13153D01*
Y9548D01*
D02*
G37*
M02*
