G04*
G04 #@! TF.GenerationSoftware,Altium Limited,Altium Designer,24.3.1 (35)*
G04*
G04 Layer_Color=128*
%FSLAX42Y42*%
%MOMM*%
G71*
G04*
G04 #@! TF.SameCoordinates,998AAEF2-78E8-49C1-A84E-A9ECD080E68D*
G04*
G04*
G04 #@! TF.FilePolarity,Positive*
G04*
G01*
G75*
%ADD69C,0.13*%
D69*
X14148Y4077D02*
X14250D01*
X14199Y4026D02*
Y4128D01*
X14529Y4077D02*
X14631D01*
X14580Y4026D02*
Y4128D01*
X14431Y1664D02*
X14500D01*
X14465Y1629D02*
Y1698D01*
X13923Y1664D02*
X13992D01*
X13957Y1629D02*
Y1698D01*
X14177Y1410D02*
X14246D01*
X14211Y1375D02*
Y1444D01*
X9165Y686D02*
X9275D01*
X9220Y631D02*
Y741D01*
X8665Y686D02*
X8775D01*
X8720Y631D02*
Y741D01*
X7959Y686D02*
X8069D01*
X8014Y631D02*
Y741D01*
X7459Y686D02*
X7569D01*
X7514Y631D02*
Y741D01*
X6752Y686D02*
X6862D01*
X6807Y631D02*
Y741D01*
X6252Y686D02*
X6362D01*
X6307Y631D02*
Y741D01*
X8187Y9638D02*
X8287D01*
X8237Y9588D02*
Y9688D01*
X8441Y9638D02*
X8541D01*
X8491Y9588D02*
Y9688D01*
X8695Y9638D02*
X8795D01*
X8745Y9588D02*
Y9688D01*
X8949Y9638D02*
X9049D01*
X8999Y9588D02*
Y9688D01*
X9203Y9638D02*
X9303D01*
X9253Y9588D02*
Y9688D01*
X9457Y9638D02*
X9557D01*
X9507Y9588D02*
Y9688D01*
X9711Y9638D02*
X9811D01*
X9761Y9588D02*
Y9688D01*
X9965Y9638D02*
X10065D01*
X10015Y9588D02*
Y9688D01*
X10219Y9638D02*
X10319D01*
X10269Y9588D02*
Y9688D01*
X10473Y9638D02*
X10573D01*
X10523Y9588D02*
Y9688D01*
X10727Y9638D02*
X10827D01*
X10777Y9588D02*
Y9688D01*
X10981Y9638D02*
X11081D01*
X11031Y9588D02*
Y9688D01*
X11235Y9638D02*
X11335D01*
X11285Y9588D02*
Y9688D01*
X11489Y9638D02*
X11589D01*
X11539Y9588D02*
Y9688D01*
X11743Y9638D02*
X11843D01*
X11793Y9588D02*
Y9688D01*
X11997Y9638D02*
X12097D01*
X12047Y9588D02*
Y9688D01*
X12251Y9638D02*
X12351D01*
X12301Y9588D02*
Y9688D01*
X12505Y9638D02*
X12605D01*
X12555Y9588D02*
Y9688D01*
X13013Y9638D02*
X13113D01*
X13063Y9588D02*
Y9688D01*
X12759Y9638D02*
X12859D01*
X12809Y9588D02*
Y9688D01*
X5538Y3138D02*
X5788D01*
X5663Y3013D02*
Y3263D01*
X14338Y3138D02*
X14588D01*
X14463Y3013D02*
Y3263D01*
X5538Y9638D02*
X5788D01*
X5663Y9513D02*
Y9763D01*
X14338Y9638D02*
X14588D01*
X14463Y9513D02*
Y9763D01*
X6618Y7607D02*
X6818D01*
X6718Y7507D02*
Y7707D01*
X6618Y2567D02*
X6818D01*
X6718Y2467D02*
Y2667D01*
X8428Y7457D02*
X8628D01*
X8528Y7357D02*
Y7557D01*
X8428Y2717D02*
X8628D01*
X8528Y2617D02*
Y2817D01*
X6961Y6487D02*
X7136D01*
X7048Y6400D02*
Y6575D01*
X6961Y6087D02*
X7136D01*
X7048Y6000D02*
Y6175D01*
X6961Y5687D02*
X7136D01*
X7048Y5600D02*
Y5775D01*
X6961Y5287D02*
X7136D01*
X7048Y5200D02*
Y5375D01*
X6961Y4887D02*
X7136D01*
X7048Y4800D02*
Y4975D01*
X6961Y4487D02*
X7136D01*
X7048Y4400D02*
Y4575D01*
X6961Y4087D02*
X7136D01*
X7048Y4000D02*
Y4175D01*
X6961Y3687D02*
X7136D01*
X7048Y3600D02*
Y3775D01*
X7361Y6287D02*
X7536D01*
X7448Y6200D02*
Y6375D01*
X7361Y5887D02*
X7536D01*
X7448Y5800D02*
Y5975D01*
X7361Y5487D02*
X7536D01*
X7448Y5400D02*
Y5575D01*
X7361Y5087D02*
X7536D01*
X7448Y5000D02*
Y5175D01*
X7361Y4687D02*
X7536D01*
X7448Y4600D02*
Y4775D01*
X7361Y4287D02*
X7536D01*
X7448Y4200D02*
Y4375D01*
X7361Y3887D02*
X7536D01*
X7448Y3800D02*
Y3975D01*
X7761Y6487D02*
X7936D01*
X7848Y6400D02*
Y6575D01*
X7761Y6087D02*
X7936D01*
X7848Y6000D02*
Y6175D01*
X7761Y5687D02*
X7936D01*
X7848Y5600D02*
Y5775D01*
X7761Y5287D02*
X7936D01*
X7848Y5200D02*
Y5375D01*
X7761Y4887D02*
X7936D01*
X7848Y4800D02*
Y4975D01*
X7761Y4487D02*
X7936D01*
X7848Y4400D02*
Y4575D01*
X7761Y4087D02*
X7936D01*
X7848Y4000D02*
Y4175D01*
X7761Y3687D02*
X7936D01*
X7848Y3600D02*
Y3775D01*
X12335Y7089D02*
X12450D01*
X12392Y7032D02*
Y7146D01*
X12589Y7089D02*
X12704D01*
X12646Y7032D02*
Y7146D01*
X381Y9241D02*
X457D01*
X419Y9202D02*
Y9279D01*
X381Y8992D02*
X457D01*
X419Y8954D02*
Y9030D01*
X2616Y8992D02*
X2692D01*
X2654Y8954D02*
Y9030D01*
X2616Y9241D02*
X2692D01*
X2654Y9202D02*
Y9279D01*
X2603Y7991D02*
X2680D01*
X2642Y7953D02*
Y8029D01*
X2603Y8240D02*
X2680D01*
X2642Y8202D02*
Y8278D01*
X381Y7991D02*
X457D01*
X419Y7953D02*
Y8029D01*
X381Y8240D02*
X457D01*
X419Y8202D02*
Y8278D01*
X12594Y5406D02*
X12634D01*
X12614Y5386D02*
Y5426D01*
X13152Y5346D02*
X13192D01*
X13172Y5326D02*
Y5366D01*
X12066Y3399D02*
X12106D01*
X12086Y3379D02*
Y3419D01*
X10557Y3040D02*
X10597D01*
X10577Y3020D02*
Y3060D01*
X9125Y3035D02*
X9165D01*
X9145Y3015D02*
Y3055D01*
X7480Y2760D02*
X7530D01*
X7505Y2735D02*
Y2785D01*
X6826Y2769D02*
X6866D01*
X6846Y2749D02*
Y2789D01*
X6754Y3123D02*
X6794D01*
X6774Y3103D02*
Y3143D01*
X6930Y3363D02*
X6980D01*
X6955Y3338D02*
Y3388D01*
X6445Y3680D02*
X6495D01*
X6470Y3655D02*
Y3705D01*
X5394Y2661D02*
X5434D01*
X5414Y2641D02*
Y2681D01*
X6454Y3454D02*
X6504D01*
X6479Y3429D02*
Y3479D01*
X872Y2639D02*
X944D01*
X908Y2603D02*
Y2675D01*
X13479Y5356D02*
X13519D01*
X13499Y5336D02*
Y5376D01*
X13381Y5488D02*
X13421D01*
X13401Y5468D02*
Y5508D01*
X13367Y5690D02*
X13417D01*
X13392Y5665D02*
Y5715D01*
X13724Y5791D02*
X13774D01*
X13749Y5766D02*
Y5816D01*
X12859Y7102D02*
X12899D01*
X12879Y7082D02*
Y7122D01*
X12952Y7274D02*
X12992D01*
X12972Y7254D02*
Y7294D01*
X11192Y6521D02*
X11232D01*
X11212Y6501D02*
Y6541D01*
X10519Y6036D02*
X10559D01*
X10539Y6016D02*
Y6056D01*
X9898Y6034D02*
X9938D01*
X9918Y6014D02*
Y6054D01*
X10346Y5847D02*
X10386D01*
X10366Y5827D02*
Y5867D01*
X9594Y7301D02*
X9644D01*
X9619Y7276D02*
Y7326D01*
X7629Y7354D02*
X7669D01*
X7649Y7334D02*
Y7374D01*
X11335Y4860D02*
X11375D01*
X11355Y4840D02*
Y4880D01*
X11344Y4680D02*
X11384D01*
X11364Y4660D02*
Y4700D01*
X11234Y4930D02*
X11274D01*
X11254Y4910D02*
Y4950D01*
X13131Y5564D02*
X13171D01*
X13151Y5544D02*
Y5584D01*
X13135Y5669D02*
X13175D01*
X13155Y5649D02*
Y5689D01*
X10933Y4356D02*
X10983D01*
X10958Y4331D02*
Y4381D01*
X10929Y4851D02*
X10979D01*
X10954Y4826D02*
Y4876D01*
X8360Y5600D02*
X8400D01*
X8380Y5580D02*
Y5620D01*
X7524Y7015D02*
X7574D01*
X7549Y6990D02*
Y7040D01*
X4617Y6835D02*
X4657D01*
X4637Y6815D02*
Y6855D01*
X3248Y7216D02*
X3288D01*
X3268Y7196D02*
Y7236D01*
X318Y5490D02*
X358D01*
X338Y5470D02*
Y5510D01*
X12537Y4488D02*
X12587D01*
X12562Y4463D02*
Y4513D01*
X11640Y3552D02*
X11680D01*
X11660Y3532D02*
Y3572D01*
X12123Y4359D02*
X12173D01*
X12148Y4334D02*
Y4384D01*
X12067Y4490D02*
X12117D01*
X12092Y4465D02*
Y4515D01*
X11990Y4733D02*
X12030D01*
X12010Y4713D02*
Y4753D01*
X11203Y3740D02*
X11253D01*
X11228Y3715D02*
Y3765D01*
X10036Y1014D02*
X10086D01*
X10061Y989D02*
Y1039D01*
X5349Y2135D02*
X5389D01*
X5369Y2115D02*
Y2155D01*
X3052Y2034D02*
X3102D01*
X3077Y2009D02*
Y2059D01*
X3031Y2529D02*
X3071D01*
X3051Y2509D02*
Y2549D01*
X11265Y4433D02*
X11315D01*
X11290Y4408D02*
Y4458D01*
X10875Y4218D02*
X10915D01*
X10895Y4198D02*
Y4238D01*
X10756Y4404D02*
X10806D01*
X10781Y4379D02*
Y4429D01*
X9628Y4791D02*
X9668D01*
X9648Y4771D02*
Y4811D01*
X10210Y4795D02*
X10260D01*
X10235Y4770D02*
Y4820D01*
X13342Y5025D02*
X13392D01*
X13367Y5000D02*
Y5050D01*
X13496Y5893D02*
X13536D01*
X13516Y5873D02*
Y5913D01*
X6594Y2954D02*
X6644D01*
X6619Y2929D02*
Y2979D01*
X6698Y2362D02*
X6748D01*
X6723Y2337D02*
Y2387D01*
X4562Y1996D02*
X4612D01*
X4587Y1971D02*
Y2021D01*
X3570Y2036D02*
X3610D01*
X3590Y2016D02*
Y2056D01*
X10717Y9316D02*
X10767D01*
X10742Y9291D02*
Y9341D01*
X10366Y9357D02*
X10416D01*
X10391Y9332D02*
Y9382D01*
X6542Y8183D02*
X6592D01*
X6567Y8158D02*
Y8208D01*
X6625Y8382D02*
X6675D01*
X6650Y8357D02*
Y8407D01*
X11668Y9305D02*
X11708D01*
X11688Y9285D02*
Y9325D01*
X5564Y4664D02*
X5604D01*
X5584Y4644D02*
Y4684D01*
X14506Y4686D02*
X14546D01*
X14526Y4666D02*
Y4706D01*
X14240Y4490D02*
X14280D01*
X14260Y4470D02*
Y4510D01*
X14432Y3548D02*
X14482D01*
X14457Y3523D02*
Y3573D01*
X13372Y4845D02*
X13412D01*
X13392Y4825D02*
Y4865D01*
X1501Y2648D02*
X1551D01*
X1526Y2623D02*
Y2673D01*
X14327Y7766D02*
X14377D01*
X14352Y7741D02*
Y7791D01*
X14014Y7792D02*
X14064D01*
X14039Y7767D02*
Y7817D01*
X6754Y4269D02*
X6804D01*
X6779Y4244D02*
Y4294D01*
X6141Y3718D02*
X6191D01*
X6166Y3693D02*
Y3743D01*
X5828Y3844D02*
X5878D01*
X5853Y3819D02*
Y3869D01*
X6154Y3971D02*
X6204D01*
X6179Y3946D02*
Y3996D01*
X5621Y3948D02*
X5671D01*
X5646Y3923D02*
Y3973D01*
X6253Y4276D02*
X6303D01*
X6278Y4251D02*
Y4301D01*
X5531Y4142D02*
X5581D01*
X5556Y4117D02*
Y4167D01*
X5480Y4398D02*
X5530D01*
X5505Y4373D02*
Y4423D01*
X5681Y4547D02*
X5731D01*
X5706Y4522D02*
Y4572D01*
X5309Y5144D02*
X5359D01*
X5334Y5119D02*
Y5169D01*
X11078Y6934D02*
X11118D01*
X11098Y6914D02*
Y6954D01*
X10416Y7456D02*
X10456D01*
X10436Y7436D02*
Y7476D01*
X10300Y7456D02*
X10340D01*
X10320Y7436D02*
Y7476D01*
X11369Y8563D02*
X11409D01*
X11389Y8543D02*
Y8583D01*
X11771Y8519D02*
X11811D01*
X11791Y8499D02*
Y8539D01*
X12129Y8260D02*
X12169D01*
X12149Y8240D02*
Y8280D01*
X12162Y9355D02*
X12202D01*
X12182Y9335D02*
Y9375D01*
X11901Y7764D02*
X11941D01*
X11921Y7744D02*
Y7784D01*
X11757Y7835D02*
X11807D01*
X11782Y7810D02*
Y7860D01*
X13048Y7577D02*
X13088D01*
X13068Y7557D02*
Y7597D01*
X13366Y6745D02*
X13406D01*
X13386Y6725D02*
Y6765D01*
X12764Y6612D02*
X12814D01*
X12789Y6587D02*
Y6637D01*
X13499Y6586D02*
X13549D01*
X13524Y6561D02*
Y6611D01*
X10390Y8516D02*
X10430D01*
X10410Y8496D02*
Y8536D01*
X9818Y8499D02*
X9858D01*
X9838Y8479D02*
Y8519D01*
X9056Y7731D02*
X9096D01*
X9076Y7711D02*
Y7751D01*
X9068Y7475D02*
X9108D01*
X9088Y7455D02*
Y7495D01*
X9408Y7229D02*
X9448D01*
X9428Y7209D02*
Y7249D01*
X9395Y7023D02*
X9435D01*
X9415Y7003D02*
Y7043D01*
X9667Y7046D02*
X9717D01*
X9692Y7021D02*
Y7071D01*
X9888Y6832D02*
X9938D01*
X9913Y6807D02*
Y6857D01*
X9868Y3856D02*
X9918D01*
X9893Y3831D02*
Y3881D01*
X10231Y3444D02*
X10271D01*
X10251Y3424D02*
Y3464D01*
X13582Y3457D02*
X13622D01*
X13602Y3437D02*
Y3477D01*
X13106Y3839D02*
X13156D01*
X13131Y3814D02*
Y3864D01*
X13735Y4012D02*
X13775D01*
X13755Y3992D02*
Y4032D01*
X12250Y8643D02*
X12300D01*
X12275Y8618D02*
Y8668D01*
X14641Y5792D02*
X14681D01*
X14661Y5772D02*
Y5812D01*
X14641Y5160D02*
X14681D01*
X14661Y5140D02*
Y5180D01*
X14429Y8105D02*
X14469D01*
X14449Y8085D02*
Y8125D01*
X14409Y8574D02*
X14449D01*
X14429Y8554D02*
Y8594D01*
X13863Y6790D02*
X13935D01*
X13899Y6754D02*
Y6826D01*
X10462Y5340D02*
X10512D01*
X10487Y5315D02*
Y5365D01*
X10465Y5212D02*
X10515D01*
X10490Y5187D02*
Y5237D01*
X14876Y1298D02*
X14916D01*
X14896Y1278D02*
Y1318D01*
X14989Y1712D02*
X15029D01*
X15009Y1692D02*
Y1732D01*
X14489Y1333D02*
X14539D01*
X14514Y1308D02*
Y1358D01*
X14302Y8316D02*
X14342D01*
X14322Y8296D02*
Y8336D01*
X13463Y7257D02*
X13503D01*
X13483Y7237D02*
Y7277D01*
X11096Y5397D02*
X11136D01*
X11116Y5377D02*
Y5417D01*
X14561Y8777D02*
X14611D01*
X14586Y8752D02*
Y8802D01*
X14401Y8828D02*
X14451D01*
X14426Y8803D02*
Y8853D01*
X14324Y9072D02*
X14374D01*
X14349Y9047D02*
Y9097D01*
X13744Y6428D02*
X13794D01*
X13769Y6403D02*
Y6453D01*
X13717Y4211D02*
X13757D01*
X13737Y4191D02*
Y4231D01*
X9829Y7329D02*
X9879D01*
X9854Y7304D02*
Y7354D01*
X9428Y7724D02*
X9468D01*
X9448Y7704D02*
Y7744D01*
X9377Y8313D02*
X9417D01*
X9397Y8293D02*
Y8333D01*
X10139Y8622D02*
X10179D01*
X10159Y8602D02*
Y8642D01*
X9687Y7729D02*
X9727D01*
X9707Y7709D02*
Y7749D01*
X9688Y8283D02*
X9728D01*
X9708Y8263D02*
Y8303D01*
X10093Y8284D02*
X10133D01*
X10113Y8264D02*
Y8304D01*
X10405Y6263D02*
X10445D01*
X10425Y6243D02*
Y6283D01*
X11503Y7752D02*
X11543D01*
X11523Y7732D02*
Y7772D01*
X11841Y6994D02*
X11881D01*
X11861Y6974D02*
Y7014D01*
X11105Y6132D02*
X11145D01*
X11125Y6112D02*
Y6152D01*
X10971Y5777D02*
X11011D01*
X10991Y5757D02*
Y5797D01*
X13265Y4729D02*
X13305D01*
X13285Y4709D02*
Y4749D01*
X14845Y6448D02*
X14885D01*
X14865Y6428D02*
Y6468D01*
X14883Y6235D02*
X14923D01*
X14903Y6215D02*
Y6255D01*
X14769Y9460D02*
X14819D01*
X14794Y9435D02*
Y9485D01*
X11435Y5358D02*
X11475D01*
X11455Y5338D02*
Y5378D01*
X11438Y5694D02*
X11478D01*
X11458Y5674D02*
Y5714D01*
X10669Y5176D02*
X10719D01*
X10694Y5151D02*
Y5201D01*
X14540Y6249D02*
X14590D01*
X14565Y6224D02*
Y6274D01*
X14801Y8398D02*
X14851D01*
X14826Y8373D02*
Y8423D01*
X13260Y7677D02*
X13310D01*
X13285Y7652D02*
Y7702D01*
X14870Y9572D02*
X14920D01*
X14895Y9547D02*
Y9597D01*
X14380Y7108D02*
X14430D01*
X14405Y7083D02*
Y7133D01*
X12807Y4473D02*
X12857D01*
X12832Y4448D02*
Y4498D01*
X14877Y3682D02*
X14927D01*
X14902Y3657D02*
Y3707D01*
X14405Y5912D02*
X14455D01*
X14430Y5887D02*
Y5937D01*
X14846Y3501D02*
X14896D01*
X14871Y3476D02*
Y3526D01*
X13883Y6217D02*
X13933D01*
X13908Y6192D02*
Y6242D01*
X13880Y6043D02*
X13930D01*
X13905Y6018D02*
Y6068D01*
X13677Y9800D02*
X13727D01*
X13702Y9775D02*
Y9825D01*
X14859Y9300D02*
X14909D01*
X14884Y9275D02*
Y9325D01*
X12464Y9352D02*
X12514D01*
X12489Y9327D02*
Y9377D01*
X9377Y4354D02*
X9427D01*
X9402Y4329D02*
Y4379D01*
X8240Y7000D02*
X8290D01*
X8265Y6975D02*
Y7025D01*
X11101Y8826D02*
X11151D01*
X11126Y8801D02*
Y8851D01*
X11101Y8545D02*
X11151D01*
X11126Y8520D02*
Y8570D01*
X10572Y8437D02*
X10622D01*
X10597Y8412D02*
Y8462D01*
X11945Y8744D02*
X11995D01*
X11970Y8719D02*
Y8769D01*
X12379Y8473D02*
X12429D01*
X12404Y8448D02*
Y8498D01*
X13357Y4264D02*
X13407D01*
X13382Y4239D02*
Y4289D01*
X12471Y7582D02*
X12521D01*
X12496Y7557D02*
Y7607D01*
X12364Y7942D02*
X12414D01*
X12389Y7917D02*
Y7967D01*
X13716Y9278D02*
X13766D01*
X13741Y9253D02*
Y9303D01*
X12249Y9200D02*
X12299D01*
X12274Y9175D02*
Y9225D01*
X10381Y8048D02*
X10431D01*
X10406Y8023D02*
Y8073D01*
X10611Y8148D02*
X10661D01*
X10636Y8123D02*
Y8173D01*
X13765Y8365D02*
X13815D01*
X13790Y8340D02*
Y8390D01*
X12945Y8469D02*
X12995D01*
X12970Y8444D02*
Y8494D01*
X4809Y6698D02*
X4859D01*
X4834Y6673D02*
Y6723D01*
X2614Y4827D02*
X2664D01*
X2639Y4802D02*
Y4852D01*
X4114Y4814D02*
X4164D01*
X4139Y4789D02*
Y4839D01*
X5872Y8183D02*
X5922D01*
X5897Y8158D02*
Y8208D01*
X10080Y8127D02*
X10130D01*
X10105Y8102D02*
Y8152D01*
X13845Y8830D02*
X13895D01*
X13870Y8805D02*
Y8855D01*
X4597Y3371D02*
X4647D01*
X4622Y3346D02*
Y3396D01*
X4602Y3146D02*
X4652D01*
X4627Y3121D02*
Y3171D01*
X4601Y2839D02*
X4651D01*
X4626Y2814D02*
Y2864D01*
X8878Y2788D02*
X8928D01*
X8903Y2763D02*
Y2813D01*
X9599Y636D02*
X9649D01*
X9624Y611D02*
Y661D01*
X1825Y754D02*
X1875D01*
X1850Y729D02*
Y779D01*
X3696Y759D02*
X3746D01*
X3721Y734D02*
Y784D01*
X4190Y355D02*
X4240D01*
X4215Y330D02*
Y380D01*
X3440Y434D02*
X3490D01*
X3465Y409D02*
Y459D01*
X4423Y217D02*
X4473D01*
X4448Y192D02*
Y242D01*
X7858Y2285D02*
X7908D01*
X7883Y2260D02*
Y2310D01*
X9002Y2956D02*
X9052D01*
X9027Y2931D02*
Y2981D01*
X3533Y3117D02*
X3583D01*
X3558Y3092D02*
Y3142D01*
X3429Y3497D02*
X3479D01*
X3454Y3472D02*
Y3522D01*
X633Y1280D02*
X683D01*
X658Y1255D02*
Y1305D01*
X117Y1290D02*
X167D01*
X142Y1265D02*
Y1315D01*
X12621Y9449D02*
X12671D01*
X12646Y9424D02*
Y9474D01*
X10034Y4982D02*
X10084D01*
X10059Y4957D02*
Y5007D01*
X10030Y5390D02*
X10080D01*
X10055Y5365D02*
Y5415D01*
X8296Y5154D02*
X8346D01*
X8321Y5129D02*
Y5179D01*
X5404Y2275D02*
X5454D01*
X5429Y2250D02*
Y2300D01*
X5900Y2246D02*
X5950D01*
X5925Y2221D02*
Y2271D01*
X2322Y2077D02*
X2372D01*
X2347Y2052D02*
Y2102D01*
X9061Y3314D02*
X9111D01*
X9086Y3289D02*
Y3339D01*
X6135Y4124D02*
X6185D01*
X6160Y4099D02*
Y4149D01*
X5240Y2664D02*
X5290D01*
X5265Y2639D02*
Y2689D01*
X1735Y2646D02*
X1785D01*
X1760Y2621D02*
Y2671D01*
X2046Y3247D02*
X2096D01*
X2071Y3222D02*
Y3272D01*
X2305Y4968D02*
X2355D01*
X2330Y4943D02*
Y4993D01*
X8825Y9402D02*
X8875D01*
X8850Y9377D02*
Y9427D01*
X8499Y10047D02*
X8549D01*
X8524Y10022D02*
Y10072D01*
X13433Y7729D02*
X13483D01*
X13458Y7704D02*
Y7754D01*
X12482Y7731D02*
X12532D01*
X12507Y7706D02*
Y7756D01*
X13397Y1951D02*
X13447D01*
X13422Y1926D02*
Y1976D01*
X11527Y2433D02*
X11577D01*
X11552Y2408D02*
Y2458D01*
X11546Y1139D02*
X11596D01*
X11571Y1114D02*
Y1164D01*
X8973Y1331D02*
X9023D01*
X8998Y1306D02*
Y1356D01*
X8205Y1345D02*
X8255D01*
X8230Y1320D02*
Y1370D01*
X6296Y1448D02*
X6346D01*
X6321Y1423D02*
Y1473D01*
X5599Y1016D02*
X5649D01*
X5624Y991D02*
Y1041D01*
X4028Y584D02*
X4078D01*
X4053Y559D02*
Y609D01*
X3118Y589D02*
X3168D01*
X3143Y564D02*
Y614D01*
X2436Y585D02*
X2486D01*
X2461Y560D02*
Y610D01*
X966Y418D02*
X1016D01*
X991Y393D02*
Y443D01*
X932Y1282D02*
X982D01*
X957Y1257D02*
Y1307D01*
X5316Y1871D02*
X5366D01*
X5341Y1846D02*
Y1896D01*
X8589Y4884D02*
X8639D01*
X8614Y4859D02*
Y4909D01*
X8509Y4093D02*
X8559D01*
X8534Y4068D02*
Y4118D01*
X5279Y4679D02*
X5329D01*
X5304Y4654D02*
Y4704D01*
X8067Y3422D02*
X8117D01*
X8092Y3397D02*
Y3447D01*
X9302Y3936D02*
X9352D01*
X9327Y3911D02*
Y3961D01*
X10210Y4132D02*
X10260D01*
X10235Y4107D02*
Y4157D01*
X2606Y5265D02*
X2656D01*
X2631Y5240D02*
Y5290D01*
X1466Y5229D02*
X1516D01*
X1491Y5204D02*
Y5254D01*
X1555Y4790D02*
X1605D01*
X1580Y4765D02*
Y4815D01*
X9951Y7682D02*
X10001D01*
X9976Y7657D02*
Y7707D01*
X6783Y8869D02*
X6833D01*
X6808Y8844D02*
Y8894D01*
X9265Y8730D02*
X9315D01*
X9290Y8705D02*
Y8755D01*
X11714Y7002D02*
X11764D01*
X11739Y6977D02*
Y7027D01*
X11534Y7006D02*
X11584D01*
X11559Y6981D02*
Y7031D01*
X6988Y8673D02*
X7038D01*
X7013Y8648D02*
Y8698D01*
X7438Y9507D02*
X7488D01*
X7463Y9482D02*
Y9532D01*
X7928Y9596D02*
X7978D01*
X7953Y9571D02*
Y9621D01*
X8102Y8385D02*
X8152D01*
X8127Y8360D02*
Y8410D01*
X1570Y4377D02*
X1620D01*
X1595Y4352D02*
Y4402D01*
X2313Y4134D02*
X2363D01*
X2338Y4109D02*
Y4159D01*
X409Y3235D02*
X459D01*
X434Y3210D02*
Y3260D01*
X745Y417D02*
X795D01*
X770Y392D02*
Y442D01*
X5479Y1640D02*
X5529D01*
X5504Y1615D02*
Y1665D01*
X4712Y519D02*
X4762D01*
X4737Y494D02*
Y544D01*
X6264Y6086D02*
X6314D01*
X6289Y6061D02*
Y6111D01*
X1564Y2033D02*
X1614D01*
X1589Y2008D02*
Y2058D01*
X1776Y4689D02*
X1826D01*
X1801Y4664D02*
Y4714D01*
X2426Y4689D02*
X2476D01*
X2451Y4664D02*
Y4714D01*
X999Y4689D02*
X1049D01*
X1024Y4664D02*
Y4714D01*
X214Y4689D02*
X264D01*
X239Y4664D02*
Y4714D01*
X3982Y7199D02*
X4032D01*
X4007Y7174D02*
Y7224D01*
X5004Y1281D02*
X5054D01*
X5029Y1256D02*
Y1306D01*
X3000Y8560D02*
X3050D01*
X3025Y8535D02*
Y8585D01*
X1772Y7188D02*
X1822D01*
X1797Y7163D02*
Y7213D01*
X938Y7193D02*
X988D01*
X963Y7168D02*
Y7218D01*
M02*
