G04*
G04 #@! TF.GenerationSoftware,Altium Limited,Altium Designer,24.3.1 (35)*
G04*
G04 Layer_Color=16711935*
%FSLAX42Y42*%
%MOMM*%
G71*
G04*
G04 #@! TF.SameCoordinates,998AAEF2-78E8-49C1-A84E-A9ECD080E68D*
G04*
G04*
G04 #@! TF.FilePolarity,Positive*
G04*
G01*
G75*
%ADD10C,0.20*%
%ADD13C,0.10*%
%ADD17C,0.08*%
%ADD82C,0.00*%
%ADD83C,0.03*%
D10*
X14707Y3905D02*
Y4248D01*
X14072D02*
X14707D01*
X14072Y3905D02*
Y4248D01*
Y3905D02*
X14707D01*
X3804Y4576D02*
Y4701D01*
Y4576D02*
X4004D01*
Y4701D01*
X3804D02*
X4004D01*
X3804Y4307D02*
X4004D01*
Y4182D02*
Y4307D01*
X3804Y4182D02*
X4004D01*
X3804D02*
Y4307D01*
Y3788D02*
Y3913D01*
Y3788D02*
X4004D01*
Y3913D01*
X3804D02*
X4004D01*
X3804Y3445D02*
Y3570D01*
Y3445D02*
X4004D01*
Y3570D01*
X3804D02*
X4004D01*
X1942Y2831D02*
X2067D01*
Y3031D01*
X1942D02*
X2067D01*
X1942Y2831D02*
Y3031D01*
X1093Y2810D02*
Y3010D01*
X1218D01*
Y2810D02*
Y3010D01*
X1093Y2810D02*
X1218D01*
X13548Y8961D02*
Y9161D01*
X13673D01*
Y8961D02*
Y9161D01*
X13548Y8961D02*
X13673D01*
X13278Y8964D02*
X13403D01*
Y9164D01*
X13278D02*
X13403D01*
X13278Y8964D02*
Y9164D01*
X9601Y8961D02*
Y9161D01*
X9726D01*
Y8961D02*
Y9161D01*
X9601Y8961D02*
X9726D01*
X9318Y8964D02*
X9443D01*
Y9164D01*
X9318D02*
X9443D01*
X9318Y8964D02*
Y9164D01*
X13418Y8052D02*
Y8252D01*
X13543D01*
Y8052D02*
Y8252D01*
X13418Y8052D02*
X13543D01*
X14088Y7300D02*
X14213D01*
Y7500D01*
X14088D02*
X14213D01*
X14088Y7300D02*
Y7500D01*
X14418Y7300D02*
Y7500D01*
X14543D01*
Y7300D02*
Y7500D01*
X14418Y7300D02*
X14543D01*
X10731Y7250D02*
Y7450D01*
X10606Y7250D02*
X10731D01*
X10606D02*
Y7450D01*
X10731D01*
X10943Y7247D02*
X11068D01*
Y7447D01*
X10943D02*
X11068D01*
X10943Y7247D02*
Y7447D01*
X10635Y6859D02*
Y6984D01*
Y6859D02*
X10835D01*
Y6984D01*
X10635D02*
X10835D01*
X10635Y6516D02*
X10835D01*
X10635D02*
Y6641D01*
X10835D01*
Y6516D02*
Y6641D01*
X14695Y344D02*
Y545D01*
X14820D01*
Y344D02*
Y545D01*
X14695Y344D02*
X14820D01*
X14376D02*
X14501D01*
Y545D01*
X14376D02*
X14501D01*
X14376Y344D02*
Y545D01*
X14058Y344D02*
Y545D01*
X14183D01*
Y344D02*
Y545D01*
X14058Y344D02*
X14183D01*
X13740D02*
X13865D01*
Y545D01*
X13740D02*
X13865D01*
X13740Y344D02*
Y545D01*
X13421Y344D02*
Y545D01*
X13546D01*
Y344D02*
Y545D01*
X13421Y344D02*
X13546D01*
X13103D02*
X13228D01*
Y545D01*
X13103D02*
X13228D01*
X13103Y344D02*
Y545D01*
X12784Y344D02*
Y545D01*
X12909D01*
Y344D02*
Y545D01*
X12784Y344D02*
X12909D01*
X12466D02*
Y545D01*
X12591D01*
Y344D02*
Y545D01*
X12466Y344D02*
X12591D01*
X12148D02*
X12273D01*
Y545D01*
X12148D02*
X12273D01*
X12148Y344D02*
Y545D01*
X11829Y344D02*
Y545D01*
X11954D01*
Y344D02*
Y545D01*
X11829Y344D02*
X11954D01*
X11511D02*
Y545D01*
X11636D01*
Y344D02*
Y545D01*
X11511Y344D02*
X11636D01*
X11192D02*
X11317D01*
Y545D01*
X11192D02*
X11317D01*
X11192Y344D02*
Y545D01*
X10874Y344D02*
Y545D01*
X10999D01*
Y344D02*
Y545D01*
X10874Y344D02*
X10999D01*
X10556D02*
Y545D01*
X10681D01*
Y344D02*
Y545D01*
X10556Y344D02*
X10681D01*
X10237D02*
Y545D01*
X10362D01*
Y344D02*
Y545D01*
X10237Y344D02*
X10362D01*
X8570Y1086D02*
X9370D01*
Y286D02*
Y1086D01*
X8570Y286D02*
X9370D01*
X8570D02*
Y1086D01*
X7364D02*
X8164D01*
Y286D02*
Y1086D01*
X7364Y286D02*
X8164D01*
X7364D02*
Y1086D01*
X6157D02*
X6957D01*
Y286D02*
Y1086D01*
X6157Y286D02*
X6957D01*
X6157D02*
Y1086D01*
X4539Y907D02*
Y1107D01*
X4414Y907D02*
X4539D01*
X4414D02*
Y1107D01*
X4539D01*
X3413Y907D02*
X3538D01*
Y1107D01*
X3413D02*
X3538D01*
X3413Y907D02*
Y1107D01*
X2079Y1107D02*
X2204D01*
X2079Y907D02*
Y1107D01*
Y907D02*
X2204D01*
Y1107D01*
X1412D02*
X1537D01*
X1412Y907D02*
Y1107D01*
Y907D02*
X1537D01*
Y1107D01*
X869Y907D02*
Y1107D01*
X744Y907D02*
X869D01*
X744D02*
Y1107D01*
X869D01*
X7011Y9126D02*
X7136D01*
X7011Y8926D02*
Y9126D01*
Y8926D02*
X7136D01*
Y9126D01*
X11475Y4152D02*
X11675D01*
Y4027D02*
Y4152D01*
X11475Y4027D02*
X11675D01*
X11475D02*
Y4152D01*
X12032Y8074D02*
Y8274D01*
X11907Y8074D02*
X12032D01*
X11907D02*
Y8274D01*
X12032D01*
X11448Y8964D02*
X11573D01*
Y9164D01*
X11448D02*
X11573D01*
X11448Y8964D02*
Y9164D01*
X5190Y1111D02*
X5315D01*
X5190Y911D02*
Y1111D01*
Y911D02*
X5315D01*
Y1111D01*
X11201Y8964D02*
X11326D01*
Y9164D01*
X11201D02*
X11326D01*
X11201Y8964D02*
Y9164D01*
X11015Y4027D02*
X11215D01*
X11015D02*
Y4152D01*
X11215D01*
Y4027D02*
Y4152D01*
X178Y1088D02*
X304D01*
X178Y888D02*
Y1088D01*
Y888D02*
X304D01*
Y1088D01*
X103Y2810D02*
X228D01*
Y3010D01*
X103D02*
X228D01*
X103Y2810D02*
Y3010D01*
X10835Y5779D02*
Y5904D01*
X10635D02*
X10835D01*
X10635Y5779D02*
Y5904D01*
Y5779D02*
X10835D01*
X10555Y4152D02*
X10755D01*
Y4027D02*
Y4152D01*
X10555Y4027D02*
X10755D01*
X10555D02*
Y4152D01*
D13*
X12127Y4153D02*
X12347D01*
X12127Y4018D02*
X12347D01*
X12127D02*
Y4153D01*
X12347Y4018D02*
Y4153D01*
X14845Y4733D02*
Y5058D01*
X15010Y4733D02*
Y5058D01*
X14845Y4733D02*
X15010D01*
X14845Y5058D02*
X15010D01*
X14187Y4619D02*
Y4753D01*
X13966Y4619D02*
Y4753D01*
Y4619D02*
X14187D01*
X13966Y4753D02*
X14187D01*
X13974Y5706D02*
X14194D01*
X13974Y5571D02*
X14194D01*
X13974D02*
Y5706D01*
X14194Y5571D02*
Y5706D01*
X13962Y5351D02*
X14182D01*
X13962Y5216D02*
X14182D01*
X13962D02*
Y5351D01*
X14182Y5216D02*
Y5351D01*
X13962Y5008D02*
X14182D01*
X13962Y4873D02*
X14182D01*
X13962D02*
Y5008D01*
X14182Y4873D02*
Y5008D01*
X4271Y4706D02*
X4491D01*
X4271Y4571D02*
X4491D01*
X4271D02*
Y4706D01*
X4491Y4571D02*
Y4706D01*
X4271Y4312D02*
X4491D01*
X4271Y4177D02*
X4491D01*
X4271D02*
Y4312D01*
X4491Y4177D02*
Y4312D01*
X4271Y3923D02*
X4491D01*
X4271Y3788D02*
X4491D01*
X4271D02*
Y3923D01*
X4491Y3788D02*
Y3923D01*
X4747Y3575D02*
X4967D01*
X4747Y3440D02*
X4967D01*
X4747D02*
Y3575D01*
X4967Y3440D02*
Y3575D01*
X4271D02*
X4491D01*
X4271Y3440D02*
X4491D01*
X4271D02*
Y3575D01*
X4491Y3440D02*
Y3575D01*
X4897Y2793D02*
Y3013D01*
X5033Y2793D02*
Y3013D01*
X4897Y2793D02*
X5033D01*
X4897Y3013D02*
X5033D01*
X4289Y3020D02*
X4424D01*
X4289Y2800D02*
X4424D01*
Y3020D01*
X4289Y2800D02*
Y3020D01*
X3768D02*
X3903D01*
X3768Y2800D02*
X3903D01*
Y3020D01*
X3768Y2800D02*
Y3020D01*
X3260D02*
X3395D01*
X3260Y2800D02*
X3395D01*
Y3020D01*
X3260Y2800D02*
Y3020D01*
X3052Y2800D02*
Y3020D01*
X2917Y2800D02*
Y3020D01*
X3052D01*
X2917Y2800D02*
X3052D01*
X2591Y3020D02*
X2726D01*
X2591Y2800D02*
X2726D01*
Y3020D01*
X2591Y2800D02*
Y3020D01*
X1660D02*
X1795D01*
X1660Y2800D02*
X1795D01*
Y3020D01*
X1660Y2800D02*
Y3020D01*
X1503Y2800D02*
Y3020D01*
X1368Y2800D02*
Y3020D01*
X1503D01*
X1368Y2800D02*
X1503D01*
X745Y3020D02*
X880D01*
X745Y2800D02*
X880D01*
Y3020D01*
X745Y2800D02*
Y3020D01*
X2488Y1923D02*
X2742Y1669D01*
X2488D02*
X2948D01*
Y2319D01*
X2488D02*
X2948D01*
X2488Y1669D02*
Y2319D01*
X3241Y1923D02*
X3495Y1669D01*
X3241D02*
X3701D01*
Y2319D01*
X3241D02*
X3701D01*
X3241Y1669D02*
Y2319D01*
X4748Y1923D02*
X5002Y1669D01*
X4748D02*
X5208D01*
Y2319D01*
X4748D02*
X5208D01*
X4748Y1669D02*
Y2319D01*
X2760Y7304D02*
X2895D01*
X2760Y7524D02*
X2895D01*
X2760Y7304D02*
Y7524D01*
X2895Y7304D02*
Y7524D01*
X2767Y6611D02*
Y6936D01*
X2933Y6611D02*
Y6936D01*
X2767Y6611D02*
X2933D01*
X2767Y6936D02*
X2933D01*
X399Y7318D02*
X534D01*
X399Y7539D02*
X534D01*
X399Y7318D02*
Y7539D01*
X534Y7318D02*
Y7539D01*
X401Y6958D02*
X566D01*
X401Y6633D02*
X566D01*
Y6958D01*
X401Y6633D02*
Y6958D01*
X13139Y8954D02*
Y9174D01*
X13004Y8954D02*
Y9174D01*
X13139D01*
X13004Y8954D02*
X13139D01*
X12734Y8942D02*
X12869D01*
X12734Y9162D02*
X12869D01*
X12734Y8942D02*
Y9162D01*
X12869Y8942D02*
Y9162D01*
X10837Y8942D02*
Y9162D01*
X10702Y8942D02*
Y9162D01*
X10837D01*
X10702Y8942D02*
X10837D01*
X9029Y8954D02*
X9164D01*
X9029Y9174D02*
X9164D01*
X9029Y8954D02*
Y9174D01*
X9164Y8954D02*
Y9174D01*
X8881Y8942D02*
Y9162D01*
X8746Y8942D02*
Y9162D01*
X8881D01*
X8746Y8942D02*
X8881D01*
X8526Y8933D02*
Y9154D01*
X8392Y8933D02*
Y9154D01*
X8526D01*
X8392Y8933D02*
X8526D01*
X11000Y8068D02*
Y8288D01*
X11135Y8068D02*
Y8288D01*
X11000Y8068D02*
X11135D01*
X11000Y8288D02*
X11135D01*
X11414Y8068D02*
Y8288D01*
X11279Y8068D02*
Y8288D01*
X11414D01*
X11279Y8068D02*
X11414D01*
X11584Y8069D02*
Y8289D01*
X11719Y8069D02*
Y8289D01*
X11584Y8069D02*
X11719D01*
X11584Y8289D02*
X11719D01*
X10328Y4847D02*
Y5667D01*
X10798Y4847D02*
Y5667D01*
X10328Y4847D02*
X10798D01*
X10328Y5667D02*
X10798D01*
X12920Y1534D02*
X13060D01*
Y1834D01*
X12920Y1534D02*
Y1834D01*
X13060D01*
X4075Y897D02*
X4210D01*
X4075Y1117D02*
X4210D01*
X4075Y897D02*
Y1117D01*
X4210Y897D02*
Y1117D01*
X3742Y1117D02*
X3877D01*
X3742Y897D02*
X3877D01*
Y1117D01*
X3742Y897D02*
Y1117D01*
X3074D02*
X3209D01*
X3074Y897D02*
X3209D01*
Y1117D01*
X3074Y897D02*
Y1117D01*
X2407Y897D02*
X2542D01*
X2407Y1117D02*
X2542D01*
X2407Y897D02*
Y1117D01*
X2542Y897D02*
Y1117D01*
X1740Y897D02*
X1875D01*
X1740Y1117D02*
X1875D01*
X1740Y897D02*
Y1117D01*
X1875Y897D02*
Y1117D01*
X10949Y8956D02*
X11084D01*
X10949Y9176D02*
X11084D01*
X10949Y8956D02*
Y9176D01*
X11084Y8956D02*
Y9176D01*
X6018Y2047D02*
X9228D01*
Y8127D01*
X6018D02*
X9228D01*
X6018Y2047D02*
Y8127D01*
X13948Y8948D02*
Y9168D01*
X13813Y8948D02*
Y9168D01*
X13948D01*
X13813Y8948D02*
X13948D01*
X13737Y7283D02*
Y7503D01*
X13872Y7283D02*
Y7503D01*
X13737Y7283D02*
X13872D01*
X13737Y7503D02*
X13872D01*
X11705Y8954D02*
X11840D01*
X11705Y9174D02*
X11840D01*
X11705Y8954D02*
Y9174D01*
X11840Y8954D02*
Y9174D01*
X2243Y2799D02*
Y3018D01*
X2378Y2799D02*
Y3018D01*
X2243Y2799D02*
X2378D01*
X2243Y3018D02*
X2378D01*
X972Y3612D02*
Y4262D01*
X1432D01*
Y3612D02*
Y4262D01*
X972Y3612D02*
X1432D01*
X972Y3866D02*
X1226Y3612D01*
X397Y3019D02*
X532D01*
X397Y2799D02*
X532D01*
Y3019D01*
X397Y2799D02*
Y3019D01*
X2539Y3612D02*
Y4262D01*
X2999D01*
Y3612D02*
Y4262D01*
X2539Y3612D02*
X2999D01*
X2539Y3866D02*
X2793Y3612D01*
X12296Y1594D02*
Y1814D01*
X12161Y1594D02*
Y1814D01*
X12296D01*
X12161Y1594D02*
X12296D01*
X1755Y3866D02*
X2009Y3612D01*
X1755D02*
X2215D01*
Y4262D01*
X1755D02*
X2215D01*
X1755Y3612D02*
Y4262D01*
X189Y3866D02*
X443Y3612D01*
X189D02*
X649D01*
Y4262D01*
X189D02*
X649D01*
X189Y3612D02*
Y4262D01*
X1073Y1117D02*
X1208D01*
X1073Y897D02*
X1208D01*
Y1117D01*
X1073Y897D02*
Y1117D01*
X432Y897D02*
X567D01*
X432Y1117D02*
X567D01*
X432Y897D02*
Y1117D01*
X567Y897D02*
Y1117D01*
X1734Y1923D02*
X1988Y1669D01*
X1734D02*
X2194D01*
Y2319D01*
X1734D02*
X2194D01*
X1734Y1669D02*
Y2319D01*
X981Y1923D02*
X1235Y1669D01*
X981D02*
X1441D01*
Y2319D01*
X981D02*
X1441D01*
X981Y1669D02*
Y2319D01*
X227Y1669D02*
Y2319D01*
X687D01*
Y1669D02*
Y2319D01*
X227Y1669D02*
X687D01*
X227Y1923D02*
X481Y1669D01*
X4771Y1127D02*
X4906D01*
X4771Y907D02*
X4906D01*
Y1127D01*
X4771Y907D02*
Y1127D01*
X3228Y5558D02*
X4508D01*
X3228Y6838D02*
X4508D01*
Y5558D02*
Y6838D01*
X3228Y5558D02*
Y6838D01*
X956Y5598D02*
X2236D01*
X956Y6878D02*
X2236D01*
Y5598D02*
Y6878D01*
X956Y5598D02*
Y6878D01*
X12664Y1594D02*
Y1814D01*
X12529Y1594D02*
Y1814D01*
X12664D01*
X12529Y1594D02*
X12664D01*
X13246Y4022D02*
Y4156D01*
X13026Y4022D02*
Y4156D01*
Y4022D02*
X13246D01*
X13026Y4156D02*
X13246D01*
X12807Y4018D02*
Y4153D01*
X12587Y4018D02*
Y4153D01*
Y4018D02*
X12807D01*
X12587Y4153D02*
X12807D01*
X12279Y7217D02*
X12759D01*
Y6961D02*
Y7217D01*
X12279Y6961D02*
X12759D01*
X12279D02*
Y7217D01*
X2876Y897D02*
Y1117D01*
X2741Y897D02*
Y1117D01*
X2876D01*
X2741Y897D02*
X2876D01*
X2828Y4987D02*
X2963D01*
X2828Y4767D02*
X2963D01*
Y4987D01*
X2828Y4767D02*
Y4987D01*
X2049D02*
X2184D01*
X2049Y4767D02*
X2184D01*
Y4987D01*
X2049Y4767D02*
Y4987D01*
X1270D02*
X1405D01*
X1270Y4767D02*
X1405D01*
Y4987D01*
X1270Y4767D02*
Y4987D01*
X491D02*
X626D01*
X491Y4767D02*
X626D01*
Y4987D01*
X491Y4767D02*
Y4987D01*
X3995Y1669D02*
Y2319D01*
X4455D01*
Y1669D02*
Y2319D01*
X3995Y1669D02*
X4455D01*
X3995Y1923D02*
X4249Y1669D01*
X10044Y2207D02*
X10804D01*
X9844Y2007D02*
X10044Y2207D01*
X9844Y1247D02*
Y2007D01*
X10804Y1247D02*
Y2207D01*
X9844Y1247D02*
X10804D01*
X7831Y8314D02*
Y8449D01*
X7611Y8314D02*
Y8449D01*
Y8314D02*
X7831D01*
X7611Y8449D02*
X7831D01*
D17*
X2930Y6175D02*
X2845Y6090D01*
Y6175D02*
X2930Y6090D01*
X2888Y6175D02*
Y6090D01*
X2845Y6133D02*
X2930D01*
X12001Y9401D02*
X12086Y9316D01*
X12001D02*
X12086Y9401D01*
X12001Y9358D02*
X12086D01*
X12043Y9316D02*
Y9401D01*
X9981Y9378D02*
X10066Y9293D01*
X9981D02*
X10066Y9378D01*
X9981Y9335D02*
X10066D01*
X10023Y9293D02*
Y9378D01*
X488Y6257D02*
X404Y6172D01*
Y6257D02*
X488Y6172D01*
X446Y6257D02*
Y6172D01*
X404Y6214D02*
X488D01*
X12652Y8386D02*
X12737Y8302D01*
X12652D02*
X12737Y8386D01*
X12652Y8344D02*
X12737D01*
X12695Y8302D02*
Y8386D01*
X14126D02*
X14210Y8302D01*
X14126D02*
X14210Y8386D01*
X14126Y8344D02*
X14210D01*
X14168Y8302D02*
Y8386D01*
X7507Y9242D02*
X7592Y9158D01*
X7507D02*
X7592Y9242D01*
X7507Y9200D02*
X7592D01*
X7549Y9158D02*
Y9242D01*
X3476Y8206D02*
X3561Y8121D01*
X3476D02*
X3561Y8206D01*
X3476Y8164D02*
X3561D01*
X3518Y8121D02*
Y8206D01*
X1251Y8203D02*
X1336Y8119D01*
X1251D02*
X1336Y8203D01*
X1251Y8161D02*
X1336D01*
X1293Y8119D02*
Y8203D01*
X14149Y9339D02*
X14234Y9254D01*
X14149D02*
X14234Y9339D01*
X14149Y9296D02*
X14234D01*
X14191Y9254D02*
Y9339D01*
D82*
X11446Y6251D02*
G03*
X11446Y6251I-8J0D01*
G01*
X12234Y9219D02*
G03*
X12295Y9219I30J0D01*
G01*
X10117Y9238D02*
G03*
X10178Y9238I30J0D01*
G01*
X12815Y8415D02*
G03*
X12876Y8415I30J0D01*
G01*
X14288D02*
G03*
X14349Y8415I30J0D01*
G01*
X7666Y9271D02*
G03*
X7727Y9271I30J0D01*
G01*
X668Y9116D02*
G03*
X668Y9116I-249J0D01*
G01*
X2903D02*
G03*
X2903Y9116I-249J0D01*
G01*
X2891Y8115D02*
G03*
X2891Y8115I-249J0D01*
G01*
X668D02*
G03*
X668Y8115I-249J0D01*
G01*
X14321Y9181D02*
G03*
X14381Y9181I30J0D01*
G01*
D83*
X2803Y6169D02*
X2973D01*
Y5884D02*
Y6169D01*
X2803Y5884D02*
X2973D01*
X2803D02*
Y6169D01*
Y6126D02*
X2845Y6169D01*
X2930D02*
X2973Y6126D01*
X2918Y5834D02*
Y5884D01*
X2857Y5834D02*
X2918D01*
X2857D02*
Y5884D01*
X2918D01*
X2857Y6169D02*
Y6219D01*
X2918D01*
Y6169D02*
Y6219D01*
X2857Y6169D02*
X2918D01*
X11380Y6234D02*
X11507Y6361D01*
X11380Y4942D02*
X12800D01*
Y6361D01*
X11380D02*
X12800D01*
X11380Y4942D02*
Y6361D01*
X12110Y9219D02*
X12419D01*
Y8909D02*
Y9219D01*
X12110Y8909D02*
X12419D01*
X12110D02*
Y9219D01*
X12419Y9182D02*
X12517D01*
Y9141D02*
Y9182D01*
X12419Y9141D02*
X12517D01*
X12419D02*
Y9182D01*
Y9117D02*
X12517D01*
Y9076D02*
Y9117D01*
X12419Y9076D02*
X12517D01*
X12419D02*
Y9117D01*
Y9052D02*
X12517D01*
Y9011D02*
Y9052D01*
X12419Y9011D02*
X12517D01*
X12419D02*
Y9052D01*
Y8987D02*
X12517D01*
Y8946D02*
Y8987D01*
X12419Y8946D02*
X12517D01*
X12419D02*
Y8987D01*
X12012Y8946D02*
X12110D01*
X12012D02*
Y8987D01*
X12110D01*
Y8946D02*
Y8987D01*
X12012Y9011D02*
X12110D01*
X12012D02*
Y9052D01*
X12110D01*
Y9011D02*
Y9052D01*
X12012Y9076D02*
X12110D01*
X12012D02*
Y9117D01*
X12110D01*
Y9076D02*
Y9117D01*
X12012Y9141D02*
X12110D01*
X12012D02*
Y9182D01*
X12110D01*
Y9141D02*
Y9182D01*
X9992Y9238D02*
X10302D01*
Y8928D02*
Y9238D01*
X9992Y8928D02*
X10302D01*
X9992D02*
Y9238D01*
X10302Y9200D02*
X10400D01*
Y9160D02*
Y9200D01*
X10302Y9160D02*
X10400D01*
X10302D02*
Y9200D01*
Y9135D02*
X10400D01*
Y9095D02*
Y9135D01*
X10302Y9095D02*
X10400D01*
X10302D02*
Y9135D01*
Y9070D02*
X10400D01*
Y9030D02*
Y9070D01*
X10302Y9030D02*
X10400D01*
X10302D02*
Y9070D01*
Y9005D02*
X10400D01*
Y8965D02*
Y9005D01*
X10302Y8965D02*
X10400D01*
X10302D02*
Y9005D01*
X9895Y8965D02*
X9992D01*
X9895D02*
Y9005D01*
X9992D01*
Y8965D02*
Y9005D01*
X9895Y9030D02*
X9992D01*
X9895D02*
Y9070D01*
X9992D01*
Y9030D02*
Y9070D01*
X9895Y9095D02*
X9992D01*
X9895D02*
Y9135D01*
X9992D01*
Y9095D02*
Y9135D01*
X9895Y9160D02*
X9992D01*
X9895D02*
Y9200D01*
X9992D01*
Y9160D02*
Y9200D01*
X416Y6250D02*
X476D01*
Y6301D01*
X416D02*
X476D01*
X416Y6250D02*
Y6301D01*
Y5966D02*
X476D01*
X416Y5915D02*
Y5966D01*
Y5915D02*
X476D01*
Y5966D01*
X489Y6250D02*
X531Y6208D01*
X361D02*
X403Y6250D01*
X361Y5966D02*
Y6250D01*
Y5966D02*
X531D01*
Y6250D01*
X361D02*
X531D01*
X12646Y7915D02*
Y8415D01*
X13045D01*
Y7915D02*
Y8415D01*
X12646Y7915D02*
X13045D01*
Y8380D02*
X13155D01*
Y8331D02*
Y8380D01*
X13045Y8331D02*
X13155D01*
X13045D02*
Y8380D01*
Y8253D02*
X13155D01*
Y8204D02*
Y8253D01*
X13045Y8204D02*
X13155D01*
X13045D02*
Y8253D01*
Y8126D02*
X13155D01*
Y8077D02*
Y8126D01*
X13045Y8077D02*
X13155D01*
X13045D02*
Y8126D01*
Y7999D02*
X13155D01*
Y7950D02*
Y7999D01*
X13045Y7950D02*
X13155D01*
X13045D02*
Y7999D01*
X12536Y7950D02*
X12646D01*
X12536D02*
Y7999D01*
X12646D01*
Y7950D02*
Y7999D01*
X12536Y8077D02*
X12646D01*
X12536D02*
Y8126D01*
X12646D01*
Y8077D02*
Y8126D01*
X12536Y8204D02*
X12646D01*
X12536D02*
Y8253D01*
X12646D01*
Y8204D02*
Y8253D01*
X12536Y8331D02*
X12646D01*
X12536D02*
Y8380D01*
X12646D01*
Y8331D02*
Y8380D01*
X14119Y7915D02*
Y8415D01*
X14518D01*
Y7915D02*
Y8415D01*
X14119Y7915D02*
X14518D01*
Y8380D02*
X14628D01*
Y8331D02*
Y8380D01*
X14518Y8331D02*
X14628D01*
X14518D02*
Y8380D01*
Y8253D02*
X14628D01*
Y8204D02*
Y8253D01*
X14518Y8204D02*
X14628D01*
X14518D02*
Y8253D01*
Y8126D02*
X14628D01*
Y8077D02*
Y8126D01*
X14518Y8077D02*
X14628D01*
X14518D02*
Y8126D01*
Y7999D02*
X14628D01*
Y7950D02*
Y7999D01*
X14518Y7950D02*
X14628D01*
X14518D02*
Y7999D01*
X14009Y7950D02*
X14119D01*
X14009D02*
Y7999D01*
X14119D01*
Y7950D02*
Y7999D01*
X14009Y8077D02*
X14119D01*
X14009D02*
Y8126D01*
X14119D01*
Y8077D02*
Y8126D01*
X14009Y8204D02*
X14119D01*
X14009D02*
Y8253D01*
X14119D01*
Y8204D02*
Y8253D01*
X14009Y8331D02*
X14119D01*
X14009D02*
Y8380D01*
X14119D01*
Y8331D02*
Y8380D01*
X7501Y9191D02*
Y9242D01*
X7396D02*
X7501D01*
X7396Y9191D02*
Y9242D01*
Y9191D02*
X7501D01*
Y9064D02*
Y9115D01*
X7396D02*
X7501D01*
X7396Y9064D02*
Y9115D01*
Y9064D02*
X7501D01*
Y8937D02*
Y8988D01*
X7396D02*
X7501D01*
X7396Y8937D02*
Y8988D01*
Y8937D02*
X7501D01*
Y8810D02*
Y8861D01*
X7396D02*
X7501D01*
X7396Y8810D02*
Y8861D01*
Y8810D02*
X7501D01*
X7892D02*
Y8861D01*
Y8810D02*
X7996D01*
Y8861D01*
X7892D02*
X7996D01*
X7892Y8937D02*
Y8988D01*
Y8937D02*
X7996D01*
Y8988D01*
X7892D02*
X7996D01*
X7892Y9064D02*
Y9115D01*
Y9064D02*
X7996D01*
Y9115D01*
X7892D02*
X7996D01*
X7892Y9191D02*
Y9242D01*
Y9191D02*
X7996D01*
Y9242D01*
X7892D02*
X7996D01*
X7501Y8781D02*
X7892D01*
Y9271D01*
X7501D02*
X7892D01*
X7501Y8781D02*
Y9271D01*
X419Y9390D02*
Y9517D01*
X356Y9454D02*
X483D01*
X3315Y8138D02*
Y9223D01*
X4381D01*
Y8138D02*
Y9223D01*
X3315Y8138D02*
X4381D01*
X3867Y8100D02*
Y8138D01*
X3829Y8100D02*
X3867D01*
X3829D02*
Y8138D01*
X3867D01*
X4234Y7635D02*
Y8138D01*
X4143Y7635D02*
X4234D01*
X4143D02*
Y8138D01*
X4234D01*
X4064Y7635D02*
Y8138D01*
X3973Y7635D02*
X4064D01*
X3973D02*
Y8138D01*
X4064D01*
X3894Y7635D02*
Y8138D01*
X3802Y7635D02*
X3894D01*
X3802D02*
Y8138D01*
X3894D01*
X3724Y7635D02*
Y8138D01*
X3632Y7635D02*
X3724D01*
X3632D02*
Y8138D01*
X3724D01*
X3553Y7635D02*
Y8138D01*
X3462Y7635D02*
X3553D01*
X3462D02*
Y8138D01*
X3553D01*
X2591Y9454D02*
X2718D01*
X2654Y9390D02*
Y9517D01*
X2578Y8453D02*
X2705D01*
X2642Y8390D02*
Y8517D01*
X1090Y8136D02*
Y9220D01*
X2156D01*
Y8136D02*
Y9220D01*
X1090Y8136D02*
X2156D01*
X1642Y8098D02*
Y8136D01*
X1604Y8098D02*
X1642D01*
X1604D02*
Y8136D01*
X1642D01*
X2009Y7633D02*
Y8136D01*
X1918Y7633D02*
X2009D01*
X1918D02*
Y8136D01*
X2009D01*
X1839Y7633D02*
Y8136D01*
X1748Y7633D02*
X1839D01*
X1748D02*
Y8136D01*
X1839D01*
X1669Y7633D02*
Y8136D01*
X1577Y7633D02*
X1669D01*
X1577D02*
Y8136D01*
X1669D01*
X1499Y7633D02*
Y8136D01*
X1407Y7633D02*
X1499D01*
X1407D02*
Y8136D01*
X1499D01*
X1328Y7633D02*
Y8136D01*
X1237Y7633D02*
X1328D01*
X1237D02*
Y8136D01*
X1328D01*
X356Y8453D02*
X483D01*
X419Y8390D02*
Y8517D01*
X14196Y9181D02*
X14506D01*
Y8871D02*
Y9181D01*
X14196Y8871D02*
X14506D01*
X14196D02*
Y9181D01*
X14506Y9144D02*
X14604D01*
Y9103D02*
Y9144D01*
X14506Y9103D02*
X14604D01*
X14506D02*
Y9144D01*
Y9079D02*
X14604D01*
Y9038D02*
Y9079D01*
X14506Y9038D02*
X14604D01*
X14506D02*
Y9079D01*
Y9014D02*
X14604D01*
Y8973D02*
Y9014D01*
X14506Y8973D02*
X14604D01*
X14506D02*
Y9014D01*
Y8949D02*
X14604D01*
Y8908D02*
Y8949D01*
X14506Y8908D02*
X14604D01*
X14506D02*
Y8949D01*
X14098Y8908D02*
X14196D01*
X14098D02*
Y8949D01*
X14196D01*
Y8908D02*
Y8949D01*
X14098Y8973D02*
X14196D01*
X14098D02*
Y9014D01*
X14196D01*
Y8973D02*
Y9014D01*
X14098Y9038D02*
X14196D01*
X14098D02*
Y9079D01*
X14196D01*
Y9038D02*
Y9079D01*
X14098Y9103D02*
X14196D01*
X14098D02*
Y9144D01*
X14196D01*
Y9103D02*
Y9144D01*
M02*
