G04*
G04 #@! TF.GenerationSoftware,Altium Limited,Altium Designer,24.3.1 (35)*
G04*
G04 Layer_Color=8421504*
%FSLAX42Y42*%
%MOMM*%
G71*
G04*
G04 #@! TF.SameCoordinates,998AAEF2-78E8-49C1-A84E-A9ECD080E68D*
G04*
G04*
G04 #@! TF.FilePolarity,Positive*
G04*
G01*
G75*
%ADD18R,1.15X1.35*%
%ADD19R,1.60X1.50*%
%ADD20R,0.74X2.79*%
%ADD21R,1.15X1.45*%
%ADD22R,1.35X1.15*%
%ADD23R,1.45X1.15*%
%ADD24R,1.55X2.10*%
%ADD25R,0.66X1.12*%
%ADD26R,1.20X1.20*%
%ADD27R,1.19X0.30*%
%ADD28R,0.30X1.19*%
%ADD29R,0.80X1.50*%
%ADD30R,3.00X2.50*%
%ADD31R,0.90X0.80*%
%ADD32R,1.46X0.53*%
%ADD33R,2.29X0.56*%
%ADD34R,2.90X5.40*%
%ADD35R,6.60X8.76*%
%ADD36R,0.97X3.81*%
%ADD37R,6.55X8.46*%
%ADD38R,0.97X3.51*%
%ADD39R,2.50X2.00*%
G36*
X8327Y9548D02*
D01*
X8147D01*
Y9888D01*
X8327D01*
Y9548D01*
D02*
G37*
G36*
X8581D02*
D01*
X8401D01*
Y9888D01*
X8581D01*
Y9548D01*
D02*
G37*
G36*
X8835D02*
D01*
X8655D01*
Y9888D01*
X8835D01*
Y9548D01*
D02*
G37*
G36*
X9089D02*
D01*
X8909D01*
Y9888D01*
X9089D01*
Y9548D01*
D02*
G37*
G36*
X9343D02*
D01*
X9163D01*
Y9888D01*
X9343D01*
Y9548D01*
D02*
G37*
G36*
X9597D02*
D01*
X9417D01*
Y9888D01*
X9597D01*
Y9548D01*
D02*
G37*
G36*
X9851D02*
D01*
X9671D01*
Y9888D01*
X9851D01*
Y9548D01*
D02*
G37*
G36*
X10105D02*
D01*
X9925D01*
Y9888D01*
X10105D01*
Y9548D01*
D02*
G37*
G36*
X10359D02*
D01*
X10179D01*
Y9888D01*
X10359D01*
Y9548D01*
D02*
G37*
G36*
X10613D02*
D01*
X10433D01*
Y9888D01*
X10613D01*
Y9548D01*
D02*
G37*
G36*
X10867D02*
D01*
X10687D01*
Y9888D01*
X10867D01*
Y9548D01*
D02*
G37*
G36*
X11121D02*
D01*
X10941D01*
Y9888D01*
X11121D01*
Y9548D01*
D02*
G37*
G36*
X11375D02*
D01*
X11195D01*
Y9888D01*
X11375D01*
Y9548D01*
D02*
G37*
G36*
X11629D02*
D01*
X11449D01*
Y9888D01*
X11629D01*
Y9548D01*
D02*
G37*
G36*
X11883D02*
D01*
X11703D01*
Y9888D01*
X11883D01*
Y9548D01*
D02*
G37*
G36*
X12137D02*
D01*
X11957D01*
Y9888D01*
X12137D01*
Y9548D01*
D02*
G37*
G36*
X12391D02*
D01*
X12211D01*
Y9888D01*
X12391D01*
Y9548D01*
D02*
G37*
G36*
X12645D02*
D01*
X12465D01*
Y9888D01*
X12645D01*
Y9548D01*
D02*
G37*
G36*
X12899D02*
D01*
X12719D01*
Y9888D01*
X12899D01*
Y9548D01*
D02*
G37*
G36*
X13153D02*
D01*
X12973D01*
Y9888D01*
X13153D01*
Y9548D01*
D02*
G37*
D18*
X12150Y4085D02*
D03*
X12325D02*
D03*
X14164Y4686D02*
D03*
X13989D02*
D03*
X13997Y5639D02*
D03*
X14172D02*
D03*
X13984Y5283D02*
D03*
X14159D02*
D03*
X13984Y4940D02*
D03*
X14159D02*
D03*
X4293Y4638D02*
D03*
X4468D02*
D03*
X4293Y4244D02*
D03*
X4468D02*
D03*
X4293Y3856D02*
D03*
X4468D02*
D03*
X4769Y3508D02*
D03*
X4944D02*
D03*
X4293D02*
D03*
X4468D02*
D03*
X13223Y4089D02*
D03*
X13048D02*
D03*
X12785Y4085D02*
D03*
X12610D02*
D03*
X7808Y8381D02*
D03*
X7633D02*
D03*
D19*
X14927Y4716D02*
D03*
Y5076D02*
D03*
X2850Y6594D02*
D03*
Y6954D02*
D03*
X483Y6976D02*
D03*
Y6616D02*
D03*
D20*
X14135Y3873D02*
D03*
Y4280D02*
D03*
X14262Y3873D02*
D03*
Y4280D02*
D03*
X14389Y3873D02*
D03*
Y4280D02*
D03*
X14516Y3873D02*
D03*
Y4280D02*
D03*
X14643Y3873D02*
D03*
Y4280D02*
D03*
D21*
X3994Y4638D02*
D03*
X3815D02*
D03*
Y4244D02*
D03*
X3994D02*
D03*
Y3851D02*
D03*
X3815D02*
D03*
X3994Y3508D02*
D03*
X3815D02*
D03*
X10825Y6921D02*
D03*
X10645D02*
D03*
X10825Y6579D02*
D03*
X10645D02*
D03*
X11485Y4089D02*
D03*
X11665D02*
D03*
X11205Y4089D02*
D03*
X11025D02*
D03*
X10645Y5842D02*
D03*
X10825D02*
D03*
X10565Y4089D02*
D03*
X10745D02*
D03*
D22*
X4965Y2816D02*
D03*
Y2991D02*
D03*
X4356Y2997D02*
D03*
Y2822D02*
D03*
X3835Y2997D02*
D03*
Y2822D02*
D03*
X3327Y2997D02*
D03*
Y2822D02*
D03*
X2984Y2997D02*
D03*
Y2822D02*
D03*
X2659Y2997D02*
D03*
Y2822D02*
D03*
X1727Y2997D02*
D03*
Y2822D02*
D03*
X1435Y2997D02*
D03*
Y2822D02*
D03*
X813Y2997D02*
D03*
Y2822D02*
D03*
X2828Y7326D02*
D03*
Y7501D02*
D03*
X467Y7341D02*
D03*
Y7516D02*
D03*
X13071Y9152D02*
D03*
Y8977D02*
D03*
X9097D02*
D03*
Y9152D02*
D03*
X8459Y9131D02*
D03*
Y8956D02*
D03*
X11067Y8090D02*
D03*
Y8265D02*
D03*
X11347D02*
D03*
Y8090D02*
D03*
X11652Y8092D02*
D03*
Y8267D02*
D03*
X4143Y920D02*
D03*
Y1095D02*
D03*
X3809Y1095D02*
D03*
Y920D02*
D03*
X3142Y1095D02*
D03*
Y920D02*
D03*
X2475Y920D02*
D03*
Y1095D02*
D03*
X1808Y920D02*
D03*
Y1095D02*
D03*
X11016Y8978D02*
D03*
Y9153D02*
D03*
X13880Y9145D02*
D03*
Y8970D02*
D03*
X13805Y7305D02*
D03*
Y7480D02*
D03*
X11773Y8977D02*
D03*
Y9152D02*
D03*
X2311Y2821D02*
D03*
Y2996D02*
D03*
X465Y2997D02*
D03*
Y2822D02*
D03*
X12229Y1791D02*
D03*
Y1616D02*
D03*
X1140Y1095D02*
D03*
Y920D02*
D03*
X499Y920D02*
D03*
Y1095D02*
D03*
X4839Y1105D02*
D03*
Y930D02*
D03*
X12596Y1791D02*
D03*
Y1616D02*
D03*
X2808Y1095D02*
D03*
Y920D02*
D03*
X2896Y4964D02*
D03*
Y4789D02*
D03*
X2117Y4964D02*
D03*
Y4789D02*
D03*
X1338Y4964D02*
D03*
Y4789D02*
D03*
X559Y4964D02*
D03*
Y4789D02*
D03*
D23*
X2005Y3021D02*
D03*
Y2841D02*
D03*
X1156Y2820D02*
D03*
Y3000D02*
D03*
X13611Y8971D02*
D03*
Y9150D02*
D03*
X13341Y9154D02*
D03*
Y8974D02*
D03*
X9663Y8971D02*
D03*
Y9150D02*
D03*
X9380Y9154D02*
D03*
Y8974D02*
D03*
X13480Y8062D02*
D03*
Y8242D02*
D03*
X14150Y7490D02*
D03*
Y7310D02*
D03*
X14480Y7310D02*
D03*
Y7490D02*
D03*
X10668Y7439D02*
D03*
Y7260D02*
D03*
X11006Y7437D02*
D03*
Y7257D02*
D03*
X14757Y355D02*
D03*
Y534D02*
D03*
X14439D02*
D03*
Y355D02*
D03*
X14121D02*
D03*
Y534D02*
D03*
X13802D02*
D03*
Y355D02*
D03*
X13484D02*
D03*
Y534D02*
D03*
X13165D02*
D03*
Y355D02*
D03*
X12847D02*
D03*
Y534D02*
D03*
X12529Y355D02*
D03*
Y534D02*
D03*
X12210D02*
D03*
Y355D02*
D03*
X11892D02*
D03*
Y534D02*
D03*
X11573Y355D02*
D03*
Y534D02*
D03*
X11255D02*
D03*
Y355D02*
D03*
X10937D02*
D03*
Y534D02*
D03*
X10618Y355D02*
D03*
Y534D02*
D03*
X10300Y355D02*
D03*
Y534D02*
D03*
X4476Y1097D02*
D03*
Y917D02*
D03*
X3476Y1097D02*
D03*
Y917D02*
D03*
X2141Y917D02*
D03*
Y1097D02*
D03*
X1474Y917D02*
D03*
Y1097D02*
D03*
X807D02*
D03*
Y917D02*
D03*
X7074Y8936D02*
D03*
Y9116D02*
D03*
X11969Y8264D02*
D03*
Y8084D02*
D03*
X11510Y9154D02*
D03*
Y8974D02*
D03*
X5252Y921D02*
D03*
Y1101D02*
D03*
X11263Y9154D02*
D03*
Y8974D02*
D03*
X241Y898D02*
D03*
Y1078D02*
D03*
X165Y3000D02*
D03*
Y2820D02*
D03*
D24*
X2591Y2424D02*
D03*
X2845D02*
D03*
Y1564D02*
D03*
X2591D02*
D03*
X3344Y2424D02*
D03*
X3598D02*
D03*
Y1564D02*
D03*
X3344D02*
D03*
X4851Y2424D02*
D03*
X5105D02*
D03*
Y1564D02*
D03*
X4851D02*
D03*
X1075Y3507D02*
D03*
X1329D02*
D03*
Y4367D02*
D03*
X1075D02*
D03*
X2642Y3507D02*
D03*
X2896D02*
D03*
Y4367D02*
D03*
X2642D02*
D03*
X1858D02*
D03*
X2112D02*
D03*
Y3507D02*
D03*
X1858D02*
D03*
X292Y4367D02*
D03*
X546D02*
D03*
Y3507D02*
D03*
X292D02*
D03*
X1837Y2424D02*
D03*
X2091D02*
D03*
Y1564D02*
D03*
X1837D02*
D03*
X1084Y2424D02*
D03*
X1338D02*
D03*
Y1564D02*
D03*
X1084D02*
D03*
X330D02*
D03*
X584D02*
D03*
Y2424D02*
D03*
X330D02*
D03*
X4098Y1564D02*
D03*
X4352D02*
D03*
Y2424D02*
D03*
X4098D02*
D03*
D25*
X2888Y5829D02*
D03*
Y6224D02*
D03*
X446Y6306D02*
D03*
Y5910D02*
D03*
D26*
X12802Y8947D02*
D03*
Y9157D02*
D03*
X10770D02*
D03*
Y8947D02*
D03*
X8814Y9157D02*
D03*
Y8947D02*
D03*
D27*
X11315Y6251D02*
D03*
Y6201D02*
D03*
Y6151D02*
D03*
Y6101D02*
D03*
Y6051D02*
D03*
Y6001D02*
D03*
Y5951D02*
D03*
Y5901D02*
D03*
Y5851D02*
D03*
Y5801D02*
D03*
Y5751D02*
D03*
Y5701D02*
D03*
Y5651D02*
D03*
Y5601D02*
D03*
Y5551D02*
D03*
Y5501D02*
D03*
Y5451D02*
D03*
Y5401D02*
D03*
Y5351D02*
D03*
Y5301D02*
D03*
Y5251D02*
D03*
Y5201D02*
D03*
Y5151D02*
D03*
Y5101D02*
D03*
Y5051D02*
D03*
X12865D02*
D03*
Y5101D02*
D03*
Y5151D02*
D03*
Y5201D02*
D03*
Y5251D02*
D03*
Y5301D02*
D03*
Y5351D02*
D03*
Y5401D02*
D03*
Y5451D02*
D03*
Y5501D02*
D03*
Y5551D02*
D03*
Y5601D02*
D03*
Y5651D02*
D03*
Y5701D02*
D03*
Y5751D02*
D03*
Y5801D02*
D03*
Y5851D02*
D03*
Y5901D02*
D03*
Y5951D02*
D03*
Y6001D02*
D03*
Y6051D02*
D03*
Y6101D02*
D03*
Y6151D02*
D03*
Y6201D02*
D03*
Y6251D02*
D03*
D28*
X11490Y4876D02*
D03*
X11540D02*
D03*
X11590D02*
D03*
X11640D02*
D03*
X11690D02*
D03*
X11740D02*
D03*
X11790D02*
D03*
X11840D02*
D03*
X11890D02*
D03*
X11940D02*
D03*
X11990D02*
D03*
X12040D02*
D03*
X12090D02*
D03*
X12140D02*
D03*
X12190D02*
D03*
X12240D02*
D03*
X12290D02*
D03*
X12340D02*
D03*
X12390D02*
D03*
X12440D02*
D03*
X12490D02*
D03*
X12540D02*
D03*
X12590D02*
D03*
X12640D02*
D03*
X12690D02*
D03*
Y6426D02*
D03*
X12640D02*
D03*
X12590D02*
D03*
X12540D02*
D03*
X12490D02*
D03*
X12440D02*
D03*
X12390D02*
D03*
X12340D02*
D03*
X12290D02*
D03*
X12240D02*
D03*
X12190D02*
D03*
X12140D02*
D03*
X12090D02*
D03*
X12040D02*
D03*
X11990D02*
D03*
X11940D02*
D03*
X11890D02*
D03*
X11840D02*
D03*
X11790D02*
D03*
X11740D02*
D03*
X11690D02*
D03*
X11640D02*
D03*
X11590D02*
D03*
X11540D02*
D03*
X11490D02*
D03*
D29*
X10633Y6223D02*
D03*
X10783D02*
D03*
D30*
X10563Y5582D02*
D03*
Y4932D02*
D03*
D31*
X12890Y1779D02*
D03*
Y1589D02*
D03*
X13090Y1684D02*
D03*
D32*
X13118Y8356D02*
D03*
Y8229D02*
D03*
Y8101D02*
D03*
Y7975D02*
D03*
X12573D02*
D03*
Y8101D02*
D03*
Y8229D02*
D03*
Y8356D02*
D03*
X14591D02*
D03*
Y8229D02*
D03*
Y8101D02*
D03*
Y7975D02*
D03*
X14046D02*
D03*
Y8101D02*
D03*
Y8229D02*
D03*
Y8356D02*
D03*
D33*
X7455Y9217D02*
D03*
Y9090D02*
D03*
Y8963D02*
D03*
Y8836D02*
D03*
X7938D02*
D03*
Y8963D02*
D03*
Y9090D02*
D03*
Y9217D02*
D03*
D34*
X4353Y6198D02*
D03*
X3383D02*
D03*
X2081Y6238D02*
D03*
X1111D02*
D03*
D35*
X3848Y8937D02*
D03*
D36*
X4188Y7770D02*
D03*
X4018D02*
D03*
X3848D02*
D03*
X3678D02*
D03*
X3508D02*
D03*
D37*
X1623Y8952D02*
D03*
D38*
X1963Y7772D02*
D03*
X1793D02*
D03*
X1623D02*
D03*
X1453D02*
D03*
X1283D02*
D03*
D39*
X10729Y1727D02*
D03*
X9919D02*
D03*
M02*
