G04*
G04 #@! TF.GenerationSoftware,Altium Limited,Altium Designer,24.3.1 (35)*
G04*
G04 Layer_Color=8388736*
%FSLAX42Y42*%
%MOMM*%
G71*
G04*
G04 #@! TF.SameCoordinates,998AAEF2-78E8-49C1-A84E-A9ECD080E68D*
G04*
G04*
G04 #@! TF.FilePolarity,Negative*
G04*
G01*
G75*
%ADD25R,0.66X1.12*%
%ADD27R,1.19X0.30*%
%ADD28R,0.30X1.19*%
%ADD32R,1.46X0.53*%
%ADD33R,2.29X0.56*%
%ADD35R,6.60X8.76*%
%ADD36R,0.97X3.81*%
%ADD37R,6.55X8.46*%
%ADD38R,0.97X3.51*%
%ADD40R,1.35X1.55*%
%ADD41R,1.80X1.70*%
%ADD42R,0.94X2.99*%
%ADD43R,1.35X1.65*%
%ADD44R,1.55X1.35*%
%ADD45R,1.65X1.35*%
%ADD46R,1.75X2.30*%
%ADD47R,1.40X1.40*%
%ADD48R,1.00X1.70*%
%ADD49R,3.20X2.70*%
%ADD50R,1.10X1.00*%
%ADD51R,1.57X0.66*%
%ADD52R,3.10X5.60*%
%ADD53R,2.70X2.20*%
%ADD54C,0.71*%
%ADD55C,1.49*%
%ADD56C,1.85*%
%ADD57C,1.20*%
%ADD58C,5.20*%
%ADD59C,2.83*%
%ADD60R,2.83X2.83*%
%ADD61R,1.93X1.93*%
%ADD62C,1.93*%
%ADD63R,1.27X1.27*%
%ADD64C,1.27*%
%ADD65C,0.90*%
%ADD66C,1.00*%
%ADD67C,1.47*%
G36*
X8327Y9548D02*
D01*
X8147D01*
Y9888D01*
X8327D01*
Y9548D01*
D02*
G37*
G36*
X8581D02*
D01*
X8401D01*
Y9888D01*
X8581D01*
Y9548D01*
D02*
G37*
G36*
X8835D02*
D01*
X8655D01*
Y9888D01*
X8835D01*
Y9548D01*
D02*
G37*
G36*
X9089D02*
D01*
X8909D01*
Y9888D01*
X9089D01*
Y9548D01*
D02*
G37*
G36*
X9343D02*
D01*
X9163D01*
Y9888D01*
X9343D01*
Y9548D01*
D02*
G37*
G36*
X9597D02*
D01*
X9417D01*
Y9888D01*
X9597D01*
Y9548D01*
D02*
G37*
G36*
X9851D02*
D01*
X9671D01*
Y9888D01*
X9851D01*
Y9548D01*
D02*
G37*
G36*
X10105D02*
D01*
X9925D01*
Y9888D01*
X10105D01*
Y9548D01*
D02*
G37*
G36*
X10359D02*
D01*
X10179D01*
Y9888D01*
X10359D01*
Y9548D01*
D02*
G37*
G36*
X10613D02*
D01*
X10433D01*
Y9888D01*
X10613D01*
Y9548D01*
D02*
G37*
G36*
X10867D02*
D01*
X10687D01*
Y9888D01*
X10867D01*
Y9548D01*
D02*
G37*
G36*
X11121D02*
D01*
X10941D01*
Y9888D01*
X11121D01*
Y9548D01*
D02*
G37*
G36*
X11375D02*
D01*
X11195D01*
Y9888D01*
X11375D01*
Y9548D01*
D02*
G37*
G36*
X11629D02*
D01*
X11449D01*
Y9888D01*
X11629D01*
Y9548D01*
D02*
G37*
G36*
X11883D02*
D01*
X11703D01*
Y9888D01*
X11883D01*
Y9548D01*
D02*
G37*
G36*
X12137D02*
D01*
X11957D01*
Y9888D01*
X12137D01*
Y9548D01*
D02*
G37*
G36*
X12391D02*
D01*
X12211D01*
Y9888D01*
X12391D01*
Y9548D01*
D02*
G37*
G36*
X12645D02*
D01*
X12465D01*
Y9888D01*
X12645D01*
Y9548D01*
D02*
G37*
G36*
X12899D02*
D01*
X12719D01*
Y9888D01*
X12899D01*
Y9548D01*
D02*
G37*
G36*
X13153D02*
D01*
X12973D01*
Y9888D01*
X13153D01*
Y9548D01*
D02*
G37*
D25*
X2888Y5829D02*
D03*
Y6224D02*
D03*
X446Y6306D02*
D03*
Y5910D02*
D03*
D27*
X11315Y6251D02*
D03*
Y6201D02*
D03*
Y6151D02*
D03*
Y6101D02*
D03*
Y6051D02*
D03*
Y6001D02*
D03*
Y5951D02*
D03*
Y5901D02*
D03*
Y5851D02*
D03*
Y5801D02*
D03*
Y5751D02*
D03*
Y5701D02*
D03*
Y5651D02*
D03*
Y5601D02*
D03*
Y5551D02*
D03*
Y5501D02*
D03*
Y5451D02*
D03*
Y5401D02*
D03*
Y5351D02*
D03*
Y5301D02*
D03*
Y5251D02*
D03*
Y5201D02*
D03*
Y5151D02*
D03*
Y5101D02*
D03*
Y5051D02*
D03*
X12865D02*
D03*
Y5101D02*
D03*
Y5151D02*
D03*
Y5201D02*
D03*
Y5251D02*
D03*
Y5301D02*
D03*
Y5351D02*
D03*
Y5401D02*
D03*
Y5451D02*
D03*
Y5501D02*
D03*
Y5551D02*
D03*
Y5601D02*
D03*
Y5651D02*
D03*
Y5701D02*
D03*
Y5751D02*
D03*
Y5801D02*
D03*
Y5851D02*
D03*
Y5901D02*
D03*
Y5951D02*
D03*
Y6001D02*
D03*
Y6051D02*
D03*
Y6101D02*
D03*
Y6151D02*
D03*
Y6201D02*
D03*
Y6251D02*
D03*
D28*
X11490Y4876D02*
D03*
X11540D02*
D03*
X11590D02*
D03*
X11640D02*
D03*
X11690D02*
D03*
X11740D02*
D03*
X11790D02*
D03*
X11840D02*
D03*
X11890D02*
D03*
X11940D02*
D03*
X11990D02*
D03*
X12040D02*
D03*
X12090D02*
D03*
X12140D02*
D03*
X12190D02*
D03*
X12240D02*
D03*
X12290D02*
D03*
X12340D02*
D03*
X12390D02*
D03*
X12440D02*
D03*
X12490D02*
D03*
X12540D02*
D03*
X12590D02*
D03*
X12640D02*
D03*
X12690D02*
D03*
Y6426D02*
D03*
X12640D02*
D03*
X12590D02*
D03*
X12540D02*
D03*
X12490D02*
D03*
X12440D02*
D03*
X12390D02*
D03*
X12340D02*
D03*
X12290D02*
D03*
X12240D02*
D03*
X12190D02*
D03*
X12140D02*
D03*
X12090D02*
D03*
X12040D02*
D03*
X11990D02*
D03*
X11940D02*
D03*
X11890D02*
D03*
X11840D02*
D03*
X11790D02*
D03*
X11740D02*
D03*
X11690D02*
D03*
X11640D02*
D03*
X11590D02*
D03*
X11540D02*
D03*
X11490D02*
D03*
D32*
X13118Y8356D02*
D03*
Y8229D02*
D03*
Y8101D02*
D03*
Y7975D02*
D03*
X12573D02*
D03*
Y8101D02*
D03*
Y8229D02*
D03*
Y8356D02*
D03*
X14591D02*
D03*
Y8229D02*
D03*
Y8101D02*
D03*
Y7975D02*
D03*
X14046D02*
D03*
Y8101D02*
D03*
Y8229D02*
D03*
Y8356D02*
D03*
D33*
X7455Y9217D02*
D03*
Y9090D02*
D03*
Y8963D02*
D03*
Y8836D02*
D03*
X7938D02*
D03*
Y8963D02*
D03*
Y9090D02*
D03*
Y9217D02*
D03*
D35*
X3848Y8937D02*
D03*
D36*
X4188Y7770D02*
D03*
X4018D02*
D03*
X3848D02*
D03*
X3678D02*
D03*
X3508D02*
D03*
D37*
X1623Y8952D02*
D03*
D38*
X1963Y7772D02*
D03*
X1793D02*
D03*
X1623D02*
D03*
X1453D02*
D03*
X1283D02*
D03*
D40*
X12150Y4085D02*
D03*
X12325D02*
D03*
X14164Y4686D02*
D03*
X13989D02*
D03*
X13997Y5639D02*
D03*
X14172D02*
D03*
X13984Y5283D02*
D03*
X14159D02*
D03*
X13984Y4940D02*
D03*
X14159D02*
D03*
X4293Y4638D02*
D03*
X4468D02*
D03*
X4293Y4244D02*
D03*
X4468D02*
D03*
X4293Y3856D02*
D03*
X4468D02*
D03*
X4769Y3508D02*
D03*
X4944D02*
D03*
X4293D02*
D03*
X4468D02*
D03*
X13223Y4089D02*
D03*
X13048D02*
D03*
X12785Y4085D02*
D03*
X12610D02*
D03*
X7808Y8381D02*
D03*
X7633D02*
D03*
D41*
X14927Y4716D02*
D03*
Y5076D02*
D03*
X2850Y6594D02*
D03*
Y6954D02*
D03*
X483Y6976D02*
D03*
Y6616D02*
D03*
D42*
X14135Y3873D02*
D03*
Y4280D02*
D03*
X14262Y3873D02*
D03*
Y4280D02*
D03*
X14389Y3873D02*
D03*
Y4280D02*
D03*
X14516Y3873D02*
D03*
Y4280D02*
D03*
X14643Y3873D02*
D03*
Y4280D02*
D03*
D43*
X3994Y4638D02*
D03*
X3815D02*
D03*
Y4244D02*
D03*
X3994D02*
D03*
Y3851D02*
D03*
X3815D02*
D03*
X3994Y3508D02*
D03*
X3815D02*
D03*
X10825Y6921D02*
D03*
X10645D02*
D03*
X10825Y6579D02*
D03*
X10645D02*
D03*
X11485Y4089D02*
D03*
X11665D02*
D03*
X11205Y4089D02*
D03*
X11025D02*
D03*
X10645Y5842D02*
D03*
X10825D02*
D03*
X10565Y4089D02*
D03*
X10745D02*
D03*
D44*
X4965Y2816D02*
D03*
Y2991D02*
D03*
X4356Y2997D02*
D03*
Y2822D02*
D03*
X3835Y2997D02*
D03*
Y2822D02*
D03*
X3327Y2997D02*
D03*
Y2822D02*
D03*
X2984Y2997D02*
D03*
Y2822D02*
D03*
X2659Y2997D02*
D03*
Y2822D02*
D03*
X1727Y2997D02*
D03*
Y2822D02*
D03*
X1435Y2997D02*
D03*
Y2822D02*
D03*
X813Y2997D02*
D03*
Y2822D02*
D03*
X2828Y7326D02*
D03*
Y7501D02*
D03*
X467Y7341D02*
D03*
Y7516D02*
D03*
X13071Y9152D02*
D03*
Y8977D02*
D03*
X9097D02*
D03*
Y9152D02*
D03*
X8459Y9131D02*
D03*
Y8956D02*
D03*
X11067Y8090D02*
D03*
Y8265D02*
D03*
X11347D02*
D03*
Y8090D02*
D03*
X11652Y8092D02*
D03*
Y8267D02*
D03*
X4143Y920D02*
D03*
Y1095D02*
D03*
X3809Y1095D02*
D03*
Y920D02*
D03*
X3142Y1095D02*
D03*
Y920D02*
D03*
X2475Y920D02*
D03*
Y1095D02*
D03*
X1808Y920D02*
D03*
Y1095D02*
D03*
X11016Y8978D02*
D03*
Y9153D02*
D03*
X13880Y9145D02*
D03*
Y8970D02*
D03*
X13805Y7305D02*
D03*
Y7480D02*
D03*
X11773Y8977D02*
D03*
Y9152D02*
D03*
X2311Y2821D02*
D03*
Y2996D02*
D03*
X465Y2997D02*
D03*
Y2822D02*
D03*
X12229Y1791D02*
D03*
Y1616D02*
D03*
X1140Y1095D02*
D03*
Y920D02*
D03*
X499Y920D02*
D03*
Y1095D02*
D03*
X4839Y1105D02*
D03*
Y930D02*
D03*
X12596Y1791D02*
D03*
Y1616D02*
D03*
X2808Y1095D02*
D03*
Y920D02*
D03*
X2896Y4964D02*
D03*
Y4789D02*
D03*
X2117Y4964D02*
D03*
Y4789D02*
D03*
X1338Y4964D02*
D03*
Y4789D02*
D03*
X559Y4964D02*
D03*
Y4789D02*
D03*
D45*
X2005Y3021D02*
D03*
Y2841D02*
D03*
X1156Y2820D02*
D03*
Y3000D02*
D03*
X13611Y8971D02*
D03*
Y9150D02*
D03*
X13341Y9154D02*
D03*
Y8974D02*
D03*
X9663Y8971D02*
D03*
Y9150D02*
D03*
X9380Y9154D02*
D03*
Y8974D02*
D03*
X13480Y8062D02*
D03*
Y8242D02*
D03*
X14150Y7490D02*
D03*
Y7310D02*
D03*
X14480Y7310D02*
D03*
Y7490D02*
D03*
X10668Y7439D02*
D03*
Y7260D02*
D03*
X11006Y7437D02*
D03*
Y7257D02*
D03*
X14757Y355D02*
D03*
Y534D02*
D03*
X14439D02*
D03*
Y355D02*
D03*
X14121D02*
D03*
Y534D02*
D03*
X13802D02*
D03*
Y355D02*
D03*
X13484D02*
D03*
Y534D02*
D03*
X13165D02*
D03*
Y355D02*
D03*
X12847D02*
D03*
Y534D02*
D03*
X12529Y355D02*
D03*
Y534D02*
D03*
X12210D02*
D03*
Y355D02*
D03*
X11892D02*
D03*
Y534D02*
D03*
X11573Y355D02*
D03*
Y534D02*
D03*
X11255D02*
D03*
Y355D02*
D03*
X10937D02*
D03*
Y534D02*
D03*
X10618Y355D02*
D03*
Y534D02*
D03*
X10300Y355D02*
D03*
Y534D02*
D03*
X4476Y1097D02*
D03*
Y917D02*
D03*
X3476Y1097D02*
D03*
Y917D02*
D03*
X2141Y917D02*
D03*
Y1097D02*
D03*
X1474Y917D02*
D03*
Y1097D02*
D03*
X807D02*
D03*
Y917D02*
D03*
X7074Y8936D02*
D03*
Y9116D02*
D03*
X11969Y8264D02*
D03*
Y8084D02*
D03*
X11510Y9154D02*
D03*
Y8974D02*
D03*
X5252Y921D02*
D03*
Y1101D02*
D03*
X11263Y9154D02*
D03*
Y8974D02*
D03*
X241Y898D02*
D03*
Y1078D02*
D03*
X165Y3000D02*
D03*
Y2820D02*
D03*
D46*
X2591Y2424D02*
D03*
X2845D02*
D03*
Y1564D02*
D03*
X2591D02*
D03*
X3344Y2424D02*
D03*
X3598D02*
D03*
Y1564D02*
D03*
X3344D02*
D03*
X4851Y2424D02*
D03*
X5105D02*
D03*
Y1564D02*
D03*
X4851D02*
D03*
X1075Y3507D02*
D03*
X1329D02*
D03*
Y4367D02*
D03*
X1075D02*
D03*
X2642Y3507D02*
D03*
X2896D02*
D03*
Y4367D02*
D03*
X2642D02*
D03*
X1858D02*
D03*
X2112D02*
D03*
Y3507D02*
D03*
X1858D02*
D03*
X292Y4367D02*
D03*
X546D02*
D03*
Y3507D02*
D03*
X292D02*
D03*
X1837Y2424D02*
D03*
X2091D02*
D03*
Y1564D02*
D03*
X1837D02*
D03*
X1084Y2424D02*
D03*
X1338D02*
D03*
Y1564D02*
D03*
X1084D02*
D03*
X330D02*
D03*
X584D02*
D03*
Y2424D02*
D03*
X330D02*
D03*
X4098Y1564D02*
D03*
X4352D02*
D03*
Y2424D02*
D03*
X4098D02*
D03*
D47*
X12802Y8947D02*
D03*
Y9157D02*
D03*
X10770D02*
D03*
Y8947D02*
D03*
X8814Y9157D02*
D03*
Y8947D02*
D03*
D48*
X10633Y6223D02*
D03*
X10783D02*
D03*
D49*
X10563Y5582D02*
D03*
Y4932D02*
D03*
D50*
X12890Y1779D02*
D03*
Y1589D02*
D03*
X13090Y1684D02*
D03*
D51*
X12484Y9162D02*
D03*
Y9097D02*
D03*
Y9032D02*
D03*
Y8967D02*
D03*
X12045D02*
D03*
Y9032D02*
D03*
Y9097D02*
D03*
Y9162D02*
D03*
X10367Y9180D02*
D03*
Y9115D02*
D03*
Y9050D02*
D03*
Y8985D02*
D03*
X9928D02*
D03*
Y9050D02*
D03*
Y9115D02*
D03*
Y9180D02*
D03*
X14571Y9124D02*
D03*
Y9059D02*
D03*
Y8994D02*
D03*
Y8929D02*
D03*
X14131D02*
D03*
Y8994D02*
D03*
Y9059D02*
D03*
Y9124D02*
D03*
D52*
X4353Y6198D02*
D03*
X3383D02*
D03*
X2081Y6238D02*
D03*
X1111D02*
D03*
D53*
X10729Y1727D02*
D03*
X9919D02*
D03*
D54*
X14199Y4077D02*
D03*
X14580D02*
D03*
D55*
X14465Y1664D02*
D03*
X13957D02*
D03*
X14211Y1410D02*
D03*
D56*
X9220Y686D02*
D03*
X8720D02*
D03*
X8014D02*
D03*
X7514D02*
D03*
X6807D02*
D03*
X6307D02*
D03*
D57*
X8237Y9638D02*
D03*
X8491D02*
D03*
X8745D02*
D03*
X8999D02*
D03*
X9253D02*
D03*
X9507D02*
D03*
X9761D02*
D03*
X10015D02*
D03*
X10269D02*
D03*
X10523D02*
D03*
X10777D02*
D03*
X11031D02*
D03*
X11285D02*
D03*
X11539D02*
D03*
X11793D02*
D03*
X12047D02*
D03*
X12301D02*
D03*
X12555D02*
D03*
X13063D02*
D03*
X12809D02*
D03*
X6718Y7607D02*
D03*
Y2567D02*
D03*
X8528Y7457D02*
D03*
Y2717D02*
D03*
D58*
X5663Y3138D02*
D03*
X14463D02*
D03*
X5663Y9638D02*
D03*
X14463D02*
D03*
D59*
X7048Y6487D02*
D03*
Y6087D02*
D03*
Y5687D02*
D03*
Y5287D02*
D03*
Y4887D02*
D03*
Y4487D02*
D03*
Y4087D02*
D03*
Y3687D02*
D03*
X7448Y6287D02*
D03*
Y5887D02*
D03*
Y5487D02*
D03*
Y5087D02*
D03*
Y4687D02*
D03*
Y4287D02*
D03*
Y3887D02*
D03*
X7848Y6487D02*
D03*
Y6087D02*
D03*
Y5687D02*
D03*
Y5287D02*
D03*
Y4887D02*
D03*
Y4487D02*
D03*
Y4087D02*
D03*
D60*
Y3687D02*
D03*
D61*
X12392Y7089D02*
D03*
D62*
X12646D02*
D03*
D63*
X419Y9241D02*
D03*
X2654D02*
D03*
X2642Y8240D02*
D03*
X419D02*
D03*
D64*
Y8992D02*
D03*
X2654D02*
D03*
X2642Y7991D02*
D03*
X419D02*
D03*
D65*
X12614Y5406D02*
D03*
X13172Y5346D02*
D03*
X12086Y3399D02*
D03*
X10577Y3040D02*
D03*
X9145Y3035D02*
D03*
X6846Y2769D02*
D03*
X6774Y3123D02*
D03*
X5414Y2661D02*
D03*
X13499Y5356D02*
D03*
X13401Y5488D02*
D03*
X12879Y7102D02*
D03*
X12972Y7274D02*
D03*
X11212Y6521D02*
D03*
X10539Y6036D02*
D03*
X9918Y6034D02*
D03*
X10366Y5847D02*
D03*
X7649Y7354D02*
D03*
X11355Y4860D02*
D03*
X11364Y4680D02*
D03*
X11254Y4930D02*
D03*
X13151Y5564D02*
D03*
X13155Y5669D02*
D03*
X8380Y5600D02*
D03*
X4637Y6835D02*
D03*
X3268Y7216D02*
D03*
X338Y5490D02*
D03*
X11660Y3552D02*
D03*
X12010Y4733D02*
D03*
X5369Y2135D02*
D03*
X3051Y2529D02*
D03*
X10895Y4218D02*
D03*
X9648Y4791D02*
D03*
X13516Y5893D02*
D03*
X3590Y2036D02*
D03*
X11688Y9305D02*
D03*
X5584Y4664D02*
D03*
X14526Y4686D02*
D03*
X14260Y4490D02*
D03*
X13392Y4845D02*
D03*
X11098Y6934D02*
D03*
X10436Y7456D02*
D03*
X10320D02*
D03*
X11389Y8563D02*
D03*
X11791Y8519D02*
D03*
X12149Y8260D02*
D03*
X12182Y9355D02*
D03*
X11921Y7764D02*
D03*
X13068Y7577D02*
D03*
X13386Y6745D02*
D03*
X10410Y8516D02*
D03*
X9838Y8499D02*
D03*
X9076Y7731D02*
D03*
X9088Y7475D02*
D03*
X9428Y7229D02*
D03*
X9415Y7023D02*
D03*
X10251Y3444D02*
D03*
X13602Y3457D02*
D03*
X13755Y4012D02*
D03*
X14661Y5792D02*
D03*
Y5160D02*
D03*
X14449Y8105D02*
D03*
X14429Y8574D02*
D03*
X14896Y1298D02*
D03*
X15009Y1712D02*
D03*
X14322Y8316D02*
D03*
X13483Y7257D02*
D03*
X11116Y5397D02*
D03*
X13737Y4211D02*
D03*
X9448Y7724D02*
D03*
X9397Y8313D02*
D03*
X10159Y8622D02*
D03*
X9707Y7729D02*
D03*
X9708Y8283D02*
D03*
X10113Y8284D02*
D03*
X10425Y6263D02*
D03*
X11523Y7752D02*
D03*
X11861Y6994D02*
D03*
X11125Y6132D02*
D03*
X10991Y5777D02*
D03*
X13285Y4729D02*
D03*
X14865Y6448D02*
D03*
X14903Y6235D02*
D03*
X11455Y5358D02*
D03*
X11458Y5694D02*
D03*
D66*
X7505Y2760D02*
D03*
X6955Y3363D02*
D03*
X6470Y3680D02*
D03*
X6479Y3454D02*
D03*
X13392Y5690D02*
D03*
X13749Y5791D02*
D03*
X9619Y7301D02*
D03*
X10958Y4356D02*
D03*
X10954Y4851D02*
D03*
X7549Y7015D02*
D03*
X12562Y4488D02*
D03*
X12148Y4359D02*
D03*
X12092Y4490D02*
D03*
X11228Y3740D02*
D03*
X10061Y1014D02*
D03*
X3077Y2034D02*
D03*
X11290Y4433D02*
D03*
X10781Y4404D02*
D03*
X10235Y4795D02*
D03*
X13367Y5025D02*
D03*
X6619Y2954D02*
D03*
X6723Y2362D02*
D03*
X4587Y1996D02*
D03*
X10742Y9316D02*
D03*
X10391Y9357D02*
D03*
X6567Y8183D02*
D03*
X6650Y8382D02*
D03*
X14457Y3548D02*
D03*
X1526Y2648D02*
D03*
X14352Y7766D02*
D03*
X14039Y7792D02*
D03*
X6779Y4269D02*
D03*
X6166Y3718D02*
D03*
X5853Y3844D02*
D03*
X6179Y3971D02*
D03*
X5646Y3948D02*
D03*
X6278Y4276D02*
D03*
X5556Y4142D02*
D03*
X5505Y4398D02*
D03*
X5706Y4547D02*
D03*
X5334Y5144D02*
D03*
X11782Y7835D02*
D03*
X12789Y6612D02*
D03*
X13524Y6586D02*
D03*
X9692Y7046D02*
D03*
X9913Y6832D02*
D03*
X9893Y3856D02*
D03*
X13131Y3839D02*
D03*
X12275Y8643D02*
D03*
X10487Y5340D02*
D03*
X10490Y5212D02*
D03*
X14514Y1333D02*
D03*
X14586Y8777D02*
D03*
X14426Y8828D02*
D03*
X14349Y9072D02*
D03*
X13769Y6428D02*
D03*
X9854Y7329D02*
D03*
X14794Y9460D02*
D03*
X10694Y5176D02*
D03*
X14565Y6249D02*
D03*
X14826Y8398D02*
D03*
X13285Y7677D02*
D03*
X14895Y9572D02*
D03*
X14405Y7108D02*
D03*
X12832Y4473D02*
D03*
X14902Y3682D02*
D03*
X14430Y5912D02*
D03*
X14871Y3501D02*
D03*
X13908Y6217D02*
D03*
X13905Y6043D02*
D03*
X13702Y9800D02*
D03*
X14884Y9300D02*
D03*
X12489Y9352D02*
D03*
X9402Y4354D02*
D03*
X8265Y7000D02*
D03*
X11126Y8826D02*
D03*
Y8545D02*
D03*
X10597Y8437D02*
D03*
X11970Y8744D02*
D03*
X12404Y8473D02*
D03*
X13382Y4264D02*
D03*
X12496Y7582D02*
D03*
X12389Y7942D02*
D03*
X13741Y9278D02*
D03*
X12274Y9200D02*
D03*
X10406Y8048D02*
D03*
X10636Y8148D02*
D03*
X13790Y8365D02*
D03*
X12970Y8469D02*
D03*
X4834Y6698D02*
D03*
X2639Y4827D02*
D03*
X4139Y4814D02*
D03*
X5897Y8183D02*
D03*
X10105Y8127D02*
D03*
X13870Y8830D02*
D03*
X4622Y3371D02*
D03*
X4627Y3146D02*
D03*
X4626Y2839D02*
D03*
X8903Y2788D02*
D03*
X9624Y636D02*
D03*
X1850Y754D02*
D03*
X3721Y759D02*
D03*
X4215Y355D02*
D03*
X3465Y434D02*
D03*
X4448Y217D02*
D03*
X7883Y2285D02*
D03*
X9027Y2956D02*
D03*
X3558Y3117D02*
D03*
X3454Y3497D02*
D03*
X658Y1280D02*
D03*
X142Y1290D02*
D03*
X12646Y9449D02*
D03*
X10059Y4982D02*
D03*
X10055Y5390D02*
D03*
X8321Y5154D02*
D03*
X5429Y2275D02*
D03*
X5925Y2246D02*
D03*
X2347Y2077D02*
D03*
X9086Y3314D02*
D03*
X6160Y4124D02*
D03*
X5265Y2664D02*
D03*
X1760Y2646D02*
D03*
X2071Y3247D02*
D03*
X2330Y4968D02*
D03*
X8850Y9402D02*
D03*
X8524Y10047D02*
D03*
X13458Y7729D02*
D03*
X12507Y7731D02*
D03*
X13422Y1951D02*
D03*
X11552Y2433D02*
D03*
X11571Y1139D02*
D03*
X8998Y1331D02*
D03*
X8230Y1345D02*
D03*
X6321Y1448D02*
D03*
X5624Y1016D02*
D03*
X4053Y584D02*
D03*
X3143Y589D02*
D03*
X2461Y585D02*
D03*
X991Y418D02*
D03*
X957Y1282D02*
D03*
X5341Y1871D02*
D03*
X8614Y4884D02*
D03*
X8534Y4093D02*
D03*
X5304Y4679D02*
D03*
X8092Y3422D02*
D03*
X9327Y3936D02*
D03*
X10235Y4132D02*
D03*
X2631Y5265D02*
D03*
X1491Y5229D02*
D03*
X1580Y4790D02*
D03*
X9976Y7682D02*
D03*
X6808Y8869D02*
D03*
X9290Y8730D02*
D03*
X11739Y7002D02*
D03*
X11559Y7006D02*
D03*
X7013Y8673D02*
D03*
X7463Y9507D02*
D03*
X7953Y9596D02*
D03*
X8127Y8385D02*
D03*
X1595Y4377D02*
D03*
X2338Y4134D02*
D03*
X434Y3235D02*
D03*
X770Y417D02*
D03*
X5504Y1640D02*
D03*
X4737Y519D02*
D03*
X6289Y6086D02*
D03*
X1589Y2033D02*
D03*
X1801Y4689D02*
D03*
X2451D02*
D03*
X1024D02*
D03*
X239D02*
D03*
X4007Y7199D02*
D03*
X5029Y1281D02*
D03*
X3025Y8560D02*
D03*
X1797Y7188D02*
D03*
X963Y7193D02*
D03*
D67*
X908Y2639D02*
D03*
X13899Y6790D02*
D03*
M02*
