G04*
G04 #@! TF.GenerationSoftware,Altium Limited,Altium Designer,24.3.1 (35)*
G04*
G04 Layer_Color=65535*
%FSLAX42Y42*%
%MOMM*%
G71*
G04*
G04 #@! TF.SameCoordinates,998AAEF2-78E8-49C1-A84E-A9ECD080E68D*
G04*
G04*
G04 #@! TF.FilePolarity,Positive*
G04*
G01*
G75*
%ADD10C,0.20*%
%ADD11C,0.15*%
%ADD12C,0.15*%
%ADD13C,0.10*%
%ADD14C,0.25*%
%ADD15C,0.15*%
%ADD16C,0.14*%
%ADD17C,0.08*%
G36*
X11709Y4791D02*
X11671D01*
Y4766D01*
X11709D01*
Y4791D01*
D02*
G37*
G36*
X11230Y5321D02*
X11205D01*
Y5282D01*
X11230D01*
Y5321D01*
D02*
G37*
G36*
Y5821D02*
X11205D01*
Y5782D01*
X11230D01*
Y5821D01*
D02*
G37*
G36*
X11509Y6512D02*
X11471D01*
Y6537D01*
X11509D01*
Y6512D01*
D02*
G37*
G36*
X12009D02*
X11971D01*
Y6537D01*
X12009D01*
Y6512D01*
D02*
G37*
G36*
X12209Y4791D02*
X12171D01*
Y4766D01*
X12209D01*
Y4791D01*
D02*
G37*
G36*
X12709D02*
X12671D01*
Y4766D01*
X12709D01*
Y4791D01*
D02*
G37*
G36*
X12950Y5521D02*
X12976D01*
Y5482D01*
X12950D01*
Y5521D01*
D02*
G37*
G36*
Y6021D02*
X12976D01*
Y5982D01*
X12950D01*
Y6021D01*
D02*
G37*
G36*
X12509Y6512D02*
X12471D01*
Y6537D01*
X12509D01*
Y6512D01*
D02*
G37*
D10*
X14653Y4455D02*
G03*
X14653Y4455I-5J0D01*
G01*
X3722Y4638D02*
G03*
X3722Y4638I-5J0D01*
G01*
Y4244D02*
G03*
X3722Y4244I-5J0D01*
G01*
Y3851D02*
G03*
X3722Y3851I-5J0D01*
G01*
Y3508D02*
G03*
X3722Y3508I-5J0D01*
G01*
X2010Y2743D02*
G03*
X2010Y2743I-5J0D01*
G01*
X1161Y2722D02*
G03*
X1161Y2722I-5J0D01*
G01*
X13616Y8873D02*
G03*
X13616Y8873I-5J0D01*
G01*
X13346Y8877D02*
G03*
X13346Y8877I-5J0D01*
G01*
X9668Y8873D02*
G03*
X9668Y8873I-5J0D01*
G01*
X9385Y8877D02*
G03*
X9385Y8877I-5J0D01*
G01*
X13485Y7965D02*
G03*
X13485Y7965I-5J0D01*
G01*
X14155Y7212D02*
G03*
X14155Y7212I-5J0D01*
G01*
X14485Y7212D02*
G03*
X14485Y7212I-5J0D01*
G01*
X10673Y7537D02*
G03*
X10673Y7537I-5J0D01*
G01*
X11011Y7159D02*
G03*
X11011Y7159I-5J0D01*
G01*
X10553Y6921D02*
G03*
X10553Y6921I-5J0D01*
G01*
X10928Y6579D02*
G03*
X10928Y6579I-5J0D01*
G01*
X10593Y6103D02*
G03*
X10593Y6103I-5J0D01*
G01*
X14762Y257D02*
G03*
X14762Y257I-5J0D01*
G01*
X14444D02*
G03*
X14444Y257I-5J0D01*
G01*
X14126D02*
G03*
X14126Y257I-5J0D01*
G01*
X13807D02*
G03*
X13807Y257I-5J0D01*
G01*
X13489D02*
G03*
X13489Y257I-5J0D01*
G01*
X13170D02*
G03*
X13170Y257I-5J0D01*
G01*
X12852D02*
G03*
X12852Y257I-5J0D01*
G01*
X12534D02*
G03*
X12534Y257I-5J0D01*
G01*
X12215D02*
G03*
X12215Y257I-5J0D01*
G01*
X11897D02*
G03*
X11897Y257I-5J0D01*
G01*
X11578D02*
G03*
X11578Y257I-5J0D01*
G01*
X11260D02*
G03*
X11260Y257I-5J0D01*
G01*
X10942D02*
G03*
X10942Y257I-5J0D01*
G01*
X10623D02*
G03*
X10623Y257I-5J0D01*
G01*
X10305D02*
G03*
X10305Y257I-5J0D01*
G01*
X9420Y686D02*
G03*
X9440Y686I10J0D01*
G01*
D02*
G03*
X9420Y686I-10J0D01*
G01*
X8214D02*
G03*
X8234Y686I10J0D01*
G01*
D02*
G03*
X8214Y686I-10J0D01*
G01*
X7007D02*
G03*
X7027Y686I10J0D01*
G01*
D02*
G03*
X7007Y686I-10J0D01*
G01*
X4481Y1195D02*
G03*
X4481Y1195I-5J0D01*
G01*
X3481Y819D02*
G03*
X3481Y819I-5J0D01*
G01*
X2146Y1195D02*
G03*
X2146Y1195I-5J0D01*
G01*
X1479D02*
G03*
X1479Y1195I-5J0D01*
G01*
X812D02*
G03*
X812Y1195I-5J0D01*
G01*
X7079Y9214D02*
G03*
X7079Y9214I-5J0D01*
G01*
X11393Y4089D02*
G03*
X11393Y4089I-5J0D01*
G01*
X11974Y8362D02*
G03*
X11974Y8362I-5J0D01*
G01*
X11515Y8877D02*
G03*
X11515Y8877I-5J0D01*
G01*
X5257Y1199D02*
G03*
X5257Y1199I-5J0D01*
G01*
X11268Y8877D02*
G03*
X11268Y8877I-5J0D01*
G01*
X11308Y4089D02*
G03*
X11308Y4089I-5J0D01*
G01*
X246Y1176D02*
G03*
X246Y1176I-5J0D01*
G01*
X170Y2722D02*
G03*
X170Y2722I-5J0D01*
G01*
X10928Y5842D02*
G03*
X10928Y5842I-5J0D01*
G01*
X10473Y4089D02*
G03*
X10473Y4089I-5J0D01*
G01*
X2478Y1459D02*
Y1669D01*
X2488Y1704D02*
X2948D01*
Y2284D01*
X2488D02*
X2948D01*
X2488Y1704D02*
Y2284D01*
X3232Y1459D02*
Y1669D01*
X3241Y1704D02*
X3701D01*
Y2284D01*
X3241D02*
X3701D01*
X3241Y1704D02*
Y2284D01*
X4739Y1459D02*
Y1669D01*
X4748Y1704D02*
X5208D01*
Y2284D01*
X4748D02*
X5208D01*
X4748Y1704D02*
Y2284D01*
X10743Y4847D02*
X10798D01*
X10328Y5667D02*
X10383D01*
X10328Y4847D02*
X10383D01*
X10743Y5667D02*
X10798D01*
X10328Y4847D02*
Y5667D01*
X10798Y4847D02*
Y5667D01*
X12920Y1659D02*
Y1709D01*
X12980Y1829D02*
X13060D01*
Y1757D02*
Y1829D01*
X12980Y1539D02*
X13060D01*
Y1612D01*
X13735Y2140D02*
X14688D01*
X13735Y1187D02*
X14688D01*
X13735D02*
Y2140D01*
X14688Y1187D02*
Y2140D01*
X972Y3647D02*
Y4227D01*
X1432D01*
Y3647D02*
Y4227D01*
X972Y3647D02*
X1432D01*
X963Y3402D02*
Y3612D01*
X2539Y3647D02*
Y4227D01*
X2999D01*
Y3647D02*
Y4227D01*
X2539Y3647D02*
X2999D01*
X2529Y3402D02*
Y3612D01*
X1746Y3402D02*
Y3612D01*
X1755Y3647D02*
X2215D01*
Y4227D01*
X1755D02*
X2215D01*
X1755Y3647D02*
Y4227D01*
X180Y3402D02*
Y3612D01*
X189Y3647D02*
X649D01*
Y4227D01*
X189D02*
X649D01*
X189Y3647D02*
Y4227D01*
X1725Y1459D02*
Y1669D01*
X1734Y1704D02*
X2194D01*
Y2284D01*
X1734D02*
X2194D01*
X1734Y1704D02*
Y2284D01*
X971Y1459D02*
Y1669D01*
X981Y1704D02*
X1441D01*
Y2284D01*
X981D02*
X1441D01*
X981Y1704D02*
Y2284D01*
X227Y1704D02*
Y2284D01*
X687D01*
Y1704D02*
Y2284D01*
X227Y1704D02*
X687D01*
X218Y1459D02*
Y1669D01*
X4508Y5558D02*
Y5888D01*
X3228Y5558D02*
Y5888D01*
X4508Y6508D02*
Y6838D01*
X3228Y6508D02*
Y6838D01*
Y5558D02*
X4508D01*
X3228Y6838D02*
X4508D01*
X2236Y5598D02*
Y5928D01*
X956Y5598D02*
Y5928D01*
X2236Y6548D02*
Y6878D01*
X956Y6548D02*
Y6878D01*
Y5598D02*
X2236D01*
X956Y6878D02*
X2236D01*
X12392Y7217D02*
X12759D01*
Y6961D02*
Y7217D01*
X12279Y6961D02*
X12759D01*
X12279D02*
Y7089D01*
X3995Y1704D02*
Y2284D01*
X4455D01*
Y1704D02*
Y2284D01*
X3995Y1704D02*
X4455D01*
X3985Y1459D02*
Y1669D01*
X10804Y1247D02*
Y1587D01*
X9844Y1247D02*
X10804D01*
X9844D02*
Y1577D01*
Y1877D02*
Y2007D01*
X10044Y2207D01*
X10804D01*
Y1867D02*
Y2207D01*
X10674Y1927D02*
X10774D01*
X10724Y1877D02*
Y1977D01*
D11*
X11213Y6251D02*
G03*
X11213Y6251I-8J0D01*
G01*
X12234Y9219D02*
G03*
X12295Y9219I30J0D01*
G01*
X10117Y9238D02*
G03*
X10178Y9238I30J0D01*
G01*
X681Y9116D02*
G03*
X681Y9116I-262J0D01*
G01*
X2916D02*
G03*
X2916Y9116I-262J0D01*
G01*
X2903Y8115D02*
G03*
X2903Y8115I-262J0D01*
G01*
X681D02*
G03*
X681Y8115I-262J0D01*
G01*
X14321Y9181D02*
G03*
X14381Y9181I30J0D01*
G01*
X2790Y6181D02*
X2821D01*
X2954D02*
X2985D01*
Y5871D02*
Y6181D01*
X2790Y5871D02*
X2821D01*
X2790D02*
Y6181D01*
X2954Y5871D02*
X2985D01*
X11368Y4929D02*
X11442D01*
X12813D02*
Y5003D01*
X12739Y6374D02*
X12813D01*
X11368Y6300D02*
Y6374D01*
Y4929D02*
Y5003D01*
X12739Y4929D02*
X12813D01*
Y6300D02*
Y6374D01*
X11368D02*
X11442D01*
X12110Y9219D02*
X12419D01*
X12110Y8909D02*
X12419D01*
X9992Y9238D02*
X10302D01*
X9992Y8928D02*
X10302D01*
X512Y5953D02*
X544D01*
X348D02*
Y6263D01*
Y5953D02*
X380D01*
X544D02*
Y6263D01*
X512D02*
X544D01*
X348D02*
X380D01*
X12633Y8428D02*
X13057D01*
X12633Y7902D02*
X13057D01*
X14107Y8428D02*
X14531D01*
X14107Y7902D02*
X14531D01*
X7488Y8768D02*
X7904D01*
X7488Y9284D02*
X7904D01*
X419Y9390D02*
Y9517D01*
X356Y9454D02*
X483D01*
X3302Y8125D02*
Y9235D01*
X4212D02*
X4394D01*
Y8125D02*
Y9235D01*
X3880Y8125D02*
X4394D01*
X3880Y8087D02*
Y8125D01*
X3816Y8087D02*
X3880D01*
X3816D02*
Y8125D01*
X3302D02*
X3816D01*
X3302Y9235D02*
X3485D01*
X4234Y7996D02*
Y8077D01*
X4064Y7996D02*
Y8077D01*
X3894Y7996D02*
Y8077D01*
X3724Y7996D02*
Y8077D01*
X3553Y7996D02*
Y8077D01*
X4143Y7996D02*
Y8077D01*
X3973Y7996D02*
Y8077D01*
X3802Y7996D02*
Y8077D01*
X3632Y7996D02*
Y8077D01*
X3462Y7996D02*
Y8077D01*
X2591Y9454D02*
X2718D01*
X2654Y9390D02*
Y9517D01*
X2578Y8453D02*
X2705D01*
X2642Y8390D02*
Y8517D01*
X1077Y8123D02*
Y9233D01*
X1984D02*
X2169D01*
Y8123D02*
Y9233D01*
X1655Y8123D02*
X2169D01*
X1655Y8085D02*
Y8123D01*
X1591Y8085D02*
X1655D01*
X1591D02*
Y8123D01*
X1077D02*
X1591D01*
X1077Y9233D02*
X1262D01*
X2009Y7983D02*
Y8075D01*
X1839Y7983D02*
Y8075D01*
X1669Y7983D02*
Y8075D01*
X1499Y7983D02*
Y8075D01*
X1328Y7983D02*
Y8075D01*
X1918Y7983D02*
Y8075D01*
X1748Y7983D02*
Y8075D01*
X1577Y7983D02*
Y8075D01*
X1407Y7983D02*
Y8075D01*
X1237Y7983D02*
Y8075D01*
X356Y8453D02*
X483D01*
X419Y8390D02*
Y8517D01*
X14196Y9181D02*
X14506D01*
X14196Y8871D02*
X14506D01*
D12*
X12237Y3995D02*
Y4175D01*
X12067Y4155D02*
Y4175D01*
X12407D01*
Y4155D02*
Y4175D01*
X12067Y3995D02*
Y4015D01*
Y3995D02*
X12407D01*
Y4015D01*
X14952Y4604D02*
Y4617D01*
Y4604D02*
X15037D01*
Y4617D01*
X14902Y4604D02*
Y4617D01*
X14817Y4604D02*
X14902D01*
X14817D02*
Y4617D01*
X14889Y4947D02*
X14965D01*
X14927D02*
Y4972D01*
Y4871D02*
Y4896D01*
X14889Y4947D02*
X14927Y4896D01*
X14965Y4947D01*
X14817Y4896D02*
X15037D01*
X14817Y5188D02*
X14847D01*
X14817Y4617D02*
Y5188D01*
Y4617D02*
X14902D01*
X14952D02*
X15037D01*
Y5188D01*
X15007D02*
X15037D01*
X14246Y4596D02*
Y4616D01*
X13907Y4596D02*
X14246D01*
X13907D02*
Y4616D01*
X14246Y4756D02*
Y4776D01*
X13907D02*
X14246D01*
X13907Y4756D02*
Y4776D01*
X14076Y4596D02*
Y4776D01*
X14084Y5549D02*
Y5729D01*
X13914Y5709D02*
Y5729D01*
X14254D01*
Y5709D02*
Y5729D01*
X13914Y5549D02*
Y5569D01*
Y5549D02*
X14254D01*
Y5569D01*
X14072Y5193D02*
Y5373D01*
X13902Y5353D02*
Y5373D01*
X14242D01*
Y5353D02*
Y5373D01*
X13902Y5193D02*
Y5213D01*
Y5193D02*
X14242D01*
Y5213D01*
X14072Y4850D02*
Y5030D01*
X13902Y5010D02*
Y5030D01*
X14242D01*
Y5010D02*
Y5030D01*
X13902Y4850D02*
Y4870D01*
Y4850D02*
X14242D01*
Y4870D01*
X4381Y4548D02*
Y4728D01*
X4211Y4708D02*
Y4728D01*
X4551D01*
Y4708D02*
Y4728D01*
X4211Y4548D02*
Y4568D01*
Y4548D02*
X4551D01*
Y4568D01*
X4381Y4154D02*
Y4335D01*
X4211Y4315D02*
Y4335D01*
X4551D01*
Y4315D02*
Y4335D01*
X4211Y4154D02*
Y4174D01*
Y4154D02*
X4551D01*
Y4174D01*
X4381Y3766D02*
Y3946D01*
X4211Y3926D02*
Y3946D01*
X4551D01*
Y3926D02*
Y3946D01*
X4211Y3766D02*
Y3786D01*
Y3766D02*
X4551D01*
Y3786D01*
X4857Y3418D02*
Y3598D01*
X4687Y3578D02*
Y3598D01*
X5027D01*
Y3578D02*
Y3598D01*
X4687Y3418D02*
Y3438D01*
Y3418D02*
X5027D01*
Y3438D01*
X4381Y3418D02*
Y3598D01*
X4211Y3578D02*
Y3598D01*
X4551D01*
Y3578D02*
Y3598D01*
X4211Y3418D02*
Y3438D01*
Y3418D02*
X4551D01*
Y3438D01*
X4875Y2903D02*
X5055D01*
X4875Y2733D02*
X4895D01*
X4875D02*
Y3073D01*
X4895D01*
X5035Y2733D02*
X5055D01*
Y3073D01*
X5035D02*
X5055D01*
X4426Y3080D02*
X4446D01*
Y2740D02*
Y3080D01*
X4426Y2740D02*
X4446D01*
X4266Y3080D02*
X4286D01*
X4266Y2740D02*
Y3080D01*
Y2740D02*
X4286D01*
X4266Y2910D02*
X4446D01*
X3905Y3080D02*
X3925D01*
Y2740D02*
Y3080D01*
X3905Y2740D02*
X3925D01*
X3745Y3080D02*
X3765D01*
X3745Y2740D02*
Y3080D01*
Y2740D02*
X3765D01*
X3745Y2910D02*
X3925D01*
X3397Y3080D02*
X3417D01*
Y2740D02*
Y3080D01*
X3397Y2740D02*
X3417D01*
X3237Y3080D02*
X3257D01*
X3237Y2740D02*
Y3080D01*
Y2740D02*
X3257D01*
X3237Y2910D02*
X3417D01*
X2894Y2910D02*
X3075D01*
X3055Y3080D02*
X3075D01*
Y2740D02*
Y3080D01*
X3055Y2740D02*
X3075D01*
X2894Y3080D02*
X2915D01*
X2894Y2740D02*
Y3080D01*
Y2740D02*
X2915D01*
X2729Y3080D02*
X2749D01*
Y2740D02*
Y3080D01*
X2729Y2740D02*
X2749D01*
X2569Y3080D02*
X2589D01*
X2569Y2740D02*
Y3080D01*
Y2740D02*
X2589D01*
X2569Y2910D02*
X2749D01*
X1797Y3080D02*
X1817D01*
Y2740D02*
Y3080D01*
X1797Y2740D02*
X1817D01*
X1637Y3080D02*
X1657D01*
X1637Y2740D02*
Y3080D01*
Y2740D02*
X1657D01*
X1637Y2910D02*
X1817D01*
X1345Y2910D02*
X1525D01*
X1505Y3080D02*
X1525D01*
Y2740D02*
Y3080D01*
X1505Y2740D02*
X1525D01*
X1345Y3080D02*
X1365D01*
X1345Y2740D02*
Y3080D01*
Y2740D02*
X1365D01*
X883Y3080D02*
X903D01*
Y2740D02*
Y3080D01*
X883Y2740D02*
X903D01*
X723Y3080D02*
X743D01*
X723Y2740D02*
Y3080D01*
Y2740D02*
X743D01*
X723Y2910D02*
X903D01*
X2738Y7243D02*
X2758D01*
X2738D02*
Y7583D01*
X2758D01*
X2898Y7243D02*
X2918D01*
Y7583D01*
X2898D02*
X2918D01*
X2738Y7414D02*
X2918D01*
X2875Y6482D02*
Y6495D01*
Y6482D02*
X2960D01*
Y6495D01*
X2825Y6482D02*
Y6495D01*
X2740Y6482D02*
X2825D01*
X2740D02*
Y6495D01*
X2812Y6825D02*
X2888D01*
X2850D02*
Y6850D01*
Y6749D02*
Y6774D01*
X2812Y6825D02*
X2850Y6774D01*
X2888Y6825D01*
X2740Y6774D02*
X2960D01*
X2740Y7066D02*
X2770D01*
X2740Y6495D02*
Y7066D01*
Y6495D02*
X2825D01*
X2875D02*
X2960D01*
Y7066D01*
X2930D02*
X2960D01*
X377Y7258D02*
X397D01*
X377D02*
Y7599D01*
X397D01*
X537Y7258D02*
X557D01*
Y7599D01*
X537D02*
X557D01*
X377Y7429D02*
X557D01*
X563Y7088D02*
X593D01*
Y6517D02*
Y7088D01*
X508Y6517D02*
X593D01*
X373D02*
X458D01*
X373D02*
Y7088D01*
X403D01*
X373Y6796D02*
X593D01*
X483D02*
X521Y6847D01*
X445D02*
X483Y6796D01*
Y6771D02*
Y6796D01*
Y6847D02*
Y6872D01*
X445Y6847D02*
X521D01*
X373Y6504D02*
Y6517D01*
Y6504D02*
X458D01*
Y6517D01*
X593Y6504D02*
Y6517D01*
X508Y6504D02*
X593D01*
X508D02*
Y6517D01*
X12981Y9064D02*
X13161D01*
X13141Y9234D02*
X13161D01*
Y8894D02*
Y9234D01*
X13141Y8894D02*
X13161D01*
X12981Y9234D02*
X13001D01*
X12981Y8894D02*
Y9234D01*
Y8894D02*
X13001D01*
X12802Y9052D02*
X12827Y9026D01*
X12776D02*
X12802Y9052D01*
X12776Y9026D02*
X12827D01*
X12802Y9052D02*
Y9077D01*
X12776Y9242D02*
Y9255D01*
X12712D02*
X12776D01*
X12712Y9242D02*
Y9255D01*
X12892Y9242D02*
Y9255D01*
X12827D02*
X12892D01*
X12827Y9242D02*
Y9255D01*
X12712Y8848D02*
X12732D01*
X12712D02*
Y9242D01*
X12776D01*
X12872Y8848D02*
X12892D01*
Y9242D01*
X12827D02*
X12892D01*
X12712Y9052D02*
X12892D01*
X10680D02*
X10860D01*
X10795Y9242D02*
X10860D01*
Y8848D02*
Y9242D01*
X10840Y8848D02*
X10860D01*
X10680Y9242D02*
X10744D01*
X10680Y8848D02*
Y9242D01*
Y8848D02*
X10700D01*
X10795Y9242D02*
Y9255D01*
X10860D01*
Y9242D02*
Y9255D01*
X10680Y9242D02*
Y9255D01*
X10744D01*
Y9242D02*
Y9255D01*
X10770Y9052D02*
Y9077D01*
X10744Y9026D02*
X10795D01*
X10744D02*
X10770Y9052D01*
X10795Y9026D01*
X9007Y8894D02*
X9027D01*
X9007D02*
Y9234D01*
X9027D01*
X9167Y8894D02*
X9187D01*
Y9234D01*
X9167D02*
X9187D01*
X9007Y9064D02*
X9187D01*
X8724Y9052D02*
X8904D01*
X8839Y9242D02*
X8904D01*
Y8848D02*
Y9242D01*
X8884Y8848D02*
X8904D01*
X8724Y9242D02*
X8788D01*
X8724Y8848D02*
Y9242D01*
Y8848D02*
X8744D01*
X8839Y9242D02*
Y9255D01*
X8904D01*
Y9242D02*
Y9255D01*
X8724Y9242D02*
Y9255D01*
X8788D01*
Y9242D02*
Y9255D01*
X8814Y9052D02*
Y9077D01*
X8788Y9026D02*
X8839D01*
X8788D02*
X8814Y9052D01*
X8839Y9026D01*
X8369Y9043D02*
X8549D01*
X8529Y9214D02*
X8549D01*
Y8874D02*
Y9214D01*
X8529Y8874D02*
X8549D01*
X8369Y9214D02*
X8389D01*
X8369Y8874D02*
Y9214D01*
Y8874D02*
X8389D01*
X10977Y8178D02*
X11157D01*
X10977Y8008D02*
X10997D01*
X10977D02*
Y8348D01*
X10997D01*
X11137Y8008D02*
X11157D01*
Y8348D01*
X11137D02*
X11157D01*
X11257Y8178D02*
X11437D01*
X11417Y8348D02*
X11437D01*
Y8008D02*
Y8348D01*
X11417Y8008D02*
X11437D01*
X11257Y8348D02*
X11277D01*
X11257Y8008D02*
Y8348D01*
Y8008D02*
X11277D01*
X11562Y8179D02*
X11742D01*
X11562Y8009D02*
X11582D01*
X11562D02*
Y8349D01*
X11582D01*
X11722Y8009D02*
X11742D01*
Y8349D01*
X11722D02*
X11742D01*
X10568Y6123D02*
Y6323D01*
X10848D01*
Y6123D02*
Y6323D01*
X10568Y6123D02*
X10848D01*
X4053Y837D02*
X4073D01*
X4053D02*
Y1177D01*
X4073D01*
X4213Y837D02*
X4233D01*
Y1177D01*
X4213D02*
X4233D01*
X4053Y1007D02*
X4233D01*
X3879Y1177D02*
X3899D01*
Y837D02*
Y1177D01*
X3879Y837D02*
X3899D01*
X3719Y1177D02*
X3739D01*
X3719Y837D02*
Y1177D01*
Y837D02*
X3739D01*
X3719Y1007D02*
X3899D01*
X3212Y1177D02*
X3232D01*
Y837D02*
Y1177D01*
X3212Y837D02*
X3232D01*
X3052Y1177D02*
X3072D01*
X3052Y837D02*
Y1177D01*
Y837D02*
X3072D01*
X3052Y1007D02*
X3232D01*
X2385Y837D02*
X2405D01*
X2385D02*
Y1177D01*
X2405D01*
X2545Y837D02*
X2565D01*
Y1177D01*
X2545D02*
X2565D01*
X2385Y1007D02*
X2565D01*
X1718Y837D02*
X1738D01*
X1718D02*
Y1177D01*
X1738D01*
X1878Y837D02*
X1898D01*
Y1177D01*
X1878D02*
X1898D01*
X1718Y1007D02*
X1898D01*
X10926Y8896D02*
X10946D01*
X10926D02*
Y9236D01*
X10946D01*
X11086Y8896D02*
X11106D01*
Y9236D01*
X11086D02*
X11106D01*
X10926Y9066D02*
X11106D01*
X13790Y9058D02*
X13970D01*
X13950Y9228D02*
X13970D01*
Y8888D02*
Y9228D01*
X13950Y8888D02*
X13970D01*
X13790Y9228D02*
X13810D01*
X13790Y8888D02*
Y9228D01*
Y8888D02*
X13810D01*
X13715Y7393D02*
X13895D01*
X13715Y7223D02*
X13735D01*
X13715D02*
Y7563D01*
X13735D01*
X13875Y7223D02*
X13895D01*
Y7563D01*
X13875D02*
X13895D01*
X11683Y8894D02*
X11703D01*
X11683D02*
Y9234D01*
X11703D01*
X11843Y8894D02*
X11863D01*
Y9234D01*
X11843D02*
X11863D01*
X11683Y9064D02*
X11863D01*
X2221Y2908D02*
X2401D01*
X2221Y2739D02*
X2241D01*
X2221D02*
Y3078D01*
X2241D01*
X2381Y2739D02*
X2401D01*
Y3078D01*
X2381D02*
X2401D01*
X535Y3079D02*
X555D01*
Y2739D02*
Y3079D01*
X535Y2739D02*
X555D01*
X375Y3079D02*
X395D01*
X375Y2739D02*
Y3079D01*
Y2739D02*
X395D01*
X375Y2909D02*
X555D01*
X12139Y1703D02*
X12319D01*
X12299Y1874D02*
X12319D01*
Y1534D02*
Y1874D01*
X12299Y1534D02*
X12319D01*
X12139Y1874D02*
X12159D01*
X12139Y1534D02*
Y1874D01*
Y1534D02*
X12159D01*
X1210Y1177D02*
X1230D01*
Y837D02*
Y1177D01*
X1210Y837D02*
X1230D01*
X1050Y1177D02*
X1070D01*
X1050Y837D02*
Y1177D01*
Y837D02*
X1070D01*
X1050Y1007D02*
X1230D01*
X409Y837D02*
X429D01*
X409D02*
Y1177D01*
X429D01*
X569Y837D02*
X589D01*
Y1177D01*
X569D02*
X589D01*
X409Y1007D02*
X589D01*
X4909Y1187D02*
X4929D01*
Y847D02*
Y1187D01*
X4909Y847D02*
X4929D01*
X4749Y1187D02*
X4769D01*
X4749Y847D02*
Y1187D01*
Y847D02*
X4769D01*
X4749Y1017D02*
X4929D01*
X12506Y1703D02*
X12686D01*
X12666Y1874D02*
X12686D01*
Y1534D02*
Y1874D01*
X12666Y1534D02*
X12686D01*
X12506Y1874D02*
X12526D01*
X12506Y1534D02*
Y1874D01*
Y1534D02*
X12526D01*
X13305Y3999D02*
Y4019D01*
X12965Y3999D02*
X13305D01*
X12965D02*
Y4019D01*
X13305Y4159D02*
Y4179D01*
X12965D02*
X13305D01*
X12965Y4159D02*
Y4179D01*
X13135Y3999D02*
Y4179D01*
X12867Y3995D02*
Y4015D01*
X12527Y3995D02*
X12867D01*
X12527D02*
Y4015D01*
X12867Y4155D02*
Y4175D01*
X12527D02*
X12867D01*
X12527Y4155D02*
Y4175D01*
X12697Y3995D02*
Y4175D01*
X2718Y1007D02*
X2898D01*
X2878Y1177D02*
X2898D01*
Y837D02*
Y1177D01*
X2878Y837D02*
X2898D01*
X2718Y1177D02*
X2738D01*
X2718Y837D02*
Y1177D01*
Y837D02*
X2738D01*
X2966Y5047D02*
X2986D01*
Y4707D02*
Y5047D01*
X2966Y4707D02*
X2986D01*
X2806Y5047D02*
X2826D01*
X2806Y4707D02*
Y5047D01*
Y4707D02*
X2826D01*
X2806Y4877D02*
X2986D01*
X2187Y5047D02*
X2207D01*
Y4707D02*
Y5047D01*
X2187Y4707D02*
X2207D01*
X2027Y5047D02*
X2047D01*
X2027Y4707D02*
Y5047D01*
Y4707D02*
X2047D01*
X2027Y4877D02*
X2207D01*
X1408Y5047D02*
X1428D01*
Y4707D02*
Y5047D01*
X1408Y4707D02*
X1428D01*
X1248Y5047D02*
X1268D01*
X1248Y4707D02*
Y5047D01*
Y4707D02*
X1268D01*
X1248Y4877D02*
X1428D01*
X629Y5047D02*
X649D01*
Y4707D02*
Y5047D01*
X629Y4707D02*
X649D01*
X469Y5047D02*
X489D01*
X469Y4707D02*
Y5047D01*
Y4707D02*
X489D01*
X469Y4877D02*
X649D01*
X7891Y8291D02*
Y8311D01*
X7551Y8291D02*
X7891D01*
X7551D02*
Y8311D01*
X7891Y8451D02*
Y8471D01*
X7551D02*
X7891D01*
X7551Y8451D02*
Y8471D01*
X7721Y8291D02*
Y8471D01*
D13*
X14707Y3905D02*
Y4248D01*
X14072Y3905D02*
Y4248D01*
X8570Y1086D02*
X9370D01*
Y286D02*
Y1086D01*
X8570Y286D02*
X9370D01*
X8570D02*
Y1086D01*
X7364D02*
X8164D01*
Y286D02*
Y1086D01*
X7364Y286D02*
X8164D01*
X7364D02*
Y1086D01*
X6157D02*
X6957D01*
Y286D02*
Y1086D01*
X6157Y286D02*
X6957D01*
X6157D02*
Y1086D01*
D14*
X14723Y2898D02*
Y9898D01*
X5423D02*
X14723D01*
X5423Y2898D02*
Y9898D01*
Y2898D02*
X14723D01*
D15*
X12048Y4208D02*
Y4308D01*
X12098D01*
X12114Y4291D01*
Y4258D01*
X12098Y4241D01*
X12048D01*
X12081D02*
X12114Y4208D01*
X12148Y4291D02*
X12164Y4308D01*
X12198D01*
X12214Y4291D01*
Y4275D01*
X12198Y4258D01*
X12214Y4241D01*
Y4225D01*
X12198Y4208D01*
X12164D01*
X12148Y4225D01*
Y4241D01*
X12164Y4258D01*
X12148Y4275D01*
Y4291D01*
X12164Y4258D02*
X12198D01*
X12314Y4308D02*
X12248D01*
Y4258D01*
X12281Y4275D01*
X12298D01*
X12314Y4258D01*
Y4225D01*
X12298Y4208D01*
X12264D01*
X12248Y4225D01*
X13502Y4641D02*
Y4741D01*
X13552D01*
X13569Y4724D01*
Y4691D01*
X13552Y4674D01*
X13502D01*
X13535D02*
X13569Y4641D01*
X13602D02*
X13635D01*
X13619D01*
Y4741D01*
X13602Y4724D01*
X13685D02*
X13702Y4741D01*
X13735D01*
X13752Y4724D01*
Y4708D01*
X13735Y4691D01*
X13719D01*
X13735D01*
X13752Y4674D01*
Y4658D01*
X13735Y4641D01*
X13702D01*
X13685Y4658D01*
X13852Y4741D02*
X13785D01*
Y4691D01*
X13819Y4708D01*
X13835D01*
X13852Y4691D01*
Y4658D01*
X13835Y4641D01*
X13802D01*
X13785Y4658D01*
X13918Y3982D02*
Y3949D01*
Y3966D01*
X14001D01*
X14018Y3949D01*
Y3932D01*
X14001Y3916D01*
X14018Y4082D02*
Y4016D01*
X13951Y4082D01*
X13935D01*
X13918Y4066D01*
Y4032D01*
X13935Y4016D01*
Y4116D02*
X13918Y4132D01*
Y4166D01*
X13935Y4182D01*
X13951D01*
X13968Y4166D01*
X13985Y4182D01*
X14001D01*
X14018Y4166D01*
Y4132D01*
X14001Y4116D01*
X13985D01*
X13968Y4132D01*
X13951Y4116D01*
X13935D01*
X13968Y4132D02*
Y4166D01*
X2494Y6632D02*
X2594D01*
Y6682D01*
X2577Y6699D01*
X2511D01*
X2494Y6682D01*
Y6632D01*
X2594Y6799D02*
Y6732D01*
X2527Y6799D01*
X2511D01*
X2494Y6782D01*
Y6749D01*
X2511Y6732D01*
X2594Y6832D02*
Y6866D01*
Y6849D01*
X2494D01*
X2511Y6832D01*
X651Y6647D02*
X751D01*
Y6697D01*
X734Y6713D01*
X668D01*
X651Y6697D01*
Y6647D01*
X751Y6747D02*
Y6780D01*
Y6763D01*
X651D01*
X668Y6747D01*
X751Y6830D02*
Y6863D01*
Y6847D01*
X651D01*
X668Y6830D01*
X2598Y7276D02*
X2498D01*
Y7326D01*
X2515Y7343D01*
X2548D01*
X2565Y7326D01*
Y7276D01*
Y7310D02*
X2598Y7343D01*
Y7443D02*
Y7376D01*
X2531Y7443D01*
X2515D01*
X2498Y7426D01*
Y7393D01*
X2515Y7376D01*
X2598Y7476D02*
Y7510D01*
Y7493D01*
X2498D01*
X2515Y7476D01*
X712Y7347D02*
X612D01*
Y7397D01*
X629Y7413D01*
X662D01*
X679Y7397D01*
Y7347D01*
Y7380D02*
X712Y7413D01*
Y7447D02*
Y7480D01*
Y7463D01*
X612D01*
X629Y7447D01*
X712Y7530D02*
Y7563D01*
Y7547D01*
X612D01*
X629Y7530D01*
X5418Y10077D02*
Y9977D01*
X5484D01*
X5584Y10060D02*
X5568Y10077D01*
X5534D01*
X5518Y10060D01*
Y9994D01*
X5534Y9977D01*
X5568D01*
X5584Y9994D01*
X5618Y10077D02*
Y9977D01*
X5668D01*
X5684Y9994D01*
Y10060D01*
X5668Y10077D01*
X5618D01*
X5718Y9977D02*
X5751D01*
X5734D01*
Y10077D01*
X5718Y10060D01*
X5851Y9977D02*
Y10077D01*
X5801Y10027D01*
X5868D01*
X2595Y5902D02*
X2678D01*
X2695Y5919D01*
Y5952D01*
X2678Y5969D01*
X2595D01*
X2695Y6052D02*
X2595D01*
X2645Y6002D01*
Y6069D01*
X2695Y6102D02*
Y6136D01*
Y6119D01*
X2595D01*
X2612Y6102D01*
X627Y5982D02*
X710D01*
X727Y5999D01*
Y6032D01*
X710Y6049D01*
X627D01*
X644Y6082D02*
X627Y6099D01*
Y6132D01*
X644Y6149D01*
X660D01*
X677Y6132D01*
Y6116D01*
Y6132D01*
X694Y6149D01*
X710D01*
X727Y6132D01*
Y6099D01*
X710Y6082D01*
X727Y6182D02*
Y6216D01*
Y6199D01*
X627D01*
X644Y6182D01*
X13906Y5414D02*
Y5514D01*
X13956D01*
X13973Y5497D01*
Y5464D01*
X13956Y5447D01*
X13906D01*
X13939D02*
X13973Y5414D01*
X14006D02*
X14039D01*
X14023D01*
Y5514D01*
X14006Y5497D01*
X14156Y5414D02*
X14089D01*
X14156Y5481D01*
Y5497D01*
X14139Y5514D01*
X14106D01*
X14089Y5497D01*
X14256Y5514D02*
X14189D01*
Y5464D01*
X14223Y5481D01*
X14239D01*
X14256Y5464D01*
Y5431D01*
X14239Y5414D01*
X14206D01*
X14189Y5431D01*
X13904Y5063D02*
Y5163D01*
X13954D01*
X13971Y5146D01*
Y5113D01*
X13954Y5096D01*
X13904D01*
X13938D02*
X13971Y5063D01*
X14004D02*
X14038D01*
X14021D01*
Y5163D01*
X14004Y5146D01*
X14088Y5063D02*
X14121D01*
X14104D01*
Y5163D01*
X14088Y5146D01*
X14238Y5163D02*
X14171D01*
Y5113D01*
X14204Y5130D01*
X14221D01*
X14238Y5113D01*
Y5080D01*
X14221Y5063D01*
X14188D01*
X14171Y5080D01*
X13919Y5775D02*
Y5875D01*
X13969D01*
X13986Y5858D01*
Y5825D01*
X13969Y5808D01*
X13919D01*
X13952D02*
X13986Y5775D01*
X14019D02*
X14052D01*
X14036D01*
Y5875D01*
X14019Y5858D01*
X14102D02*
X14119Y5875D01*
X14152D01*
X14169Y5858D01*
Y5792D01*
X14152Y5775D01*
X14119D01*
X14102Y5792D01*
Y5858D01*
X14269Y5875D02*
X14202D01*
Y5825D01*
X14236Y5842D01*
X14252D01*
X14269Y5825D01*
Y5792D01*
X14252Y5775D01*
X14219D01*
X14202Y5792D01*
X12535Y4249D02*
Y4349D01*
X12585D01*
X12602Y4333D01*
Y4299D01*
X12585Y4283D01*
X12535D01*
X12568D02*
X12602Y4249D01*
X12635Y4266D02*
X12652Y4249D01*
X12685D01*
X12702Y4266D01*
Y4333D01*
X12685Y4349D01*
X12652D01*
X12635Y4333D01*
Y4316D01*
X12652Y4299D01*
X12702D01*
X12801Y4349D02*
X12735D01*
Y4299D01*
X12768Y4316D01*
X12785D01*
X12801Y4299D01*
Y4266D01*
X12785Y4249D01*
X12751D01*
X12735Y4266D01*
X12974Y4252D02*
Y4352D01*
X13024D01*
X13041Y4335D01*
Y4302D01*
X13024Y4285D01*
X12974D01*
X13008D02*
X13041Y4252D01*
X13074Y4352D02*
X13141D01*
Y4335D01*
X13074Y4269D01*
Y4252D01*
X13241Y4352D02*
X13174D01*
Y4302D01*
X13208Y4319D01*
X13224D01*
X13241Y4302D01*
Y4269D01*
X13224Y4252D01*
X13191D01*
X13174Y4269D01*
X11261Y7406D02*
X11278Y7422D01*
Y7456D01*
X11261Y7472D01*
X11195D01*
X11178Y7456D01*
Y7422D01*
X11195Y7406D01*
X11178Y7322D02*
X11278D01*
X11228Y7372D01*
Y7306D01*
X11278Y7272D02*
Y7206D01*
X11261D01*
X11195Y7272D01*
X11178D01*
X10391Y7181D02*
X10374Y7165D01*
Y7131D01*
X10391Y7115D01*
X10457D01*
X10474Y7131D01*
Y7165D01*
X10457Y7181D01*
X10391Y7215D02*
X10374Y7231D01*
Y7265D01*
X10391Y7281D01*
X10407D01*
X10424Y7265D01*
Y7248D01*
Y7265D01*
X10441Y7281D01*
X10457D01*
X10474Y7265D01*
Y7231D01*
X10457Y7215D01*
X10374Y7315D02*
Y7381D01*
X10391D01*
X10457Y7315D01*
X10474D01*
X10140Y5135D02*
X10157D01*
X10190Y5168D01*
X10157Y5201D01*
X10140D01*
X10190Y5168D02*
X10240D01*
Y5301D02*
Y5235D01*
X10173Y5301D01*
X10157D01*
X10140Y5285D01*
Y5251D01*
X10157Y5235D01*
X10140Y5401D02*
Y5335D01*
X10190D01*
X10173Y5368D01*
Y5385D01*
X10190Y5401D01*
X10223D01*
X10240Y5385D01*
Y5351D01*
X10223Y5335D01*
X10543Y6454D02*
Y6437D01*
X10576Y6404D01*
X10610Y6437D01*
Y6454D01*
X10576Y6404D02*
Y6354D01*
X10643D02*
X10676D01*
X10660D01*
Y6454D01*
X10643Y6437D01*
X10793Y6454D02*
X10726D01*
Y6404D01*
X10760Y6421D01*
X10776D01*
X10793Y6404D01*
Y6371D01*
X10776Y6354D01*
X10743D01*
X10726Y6371D01*
X14046Y9389D02*
Y9305D01*
X14063Y9289D01*
X14096D01*
X14113Y9305D01*
Y9389D01*
X14146Y9372D02*
X14163Y9389D01*
X14196D01*
X14213Y9372D01*
Y9355D01*
X14196Y9339D01*
X14179D01*
X14196D01*
X14213Y9322D01*
Y9305D01*
X14196Y9289D01*
X14163D01*
X14146Y9305D01*
X14313Y9389D02*
X14279Y9372D01*
X14246Y9339D01*
Y9305D01*
X14263Y9289D01*
X14296D01*
X14313Y9305D01*
Y9322D01*
X14296Y9339D01*
X14246D01*
X14120Y8561D02*
Y8478D01*
X14136Y8461D01*
X14170D01*
X14186Y8478D01*
Y8561D01*
X14286Y8461D02*
X14220D01*
X14286Y8528D01*
Y8544D01*
X14270Y8561D01*
X14236D01*
X14220Y8544D01*
X14320Y8561D02*
X14386D01*
Y8544D01*
X14320Y8478D01*
Y8461D01*
X11857Y9511D02*
Y9428D01*
X11873Y9411D01*
X11907D01*
X11923Y9428D01*
Y9511D01*
X12023Y9411D02*
X11957D01*
X12023Y9478D01*
Y9494D01*
X12007Y9511D01*
X11973D01*
X11957Y9494D01*
X12123Y9511D02*
X12090Y9494D01*
X12057Y9461D01*
Y9428D01*
X12073Y9411D01*
X12107D01*
X12123Y9428D01*
Y9444D01*
X12107Y9461D01*
X12057D01*
X3272Y9628D02*
Y9544D01*
X3288Y9528D01*
X3322D01*
X3338Y9544D01*
Y9628D01*
X3438Y9528D02*
X3371D01*
X3438Y9594D01*
Y9611D01*
X3421Y9628D01*
X3388D01*
X3371Y9611D01*
X3471Y9528D02*
X3505D01*
X3488D01*
Y9628D01*
X3471Y9611D01*
X12547Y8563D02*
Y8480D01*
X12564Y8463D01*
X12597D01*
X12614Y8480D01*
Y8563D01*
X12647Y8463D02*
X12680D01*
X12664D01*
Y8563D01*
X12647Y8546D01*
X12730Y8563D02*
X12797D01*
Y8546D01*
X12730Y8480D01*
Y8463D01*
X9843Y9511D02*
Y9427D01*
X9859Y9411D01*
X9892D01*
X9909Y9427D01*
Y9511D01*
X9942Y9411D02*
X9976D01*
X9959D01*
Y9511D01*
X9942Y9494D01*
X10092Y9511D02*
X10059Y9494D01*
X10026Y9461D01*
Y9427D01*
X10042Y9411D01*
X10076D01*
X10092Y9427D01*
Y9444D01*
X10076Y9461D01*
X10026D01*
X11144Y6632D02*
Y6549D01*
X11161Y6532D01*
X11194D01*
X11211Y6549D01*
Y6632D01*
X11244Y6532D02*
X11277D01*
X11261D01*
Y6632D01*
X11244Y6615D01*
X11394Y6632D02*
X11327D01*
Y6582D01*
X11361Y6599D01*
X11377D01*
X11394Y6582D01*
Y6549D01*
X11377Y6532D01*
X11344D01*
X11327Y6549D01*
X7597Y9546D02*
Y9463D01*
X7614Y9446D01*
X7647D01*
X7664Y9463D01*
Y9546D01*
X7697Y9446D02*
X7730D01*
X7714D01*
Y9546D01*
X7697Y9529D01*
X7780D02*
X7797Y9546D01*
X7830D01*
X7847Y9529D01*
Y9513D01*
X7830Y9496D01*
X7814D01*
X7830D01*
X7847Y9479D01*
Y9463D01*
X7830Y9446D01*
X7797D01*
X7780Y9463D01*
X1072Y9574D02*
Y9491D01*
X1089Y9474D01*
X1122D01*
X1139Y9491D01*
Y9574D01*
X1172Y9474D02*
X1205D01*
X1189D01*
Y9574D01*
X1172Y9558D01*
X1255Y9474D02*
X1288D01*
X1272D01*
Y9574D01*
X1255Y9558D01*
X8863Y1236D02*
X8847Y1253D01*
X8813D01*
X8797Y1236D01*
Y1220D01*
X8813Y1203D01*
X8847D01*
X8863Y1186D01*
Y1170D01*
X8847Y1153D01*
X8813D01*
X8797Y1170D01*
X8897Y1236D02*
X8913Y1253D01*
X8947D01*
X8963Y1236D01*
Y1220D01*
X8947Y1203D01*
X8930D01*
X8947D01*
X8963Y1186D01*
Y1170D01*
X8947Y1153D01*
X8913D01*
X8897Y1170D01*
X8997D02*
X9013Y1153D01*
X9047D01*
X9063Y1170D01*
Y1236D01*
X9047Y1253D01*
X9013D01*
X8997Y1236D01*
Y1220D01*
X9013Y1203D01*
X9063D01*
X7692Y1247D02*
X7676Y1264D01*
X7642D01*
X7626Y1247D01*
Y1231D01*
X7642Y1214D01*
X7676D01*
X7692Y1197D01*
Y1181D01*
X7676Y1164D01*
X7642D01*
X7626Y1181D01*
X7792Y1164D02*
X7726D01*
X7792Y1231D01*
Y1247D01*
X7776Y1264D01*
X7742D01*
X7726Y1247D01*
X7826Y1181D02*
X7842Y1164D01*
X7876D01*
X7892Y1181D01*
Y1247D01*
X7876Y1264D01*
X7842D01*
X7826Y1247D01*
Y1231D01*
X7842Y1214D01*
X7892D01*
X6501Y1258D02*
X6484Y1275D01*
X6451D01*
X6434Y1258D01*
Y1242D01*
X6451Y1225D01*
X6484D01*
X6501Y1208D01*
Y1192D01*
X6484Y1175D01*
X6451D01*
X6434Y1192D01*
X6534Y1175D02*
X6567D01*
X6551D01*
Y1275D01*
X6534Y1258D01*
X6617Y1192D02*
X6634Y1175D01*
X6667D01*
X6684Y1192D01*
Y1258D01*
X6667Y1275D01*
X6634D01*
X6617Y1258D01*
Y1242D01*
X6634Y1225D01*
X6684D01*
X4178Y4007D02*
Y4107D01*
X4228D01*
X4244Y4090D01*
Y4057D01*
X4228Y4040D01*
X4178D01*
X4211D02*
X4244Y4007D01*
X4278Y4090D02*
X4294Y4107D01*
X4328D01*
X4344Y4090D01*
Y4074D01*
X4328Y4057D01*
X4311D01*
X4328D01*
X4344Y4040D01*
Y4024D01*
X4328Y4007D01*
X4294D01*
X4278Y4024D01*
X4378Y4090D02*
X4394Y4107D01*
X4428D01*
X4444Y4090D01*
Y4024D01*
X4428Y4007D01*
X4394D01*
X4378Y4024D01*
Y4090D01*
X4544Y4007D02*
X4478D01*
X4544Y4074D01*
Y4090D01*
X4528Y4107D01*
X4494D01*
X4478Y4090D01*
X2814Y5121D02*
Y5221D01*
X2864D01*
X2881Y5204D01*
Y5171D01*
X2864Y5154D01*
X2814D01*
X2848D02*
X2881Y5121D01*
X2981D02*
X2914D01*
X2981Y5187D01*
Y5204D01*
X2964Y5221D01*
X2931D01*
X2914Y5204D01*
X3014Y5137D02*
X3031Y5121D01*
X3064D01*
X3081Y5137D01*
Y5204D01*
X3064Y5221D01*
X3031D01*
X3014Y5204D01*
Y5187D01*
X3031Y5171D01*
X3081D01*
X3181Y5121D02*
X3114D01*
X3181Y5187D01*
Y5204D01*
X3164Y5221D01*
X3131D01*
X3114Y5204D01*
X2035Y5121D02*
Y5221D01*
X2085D01*
X2101Y5204D01*
Y5171D01*
X2085Y5154D01*
X2035D01*
X2068D02*
X2101Y5121D01*
X2201D02*
X2135D01*
X2201Y5187D01*
Y5204D01*
X2184Y5221D01*
X2151D01*
X2135Y5204D01*
X2234D02*
X2251Y5221D01*
X2284D01*
X2301Y5204D01*
Y5187D01*
X2284Y5171D01*
X2301Y5154D01*
Y5137D01*
X2284Y5121D01*
X2251D01*
X2234Y5137D01*
Y5154D01*
X2251Y5171D01*
X2234Y5187D01*
Y5204D01*
X2251Y5171D02*
X2284D01*
X2401Y5121D02*
X2334D01*
X2401Y5187D01*
Y5204D01*
X2384Y5221D01*
X2351D01*
X2334Y5204D01*
X478Y5121D02*
Y5221D01*
X528D01*
X544Y5204D01*
Y5171D01*
X528Y5154D01*
X478D01*
X511D02*
X544Y5121D01*
X644D02*
X577D01*
X644Y5187D01*
Y5204D01*
X627Y5221D01*
X594D01*
X577Y5204D01*
X677Y5221D02*
X744D01*
Y5204D01*
X677Y5137D01*
Y5121D01*
X844D02*
X777D01*
X844Y5187D01*
Y5204D01*
X827Y5221D01*
X794D01*
X777Y5204D01*
X855Y3150D02*
X755D01*
Y3200D01*
X772Y3216D01*
X805D01*
X822Y3200D01*
Y3150D01*
Y3183D02*
X855Y3216D01*
Y3316D02*
Y3250D01*
X788Y3316D01*
X772D01*
X755Y3300D01*
Y3266D01*
X772Y3250D01*
X755Y3416D02*
X772Y3383D01*
X805Y3350D01*
X838D01*
X855Y3366D01*
Y3400D01*
X838Y3416D01*
X822D01*
X805Y3400D01*
Y3350D01*
X855Y3516D02*
Y3450D01*
X788Y3516D01*
X772D01*
X755Y3500D01*
Y3466D01*
X772Y3450D01*
X3708Y2765D02*
X3608D01*
Y2815D01*
X3625Y2831D01*
X3658D01*
X3675Y2815D01*
Y2765D01*
Y2798D02*
X3708Y2831D01*
Y2931D02*
Y2865D01*
X3641Y2931D01*
X3625D01*
X3608Y2915D01*
Y2881D01*
X3625Y2865D01*
X3608Y3031D02*
Y2965D01*
X3658D01*
X3641Y2998D01*
Y3015D01*
X3658Y3031D01*
X3691D01*
X3708Y3015D01*
Y2981D01*
X3691Y2965D01*
X3708Y3131D02*
Y3065D01*
X3641Y3131D01*
X3625D01*
X3608Y3115D01*
Y3081D01*
X3625Y3065D01*
X4187Y3255D02*
Y3355D01*
X4237D01*
X4253Y3338D01*
Y3305D01*
X4237Y3288D01*
X4187D01*
X4220D02*
X4253Y3255D01*
X4353D02*
X4287D01*
X4353Y3322D01*
Y3338D01*
X4337Y3355D01*
X4303D01*
X4287Y3338D01*
X4387D02*
X4403Y3355D01*
X4437D01*
X4453Y3338D01*
Y3322D01*
X4437Y3305D01*
X4420D01*
X4437D01*
X4453Y3288D01*
Y3272D01*
X4437Y3255D01*
X4403D01*
X4387Y3272D01*
X4553Y3255D02*
X4487D01*
X4553Y3322D01*
Y3338D01*
X4537Y3355D01*
X4503D01*
X4487Y3338D01*
X4718Y3263D02*
Y3363D01*
X4768D01*
X4784Y3346D01*
Y3313D01*
X4768Y3296D01*
X4718D01*
X4751D02*
X4784Y3263D01*
X4884D02*
X4818D01*
X4884Y3330D01*
Y3346D01*
X4868Y3363D01*
X4834D01*
X4818Y3346D01*
X4984Y3263D02*
X4918D01*
X4984Y3330D01*
Y3346D01*
X4968Y3363D01*
X4934D01*
X4918Y3346D01*
X5084Y3263D02*
X5018D01*
X5084Y3330D01*
Y3346D01*
X5068Y3363D01*
X5034D01*
X5018Y3346D01*
X3206Y2754D02*
X3106D01*
Y2804D01*
X3123Y2821D01*
X3156D01*
X3173Y2804D01*
Y2754D01*
Y2787D02*
X3206Y2821D01*
Y2921D02*
Y2854D01*
X3139Y2921D01*
X3123D01*
X3106Y2904D01*
Y2871D01*
X3123Y2854D01*
X3206Y2954D02*
Y2987D01*
Y2971D01*
X3106D01*
X3123Y2954D01*
X3206Y3104D02*
Y3037D01*
X3139Y3104D01*
X3123D01*
X3106Y3087D01*
Y3054D01*
X3123Y3037D01*
X2395Y3122D02*
X2295D01*
Y3172D01*
X2312Y3188D01*
X2345D01*
X2362Y3172D01*
Y3122D01*
Y3155D02*
X2395Y3188D01*
Y3288D02*
Y3222D01*
X2328Y3288D01*
X2312D01*
X2295Y3272D01*
Y3238D01*
X2312Y3222D01*
Y3322D02*
X2295Y3338D01*
Y3372D01*
X2312Y3388D01*
X2378D01*
X2395Y3372D01*
Y3338D01*
X2378Y3322D01*
X2312D01*
X2395Y3488D02*
Y3422D01*
X2328Y3488D01*
X2312D01*
X2295Y3472D01*
Y3438D01*
X2312Y3422D01*
X688Y2727D02*
X588D01*
Y2777D01*
X605Y2794D01*
X638D01*
X655Y2777D01*
Y2727D01*
Y2760D02*
X688Y2794D01*
Y2827D02*
Y2860D01*
Y2844D01*
X588D01*
X605Y2827D01*
X671Y2910D02*
X688Y2927D01*
Y2960D01*
X671Y2977D01*
X605D01*
X588Y2960D01*
Y2927D01*
X605Y2910D01*
X621D01*
X638Y2927D01*
Y2977D01*
X688Y3077D02*
Y3010D01*
X621Y3077D01*
X605D01*
X588Y3060D01*
Y3027D01*
X605Y3010D01*
X537Y418D02*
X437D01*
Y468D01*
X454Y485D01*
X487D01*
X504Y468D01*
Y418D01*
Y451D02*
X537Y485D01*
Y518D02*
Y551D01*
Y535D01*
X437D01*
X454Y518D01*
Y601D02*
X437Y618D01*
Y651D01*
X454Y668D01*
X470D01*
X487Y651D01*
X504Y668D01*
X520D01*
X537Y651D01*
Y618D01*
X520Y601D01*
X504D01*
X487Y618D01*
X470Y601D01*
X454D01*
X487Y618D02*
Y651D01*
X537Y768D02*
Y701D01*
X470Y768D01*
X454D01*
X437Y751D01*
Y718D01*
X454Y701D01*
X3893Y341D02*
X3793D01*
Y391D01*
X3810Y408D01*
X3843D01*
X3860Y391D01*
Y341D01*
Y374D02*
X3893Y408D01*
Y441D02*
Y474D01*
Y458D01*
X3793D01*
X3810Y441D01*
X3793Y524D02*
Y591D01*
X3810D01*
X3876Y524D01*
X3893D01*
Y691D02*
Y624D01*
X3826Y691D01*
X3810D01*
X3793Y674D01*
Y641D01*
X3810Y624D01*
X3382Y3139D02*
X3282D01*
Y3189D01*
X3299Y3206D01*
X3332D01*
X3349Y3189D01*
Y3139D01*
Y3172D02*
X3382Y3206D01*
Y3239D02*
Y3272D01*
Y3256D01*
X3282D01*
X3299Y3239D01*
X3282Y3389D02*
X3299Y3356D01*
X3332Y3322D01*
X3365D01*
X3382Y3339D01*
Y3372D01*
X3365Y3389D01*
X3349D01*
X3332Y3372D01*
Y3322D01*
X3382Y3489D02*
Y3422D01*
X3315Y3489D01*
X3299D01*
X3282Y3472D01*
Y3439D01*
X3299Y3422D01*
X1255Y5121D02*
Y5221D01*
X1305D01*
X1321Y5204D01*
Y5171D01*
X1305Y5154D01*
X1255D01*
X1288D02*
X1321Y5121D01*
X1355D02*
X1388D01*
X1371D01*
Y5221D01*
X1355Y5204D01*
X1505Y5221D02*
X1438D01*
Y5171D01*
X1471Y5187D01*
X1488D01*
X1505Y5171D01*
Y5137D01*
X1488Y5121D01*
X1455D01*
X1438Y5137D01*
X1605Y5121D02*
X1538D01*
X1605Y5187D01*
Y5204D01*
X1588Y5221D01*
X1555D01*
X1538Y5204D01*
X4817Y2748D02*
X4717D01*
Y2798D01*
X4734Y2815D01*
X4767D01*
X4784Y2798D01*
Y2748D01*
Y2781D02*
X4817Y2815D01*
Y2848D02*
Y2881D01*
Y2865D01*
X4717D01*
X4734Y2848D01*
X4817Y2981D02*
X4717D01*
X4767Y2931D01*
Y2998D01*
X4817Y3098D02*
Y3031D01*
X4750Y3098D01*
X4734D01*
X4717Y3081D01*
Y3048D01*
X4734Y3031D01*
X4223Y2770D02*
X4123D01*
Y2820D01*
X4140Y2837D01*
X4173D01*
X4190Y2820D01*
Y2770D01*
Y2803D02*
X4223Y2837D01*
Y2870D02*
Y2903D01*
Y2887D01*
X4123D01*
X4140Y2870D01*
Y2953D02*
X4123Y2970D01*
Y3003D01*
X4140Y3020D01*
X4156D01*
X4173Y3003D01*
Y2987D01*
Y3003D01*
X4190Y3020D01*
X4206D01*
X4223Y3003D01*
Y2970D01*
X4206Y2953D01*
X4223Y3120D02*
Y3053D01*
X4156Y3120D01*
X4140D01*
X4123Y3103D01*
Y3070D01*
X4140Y3053D01*
X2536Y2752D02*
X2436D01*
Y2802D01*
X2453Y2819D01*
X2486D01*
X2503Y2802D01*
Y2752D01*
Y2785D02*
X2536Y2819D01*
Y2852D02*
Y2885D01*
Y2869D01*
X2436D01*
X2453Y2852D01*
X2536Y3002D02*
Y2935D01*
X2469Y3002D01*
X2453D01*
X2436Y2985D01*
Y2952D01*
X2453Y2935D01*
X2536Y3102D02*
Y3035D01*
X2469Y3102D01*
X2453D01*
X2436Y3085D01*
Y3052D01*
X2453Y3035D01*
X1689Y3134D02*
X1589D01*
Y3184D01*
X1606Y3201D01*
X1639D01*
X1656Y3184D01*
Y3134D01*
Y3168D02*
X1689Y3201D01*
Y3234D02*
Y3268D01*
Y3251D01*
X1589D01*
X1606Y3234D01*
X1689Y3318D02*
Y3351D01*
Y3334D01*
X1589D01*
X1606Y3318D01*
X1689Y3468D02*
Y3401D01*
X1622Y3468D01*
X1606D01*
X1589Y3451D01*
Y3418D01*
X1606Y3401D01*
X2855Y428D02*
X2755D01*
Y478D01*
X2772Y495D01*
X2805D01*
X2822Y478D01*
Y428D01*
Y461D02*
X2855Y495D01*
Y528D02*
Y561D01*
Y545D01*
X2755D01*
X2772Y528D01*
Y611D02*
X2755Y628D01*
Y661D01*
X2772Y678D01*
X2838D01*
X2855Y661D01*
Y628D01*
X2838Y611D01*
X2772D01*
X2855Y778D02*
Y711D01*
X2788Y778D01*
X2772D01*
X2755Y761D01*
Y728D01*
X2772Y711D01*
X3079Y489D02*
X2979D01*
Y539D01*
X2996Y555D01*
X3029D01*
X3046Y539D01*
Y489D01*
Y522D02*
X3079Y555D01*
X3062Y589D02*
X3079Y605D01*
Y639D01*
X3062Y655D01*
X2996D01*
X2979Y639D01*
Y605D01*
X2996Y589D01*
X3012D01*
X3029Y605D01*
Y655D01*
X3079Y755D02*
Y689D01*
X3012Y755D01*
X2996D01*
X2979Y739D01*
Y705D01*
X2996Y689D01*
X4244Y3635D02*
Y3735D01*
X4294D01*
X4310Y3718D01*
Y3685D01*
X4294Y3668D01*
X4244D01*
X4277D02*
X4310Y3635D01*
X4344Y3718D02*
X4360Y3735D01*
X4394D01*
X4410Y3718D01*
Y3702D01*
X4394Y3685D01*
X4410Y3668D01*
Y3652D01*
X4394Y3635D01*
X4360D01*
X4344Y3652D01*
Y3668D01*
X4360Y3685D01*
X4344Y3702D01*
Y3718D01*
X4360Y3685D02*
X4394D01*
X4510Y3635D02*
X4444D01*
X4510Y3702D01*
Y3718D01*
X4494Y3735D01*
X4460D01*
X4444Y3718D01*
X4255Y4391D02*
Y4491D01*
X4305D01*
X4321Y4474D01*
Y4441D01*
X4305Y4424D01*
X4255D01*
X4288D02*
X4321Y4391D01*
X4355Y4491D02*
X4421D01*
Y4474D01*
X4355Y4408D01*
Y4391D01*
X4521D02*
X4455D01*
X4521Y4458D01*
Y4474D01*
X4505Y4491D01*
X4471D01*
X4455Y4474D01*
X12502Y1917D02*
Y2017D01*
X12552D01*
X12568Y2000D01*
Y1967D01*
X12552Y1950D01*
X12502D01*
X12535D02*
X12568Y1917D01*
X12668Y2017D02*
X12635Y2000D01*
X12602Y1967D01*
Y1934D01*
X12618Y1917D01*
X12652D01*
X12668Y1934D01*
Y1950D01*
X12652Y1967D01*
X12602D01*
X12768Y2017D02*
X12702D01*
Y1967D01*
X12735Y1984D01*
X12752D01*
X12768Y1967D01*
Y1934D01*
X12752Y1917D01*
X12718D01*
X12702Y1934D01*
X1488Y3108D02*
X1388D01*
Y3158D01*
X1405Y3174D01*
X1438D01*
X1455Y3158D01*
Y3108D01*
Y3141D02*
X1488Y3174D01*
X1388Y3274D02*
X1405Y3241D01*
X1438Y3208D01*
X1471D01*
X1488Y3224D01*
Y3258D01*
X1471Y3274D01*
X1455D01*
X1438Y3258D01*
Y3208D01*
X1488Y3374D02*
Y3308D01*
X1421Y3374D01*
X1405D01*
X1388Y3358D01*
Y3324D01*
X1405Y3308D01*
X13922Y9369D02*
X13822D01*
Y9419D01*
X13839Y9435D01*
X13872D01*
X13889Y9419D01*
Y9369D01*
Y9402D02*
X13922Y9435D01*
X13822Y9535D02*
Y9469D01*
X13872D01*
X13855Y9502D01*
Y9519D01*
X13872Y9535D01*
X13905D01*
X13922Y9519D01*
Y9485D01*
X13905Y9469D01*
X13822Y9635D02*
X13839Y9602D01*
X13872Y9569D01*
X13905D01*
X13922Y9585D01*
Y9619D01*
X13905Y9635D01*
X13889D01*
X13872Y9619D01*
Y9569D01*
X12138Y1923D02*
Y2023D01*
X12188D01*
X12204Y2006D01*
Y1973D01*
X12188Y1956D01*
X12138D01*
X12171D02*
X12204Y1923D01*
X12304Y2023D02*
X12238D01*
Y1973D01*
X12271Y1990D01*
X12288D01*
X12304Y1973D01*
Y1940D01*
X12288Y1923D01*
X12254D01*
X12238Y1940D01*
X12404Y2023D02*
X12338D01*
Y1973D01*
X12371Y1990D01*
X12388D01*
X12404Y1973D01*
Y1940D01*
X12388Y1923D01*
X12354D01*
X12338Y1940D01*
X4951Y482D02*
X4851D01*
Y532D01*
X4868Y548D01*
X4901D01*
X4918Y532D01*
Y482D01*
Y515D02*
X4951Y548D01*
X4851Y648D02*
Y582D01*
X4901D01*
X4884Y615D01*
Y632D01*
X4901Y648D01*
X4934D01*
X4951Y632D01*
Y598D01*
X4934Y582D01*
X4951Y748D02*
Y682D01*
X4884Y748D01*
X4868D01*
X4851Y732D01*
Y698D01*
X4868Y682D01*
X11850Y8581D02*
X11750D01*
Y8631D01*
X11767Y8647D01*
X11800D01*
X11817Y8631D01*
Y8581D01*
Y8614D02*
X11850Y8647D01*
Y8731D02*
X11750D01*
X11800Y8681D01*
Y8747D01*
X11750Y8847D02*
X11767Y8814D01*
X11800Y8781D01*
X11833D01*
X11850Y8797D01*
Y8831D01*
X11833Y8847D01*
X11817D01*
X11800Y8831D01*
Y8781D01*
X11709Y8421D02*
X11609D01*
Y8471D01*
X11626Y8487D01*
X11659D01*
X11676Y8471D01*
Y8421D01*
Y8454D02*
X11709Y8487D01*
Y8571D02*
X11609D01*
X11659Y8521D01*
Y8587D01*
X11609Y8687D02*
Y8621D01*
X11659D01*
X11642Y8654D01*
Y8671D01*
X11659Y8687D01*
X11692D01*
X11709Y8671D01*
Y8637D01*
X11692Y8621D01*
X4257Y486D02*
X4157D01*
Y536D01*
X4174Y552D01*
X4207D01*
X4224Y536D01*
Y486D01*
Y519D02*
X4257Y552D01*
Y636D02*
X4157D01*
X4207Y586D01*
Y652D01*
X4257Y752D02*
Y686D01*
X4190Y752D01*
X4174D01*
X4157Y736D01*
Y702D01*
X4174Y686D01*
X13143Y8547D02*
X13043D01*
Y8597D01*
X13060Y8613D01*
X13093D01*
X13110Y8597D01*
Y8547D01*
Y8580D02*
X13143Y8613D01*
X13060Y8647D02*
X13043Y8663D01*
Y8697D01*
X13060Y8713D01*
X13076D01*
X13093Y8697D01*
Y8680D01*
Y8697D01*
X13110Y8713D01*
X13126D01*
X13143Y8697D01*
Y8663D01*
X13126Y8647D01*
X13043Y8813D02*
X13060Y8780D01*
X13093Y8747D01*
X13126D01*
X13143Y8763D01*
Y8797D01*
X13126Y8813D01*
X13110D01*
X13093Y8797D01*
Y8747D01*
X13850Y6900D02*
X13750D01*
Y6950D01*
X13767Y6966D01*
X13800D01*
X13817Y6950D01*
Y6900D01*
Y6933D02*
X13850Y6966D01*
X13767Y7000D02*
X13750Y7016D01*
Y7050D01*
X13767Y7066D01*
X13783D01*
X13800Y7050D01*
Y7033D01*
Y7050D01*
X13817Y7066D01*
X13833D01*
X13850Y7050D01*
Y7016D01*
X13833Y7000D01*
X13750Y7166D02*
Y7100D01*
X13800D01*
X13783Y7133D01*
Y7150D01*
X13800Y7166D01*
X13833D01*
X13850Y7150D01*
Y7116D01*
X13833Y7100D01*
X2381Y479D02*
X2281D01*
Y529D01*
X2298Y545D01*
X2331D01*
X2348Y529D01*
Y479D01*
Y512D02*
X2381Y545D01*
X2298Y579D02*
X2281Y595D01*
Y629D01*
X2298Y645D01*
X2314D01*
X2331Y629D01*
Y612D01*
Y629D01*
X2348Y645D01*
X2364D01*
X2381Y629D01*
Y595D01*
X2364Y579D01*
X2381Y745D02*
Y679D01*
X2314Y745D01*
X2298D01*
X2281Y729D01*
Y695D01*
X2298Y679D01*
X11039Y8534D02*
X10939D01*
Y8584D01*
X10956Y8600D01*
X10989D01*
X11006Y8584D01*
Y8534D01*
Y8567D02*
X11039Y8600D01*
Y8700D02*
Y8634D01*
X10972Y8700D01*
X10956D01*
X10939Y8684D01*
Y8650D01*
X10956Y8634D01*
X10939Y8800D02*
X10956Y8767D01*
X10989Y8734D01*
X11022D01*
X11039Y8750D01*
Y8784D01*
X11022Y8800D01*
X11006D01*
X10989Y8784D01*
Y8734D01*
X11399Y7648D02*
X11299D01*
Y7698D01*
X11316Y7714D01*
X11349D01*
X11366Y7698D01*
Y7648D01*
Y7681D02*
X11399Y7714D01*
Y7814D02*
Y7748D01*
X11332Y7814D01*
X11316D01*
X11299Y7798D01*
Y7764D01*
X11316Y7748D01*
X11299Y7914D02*
Y7848D01*
X11349D01*
X11332Y7881D01*
Y7898D01*
X11349Y7914D01*
X11382D01*
X11399Y7898D01*
Y7864D01*
X11382Y7848D01*
X8519Y8556D02*
X8419D01*
Y8606D01*
X8436Y8622D01*
X8469D01*
X8486Y8606D01*
Y8556D01*
Y8589D02*
X8519Y8622D01*
Y8722D02*
Y8656D01*
X8452Y8722D01*
X8436D01*
X8419Y8706D01*
Y8672D01*
X8436Y8656D01*
Y8756D02*
X8419Y8772D01*
Y8806D01*
X8436Y8822D01*
X8452D01*
X8469Y8806D01*
Y8789D01*
Y8806D01*
X8486Y8822D01*
X8502D01*
X8519Y8806D01*
Y8772D01*
X8502Y8756D01*
X1853Y405D02*
X1753D01*
Y455D01*
X1770Y471D01*
X1803D01*
X1820Y455D01*
Y405D01*
Y438D02*
X1853Y471D01*
Y571D02*
Y505D01*
X1786Y571D01*
X1770D01*
X1753Y555D01*
Y521D01*
X1770Y505D01*
X1853Y671D02*
Y605D01*
X1786Y671D01*
X1770D01*
X1753Y655D01*
Y621D01*
X1770Y605D01*
X9148Y8566D02*
X9048D01*
Y8616D01*
X9065Y8633D01*
X9098D01*
X9115Y8616D01*
Y8566D01*
Y8599D02*
X9148Y8633D01*
Y8666D02*
Y8699D01*
Y8683D01*
X9048D01*
X9065Y8666D01*
X9048Y8816D02*
X9065Y8783D01*
X9098Y8749D01*
X9131D01*
X9148Y8766D01*
Y8799D01*
X9131Y8816D01*
X9115D01*
X9098Y8799D01*
Y8749D01*
X11125Y7655D02*
X11025D01*
Y7705D01*
X11042Y7722D01*
X11075D01*
X11092Y7705D01*
Y7655D01*
Y7688D02*
X11125Y7722D01*
Y7755D02*
Y7788D01*
Y7772D01*
X11025D01*
X11042Y7755D01*
X11025Y7905D02*
Y7838D01*
X11075D01*
X11058Y7872D01*
Y7888D01*
X11075Y7905D01*
X11108D01*
X11125Y7888D01*
Y7855D01*
X11108Y7838D01*
X14068Y2222D02*
Y2322D01*
X14118D01*
X14135Y2305D01*
Y2272D01*
X14118Y2255D01*
X14068D01*
X14101D02*
X14135Y2222D01*
X14168D02*
X14201D01*
X14185D01*
Y2322D01*
X14168Y2305D01*
X14301Y2222D02*
Y2322D01*
X14251Y2272D01*
X14318D01*
X7559Y8545D02*
Y8645D01*
X7609D01*
X7626Y8628D01*
Y8595D01*
X7609Y8578D01*
X7559D01*
X7592D02*
X7626Y8545D01*
X7659D02*
X7692D01*
X7676D01*
Y8645D01*
X7659Y8628D01*
X7742D02*
X7759Y8645D01*
X7792D01*
X7809Y8628D01*
Y8611D01*
X7792Y8595D01*
X7776D01*
X7792D01*
X7809Y8578D01*
Y8561D01*
X7792Y8545D01*
X7759D01*
X7742Y8561D01*
X1174Y489D02*
X1074D01*
Y539D01*
X1091Y556D01*
X1124D01*
X1141Y539D01*
Y489D01*
Y522D02*
X1174Y556D01*
Y589D02*
Y622D01*
Y606D01*
X1074D01*
X1091Y589D01*
X1174Y739D02*
Y672D01*
X1107Y739D01*
X1091D01*
X1074Y722D01*
Y689D01*
X1091Y672D01*
X2286Y4549D02*
Y4615D01*
X2269Y4632D01*
X2236D01*
X2219Y4615D01*
Y4549D01*
X2236Y4532D01*
X2269D01*
X2253Y4565D02*
X2286Y4532D01*
X2269D02*
X2286Y4549D01*
X2319Y4532D02*
X2353D01*
X2336D01*
Y4632D01*
X2319Y4615D01*
X2403Y4532D02*
X2436D01*
X2419D01*
Y4632D01*
X2403Y4615D01*
X2553Y4532D02*
X2486D01*
X2553Y4599D01*
Y4615D01*
X2536Y4632D01*
X2503D01*
X2486Y4615D01*
X1482Y4547D02*
Y4613D01*
X1465Y4630D01*
X1432D01*
X1415Y4613D01*
Y4547D01*
X1432Y4530D01*
X1465D01*
X1448Y4563D02*
X1482Y4530D01*
X1465D02*
X1482Y4547D01*
X1515Y4530D02*
X1548D01*
X1532D01*
Y4630D01*
X1515Y4613D01*
X1598D02*
X1615Y4630D01*
X1648D01*
X1665Y4613D01*
Y4547D01*
X1648Y4530D01*
X1615D01*
X1598Y4547D01*
Y4613D01*
X1765Y4530D02*
X1698D01*
X1765Y4597D01*
Y4613D01*
X1748Y4630D01*
X1715D01*
X1698Y4613D01*
X384Y4566D02*
Y4632D01*
X368Y4649D01*
X334D01*
X318Y4632D01*
Y4566D01*
X334Y4549D01*
X368D01*
X351Y4582D02*
X384Y4549D01*
X368D02*
X384Y4566D01*
X418D02*
X434Y4549D01*
X468D01*
X484Y4566D01*
Y4632D01*
X468Y4649D01*
X434D01*
X418Y4632D01*
Y4616D01*
X434Y4599D01*
X484D01*
X584Y4549D02*
X518D01*
X584Y4616D01*
Y4632D01*
X568Y4649D01*
X534D01*
X518Y4632D01*
X400Y2580D02*
Y2646D01*
X384Y2663D01*
X350D01*
X334Y2646D01*
Y2580D01*
X350Y2563D01*
X384D01*
X367Y2596D02*
X400Y2563D01*
X384D02*
X400Y2580D01*
X434Y2646D02*
X450Y2663D01*
X484D01*
X500Y2646D01*
Y2630D01*
X484Y2613D01*
X500Y2596D01*
Y2580D01*
X484Y2563D01*
X450D01*
X434Y2580D01*
Y2596D01*
X450Y2613D01*
X434Y2630D01*
Y2646D01*
X450Y2613D02*
X484D01*
X600Y2563D02*
X534D01*
X600Y2630D01*
Y2646D01*
X584Y2663D01*
X550D01*
X534Y2646D01*
X3387Y2603D02*
Y2669D01*
X3371Y2686D01*
X3337D01*
X3321Y2669D01*
Y2603D01*
X3337Y2586D01*
X3371D01*
X3354Y2619D02*
X3387Y2586D01*
X3371D02*
X3387Y2603D01*
X3421Y2686D02*
X3487D01*
Y2669D01*
X3421Y2603D01*
Y2586D01*
X3587D02*
X3521D01*
X3587Y2653D01*
Y2669D01*
X3571Y2686D01*
X3537D01*
X3521Y2669D01*
X2654Y2600D02*
Y2666D01*
X2638Y2683D01*
X2604D01*
X2588Y2666D01*
Y2600D01*
X2604Y2583D01*
X2638D01*
X2621Y2616D02*
X2654Y2583D01*
X2638D02*
X2654Y2600D01*
X2754Y2683D02*
X2721Y2666D01*
X2688Y2633D01*
Y2600D01*
X2704Y2583D01*
X2738D01*
X2754Y2600D01*
Y2616D01*
X2738Y2633D01*
X2688D01*
X2854Y2583D02*
X2788D01*
X2854Y2650D01*
Y2666D01*
X2838Y2683D01*
X2804D01*
X2788Y2666D01*
X1145Y4556D02*
Y4622D01*
X1129Y4639D01*
X1095D01*
X1079Y4622D01*
Y4556D01*
X1095Y4539D01*
X1129D01*
X1112Y4572D02*
X1145Y4539D01*
X1129D02*
X1145Y4556D01*
X1245Y4639D02*
X1179D01*
Y4589D01*
X1212Y4606D01*
X1229D01*
X1245Y4589D01*
Y4556D01*
X1229Y4539D01*
X1195D01*
X1179Y4556D01*
X1345Y4539D02*
X1279D01*
X1345Y4606D01*
Y4622D01*
X1329Y4639D01*
X1295D01*
X1279Y4622D01*
X4782Y2600D02*
Y2666D01*
X4766Y2683D01*
X4732D01*
X4716Y2666D01*
Y2600D01*
X4732Y2583D01*
X4766D01*
X4749Y2616D02*
X4782Y2583D01*
X4766D02*
X4782Y2600D01*
X4866Y2583D02*
Y2683D01*
X4816Y2633D01*
X4882D01*
X4982Y2583D02*
X4916D01*
X4982Y2650D01*
Y2666D01*
X4966Y2683D01*
X4932D01*
X4916Y2666D01*
X4032Y2638D02*
Y2705D01*
X4015Y2721D01*
X3982D01*
X3965Y2705D01*
Y2638D01*
X3982Y2621D01*
X4015D01*
X3998Y2655D02*
X4032Y2621D01*
X4015D02*
X4032Y2638D01*
X4065Y2705D02*
X4082Y2721D01*
X4115D01*
X4132Y2705D01*
Y2688D01*
X4115Y2671D01*
X4098D01*
X4115D01*
X4132Y2655D01*
Y2638D01*
X4115Y2621D01*
X4082D01*
X4065Y2638D01*
X4232Y2621D02*
X4165D01*
X4232Y2688D01*
Y2705D01*
X4215Y2721D01*
X4182D01*
X4165Y2705D01*
X1940Y2603D02*
Y2669D01*
X1924Y2686D01*
X1890D01*
X1874Y2669D01*
Y2603D01*
X1890Y2586D01*
X1924D01*
X1907Y2619D02*
X1940Y2586D01*
X1924D02*
X1940Y2603D01*
X2040Y2586D02*
X1974D01*
X2040Y2653D01*
Y2669D01*
X2024Y2686D01*
X1990D01*
X1974Y2669D01*
X2140Y2586D02*
X2074D01*
X2140Y2653D01*
Y2669D01*
X2124Y2686D01*
X2090D01*
X2074Y2669D01*
X12967Y1924D02*
Y1990D01*
X12950Y2007D01*
X12917D01*
X12900Y1990D01*
Y1924D01*
X12917Y1907D01*
X12950D01*
X12933Y1940D02*
X12967Y1907D01*
X12950D02*
X12967Y1924D01*
X13000Y1907D02*
X13033D01*
X13017D01*
Y2007D01*
X13000Y1990D01*
X13150Y2007D02*
X13083D01*
Y1957D01*
X13117Y1974D01*
X13133D01*
X13150Y1957D01*
Y1924D01*
X13133Y1907D01*
X13100D01*
X13083Y1924D01*
X1151Y2595D02*
Y2661D01*
X1134Y2678D01*
X1101D01*
X1084Y2661D01*
Y2595D01*
X1101Y2578D01*
X1134D01*
X1117Y2611D02*
X1151Y2578D01*
X1134D02*
X1151Y2595D01*
X1184Y2578D02*
X1217D01*
X1201D01*
Y2678D01*
X1184Y2661D01*
X1334Y2578D02*
X1267D01*
X1334Y2645D01*
Y2661D01*
X1317Y2678D01*
X1284D01*
X1267Y2661D01*
X9787Y2396D02*
Y2296D01*
X9853D01*
X9953Y2379D02*
X9937Y2396D01*
X9903D01*
X9887Y2379D01*
Y2363D01*
X9903Y2346D01*
X9937D01*
X9953Y2329D01*
Y2313D01*
X9937Y2296D01*
X9903D01*
X9887Y2313D01*
X9987Y2296D02*
X10020D01*
X10003D01*
Y2396D01*
X9987Y2379D01*
X10137Y2396D02*
X10070D01*
Y2346D01*
X10103Y2363D01*
X10120D01*
X10137Y2346D01*
Y2313D01*
X10120Y2296D01*
X10087D01*
X10070Y2313D01*
X3157Y7032D02*
Y6932D01*
X3224D01*
X3324D02*
X3257D01*
X3324Y6998D01*
Y7015D01*
X3307Y7032D01*
X3274D01*
X3257Y7015D01*
X3357Y6932D02*
X3390D01*
X3374D01*
Y7032D01*
X3357Y7015D01*
X886Y7072D02*
Y6972D01*
X953D01*
X986D02*
X1020D01*
X1003D01*
Y7072D01*
X986Y7056D01*
X1070Y6972D02*
X1103D01*
X1086D01*
Y7072D01*
X1070Y7056D01*
X12332Y7410D02*
X12299D01*
X12316D01*
Y7327D01*
X12299Y7310D01*
X12282D01*
X12266Y7327D01*
X12366Y7393D02*
X12382Y7410D01*
X12416D01*
X12432Y7393D01*
Y7377D01*
X12416Y7360D01*
X12399D01*
X12416D01*
X12432Y7343D01*
Y7327D01*
X12416Y7310D01*
X12382D01*
X12366Y7327D01*
X12466Y7393D02*
X12482Y7410D01*
X12516D01*
X12532Y7393D01*
Y7377D01*
X12516Y7360D01*
X12532Y7343D01*
Y7327D01*
X12516Y7310D01*
X12482D01*
X12466Y7327D01*
Y7343D01*
X12482Y7360D01*
X12466Y7377D01*
Y7393D01*
X12482Y7360D02*
X12516D01*
X12548Y8594D02*
X12648D01*
Y8644D01*
X12631Y8660D01*
X12565D01*
X12548Y8644D01*
Y8594D01*
X12565Y8694D02*
X12548Y8710D01*
Y8744D01*
X12565Y8760D01*
X12581D01*
X12598Y8744D01*
Y8727D01*
Y8744D01*
X12615Y8760D01*
X12631D01*
X12648Y8744D01*
Y8710D01*
X12631Y8694D01*
X12548Y8860D02*
X12565Y8827D01*
X12598Y8794D01*
X12631D01*
X12648Y8810D01*
Y8844D01*
X12631Y8860D01*
X12615D01*
X12598Y8844D01*
Y8794D01*
X10727Y8529D02*
X10827D01*
Y8579D01*
X10810Y8595D01*
X10744D01*
X10727Y8579D01*
Y8529D01*
X10827Y8695D02*
Y8629D01*
X10760Y8695D01*
X10744D01*
X10727Y8679D01*
Y8645D01*
X10744Y8629D01*
X10727Y8795D02*
X10744Y8762D01*
X10777Y8729D01*
X10810D01*
X10827Y8745D01*
Y8779D01*
X10810Y8795D01*
X10794D01*
X10777Y8779D01*
Y8729D01*
X8759Y8563D02*
X8859D01*
Y8613D01*
X8842Y8630D01*
X8776D01*
X8759Y8613D01*
Y8563D01*
X8859Y8663D02*
Y8696D01*
Y8680D01*
X8759D01*
X8776Y8663D01*
X8759Y8813D02*
X8776Y8780D01*
X8809Y8746D01*
X8842D01*
X8859Y8763D01*
Y8796D01*
X8842Y8813D01*
X8826D01*
X8809Y8796D01*
Y8746D01*
X14131Y6837D02*
X14114Y6821D01*
Y6787D01*
X14131Y6771D01*
X14197D01*
X14214Y6787D01*
Y6821D01*
X14197Y6837D01*
X14214Y6937D02*
Y6871D01*
X14147Y6937D01*
X14131D01*
X14114Y6921D01*
Y6887D01*
X14131Y6871D01*
Y6971D02*
X14114Y6987D01*
Y7021D01*
X14131Y7037D01*
X14147D01*
X14164Y7021D01*
Y7004D01*
Y7021D01*
X14181Y7037D01*
X14197D01*
X14214Y7021D01*
Y6987D01*
X14197Y6971D01*
X14114Y7137D02*
Y7071D01*
X14164D01*
X14147Y7104D01*
Y7121D01*
X14164Y7137D01*
X14197D01*
X14214Y7121D01*
Y7087D01*
X14197Y7071D01*
X10506Y4404D02*
X10489Y4421D01*
X10456D01*
X10439Y4404D01*
Y4337D01*
X10456Y4321D01*
X10489D01*
X10506Y4337D01*
X10606Y4321D02*
X10539D01*
X10606Y4387D01*
Y4404D01*
X10589Y4421D01*
X10556D01*
X10539Y4404D01*
X10706Y4321D02*
X10639D01*
X10706Y4387D01*
Y4404D01*
X10689Y4421D01*
X10656D01*
X10639Y4404D01*
X10806Y4421D02*
X10739D01*
Y4371D01*
X10773Y4387D01*
X10789D01*
X10806Y4371D01*
Y4337D01*
X10789Y4321D01*
X10756D01*
X10739Y4337D01*
X10204Y5855D02*
X10187Y5872D01*
X10154D01*
X10137Y5855D01*
Y5789D01*
X10154Y5772D01*
X10187D01*
X10204Y5789D01*
X10304Y5772D02*
X10237D01*
X10304Y5839D01*
Y5855D01*
X10287Y5872D01*
X10254D01*
X10237Y5855D01*
X10337Y5772D02*
X10370D01*
X10354D01*
Y5872D01*
X10337Y5855D01*
X10487Y5872D02*
X10420D01*
Y5822D01*
X10454Y5839D01*
X10470D01*
X10487Y5822D01*
Y5789D01*
X10470Y5772D01*
X10437D01*
X10420Y5789D01*
X14734Y775D02*
X14717Y759D01*
Y725D01*
X14734Y709D01*
X14800D01*
X14817Y725D01*
Y759D01*
X14800Y775D01*
X14817Y875D02*
Y809D01*
X14750Y875D01*
X14734D01*
X14717Y859D01*
Y825D01*
X14734Y809D01*
Y909D02*
X14717Y925D01*
Y959D01*
X14734Y975D01*
X14800D01*
X14817Y959D01*
Y925D01*
X14800Y909D01*
X14734D01*
X14717Y1075D02*
Y1009D01*
X14767D01*
X14750Y1042D01*
Y1059D01*
X14767Y1075D01*
X14800D01*
X14817Y1059D01*
Y1025D01*
X14800Y1009D01*
X14405Y793D02*
X14388Y776D01*
Y743D01*
X14405Y726D01*
X14471D01*
X14488Y743D01*
Y776D01*
X14471Y793D01*
X14488Y826D02*
Y859D01*
Y843D01*
X14388D01*
X14405Y826D01*
X14471Y909D02*
X14488Y926D01*
Y959D01*
X14471Y976D01*
X14405D01*
X14388Y959D01*
Y926D01*
X14405Y909D01*
X14421D01*
X14438Y926D01*
Y976D01*
X14388Y1076D02*
Y1009D01*
X14438D01*
X14421Y1043D01*
Y1059D01*
X14438Y1076D01*
X14471D01*
X14488Y1059D01*
Y1026D01*
X14471Y1009D01*
X14078Y789D02*
X14061Y772D01*
Y739D01*
X14078Y722D01*
X14144D01*
X14161Y739D01*
Y772D01*
X14144Y789D01*
X14161Y822D02*
Y855D01*
Y839D01*
X14061D01*
X14078Y822D01*
Y905D02*
X14061Y922D01*
Y955D01*
X14078Y972D01*
X14094D01*
X14111Y955D01*
X14128Y972D01*
X14144D01*
X14161Y955D01*
Y922D01*
X14144Y905D01*
X14128D01*
X14111Y922D01*
X14094Y905D01*
X14078D01*
X14111Y922D02*
Y955D01*
X14061Y1072D02*
Y1005D01*
X14111D01*
X14094Y1039D01*
Y1055D01*
X14111Y1072D01*
X14144D01*
X14161Y1055D01*
Y1022D01*
X14144Y1005D01*
X13767Y792D02*
X13750Y775D01*
Y742D01*
X13767Y725D01*
X13833D01*
X13850Y742D01*
Y775D01*
X13833Y792D01*
X13850Y825D02*
Y858D01*
Y842D01*
X13750D01*
X13767Y825D01*
X13750Y908D02*
Y975D01*
X13767D01*
X13833Y908D01*
X13850D01*
X13750Y1075D02*
Y1008D01*
X13800D01*
X13783Y1042D01*
Y1058D01*
X13800Y1075D01*
X13833D01*
X13850Y1058D01*
Y1025D01*
X13833Y1008D01*
X13451Y795D02*
X13434Y778D01*
Y745D01*
X13451Y728D01*
X13517D01*
X13534Y745D01*
Y778D01*
X13517Y795D01*
X13534Y828D02*
Y861D01*
Y845D01*
X13434D01*
X13451Y828D01*
X13434Y978D02*
X13451Y945D01*
X13484Y911D01*
X13517D01*
X13534Y928D01*
Y961D01*
X13517Y978D01*
X13501D01*
X13484Y961D01*
Y911D01*
X13434Y1078D02*
Y1011D01*
X13484D01*
X13467Y1045D01*
Y1061D01*
X13484Y1078D01*
X13517D01*
X13534Y1061D01*
Y1028D01*
X13517Y1011D01*
X13124Y778D02*
X13107Y761D01*
Y728D01*
X13124Y711D01*
X13190D01*
X13207Y728D01*
Y761D01*
X13190Y778D01*
X13207Y811D02*
Y844D01*
Y828D01*
X13107D01*
X13124Y811D01*
X13107Y961D02*
Y894D01*
X13157D01*
X13140Y928D01*
Y944D01*
X13157Y961D01*
X13190D01*
X13207Y944D01*
Y911D01*
X13190Y894D01*
X13107Y1061D02*
Y994D01*
X13157D01*
X13140Y1028D01*
Y1044D01*
X13157Y1061D01*
X13190D01*
X13207Y1044D01*
Y1011D01*
X13190Y994D01*
X3770Y4088D02*
X3753Y4105D01*
X3720D01*
X3703Y4088D01*
Y4022D01*
X3720Y4005D01*
X3753D01*
X3770Y4022D01*
X3803Y4005D02*
X3836D01*
X3820D01*
Y4105D01*
X3803Y4088D01*
X3953Y4105D02*
X3886D01*
Y4055D01*
X3920Y4072D01*
X3936D01*
X3953Y4055D01*
Y4022D01*
X3936Y4005D01*
X3903D01*
X3886Y4022D01*
X4053Y4005D02*
X3986D01*
X4053Y4072D01*
Y4088D01*
X4036Y4105D01*
X4003D01*
X3986Y4088D01*
X12174Y765D02*
X12157Y748D01*
Y715D01*
X12174Y698D01*
X12240D01*
X12257Y715D01*
Y748D01*
X12240Y765D01*
X12257Y798D02*
Y831D01*
Y815D01*
X12157D01*
X12174Y798D01*
X12257Y931D02*
X12157D01*
X12207Y881D01*
Y948D01*
X12157Y1048D02*
Y981D01*
X12207D01*
X12190Y1015D01*
Y1031D01*
X12207Y1048D01*
X12240D01*
X12257Y1031D01*
Y998D01*
X12240Y981D01*
X12488Y779D02*
X12471Y762D01*
Y729D01*
X12488Y712D01*
X12554D01*
X12571Y729D01*
Y762D01*
X12554Y779D01*
X12571Y812D02*
Y845D01*
Y829D01*
X12471D01*
X12488Y812D01*
Y895D02*
X12471Y912D01*
Y945D01*
X12488Y962D01*
X12504D01*
X12521Y945D01*
Y929D01*
Y945D01*
X12538Y962D01*
X12554D01*
X12571Y945D01*
Y912D01*
X12554Y895D01*
X12471Y1062D02*
Y995D01*
X12521D01*
X12504Y1029D01*
Y1045D01*
X12521Y1062D01*
X12554D01*
X12571Y1045D01*
Y1012D01*
X12554Y995D01*
X3770Y3341D02*
X3753Y3358D01*
X3720D01*
X3703Y3341D01*
Y3275D01*
X3720Y3258D01*
X3753D01*
X3770Y3275D01*
X3803Y3258D02*
X3836D01*
X3820D01*
Y3358D01*
X3803Y3341D01*
X3886D02*
X3903Y3358D01*
X3936D01*
X3953Y3341D01*
Y3325D01*
X3936Y3308D01*
X3920D01*
X3936D01*
X3953Y3291D01*
Y3275D01*
X3936Y3258D01*
X3903D01*
X3886Y3275D01*
X4053Y3258D02*
X3986D01*
X4053Y3325D01*
Y3341D01*
X4036Y3358D01*
X4003D01*
X3986Y3341D01*
X10907Y759D02*
X10890Y742D01*
Y709D01*
X10907Y692D01*
X10973D01*
X10990Y709D01*
Y742D01*
X10973Y759D01*
X10990Y792D02*
Y825D01*
Y809D01*
X10890D01*
X10907Y792D01*
X10990Y942D02*
Y875D01*
X10923Y942D01*
X10907D01*
X10890Y925D01*
Y892D01*
X10907Y875D01*
X10890Y1042D02*
Y975D01*
X10940D01*
X10923Y1009D01*
Y1025D01*
X10940Y1042D01*
X10973D01*
X10990Y1025D01*
Y992D01*
X10973Y975D01*
X1898Y3187D02*
X1881Y3204D01*
X1848D01*
X1831Y3187D01*
Y3121D01*
X1848Y3104D01*
X1881D01*
X1898Y3121D01*
X1931Y3104D02*
X1964D01*
X1948D01*
Y3204D01*
X1931Y3187D01*
X2081Y3104D02*
X2014D01*
X2081Y3171D01*
Y3187D01*
X2064Y3204D01*
X2031D01*
X2014Y3187D01*
X2181Y3104D02*
X2114D01*
X2181Y3171D01*
Y3187D01*
X2164Y3204D01*
X2131D01*
X2114Y3187D01*
X12820Y779D02*
X12803Y762D01*
Y729D01*
X12820Y712D01*
X12886D01*
X12903Y729D01*
Y762D01*
X12886Y779D01*
X12903Y812D02*
Y846D01*
Y829D01*
X12803D01*
X12820Y812D01*
X12903Y896D02*
Y929D01*
Y912D01*
X12803D01*
X12820Y896D01*
X12803Y1046D02*
Y979D01*
X12853D01*
X12836Y1012D01*
Y1029D01*
X12853Y1046D01*
X12886D01*
X12903Y1029D01*
Y996D01*
X12886Y979D01*
X95Y2388D02*
X78Y2371D01*
Y2338D01*
X95Y2321D01*
X161D01*
X178Y2338D01*
Y2371D01*
X161Y2388D01*
X178Y2421D02*
Y2455D01*
Y2438D01*
X78D01*
X95Y2421D01*
X178Y2505D02*
Y2538D01*
Y2521D01*
X78D01*
X95Y2505D01*
X178Y2655D02*
Y2588D01*
X111Y2655D01*
X95D01*
X78Y2638D01*
Y2605D01*
X95Y2588D01*
X10588Y749D02*
X10571Y732D01*
Y699D01*
X10588Y682D01*
X10654D01*
X10671Y699D01*
Y732D01*
X10654Y749D01*
X10671Y782D02*
Y815D01*
Y799D01*
X10571D01*
X10588Y782D01*
Y865D02*
X10571Y882D01*
Y915D01*
X10588Y932D01*
X10654D01*
X10671Y915D01*
Y882D01*
X10654Y865D01*
X10588D01*
X10571Y1032D02*
Y965D01*
X10621D01*
X10604Y999D01*
Y1015D01*
X10621Y1032D01*
X10654D01*
X10671Y1015D01*
Y982D01*
X10654Y965D01*
X209Y501D02*
X192Y484D01*
Y451D01*
X209Y434D01*
X275D01*
X292Y451D01*
Y484D01*
X275Y501D01*
X292Y534D02*
Y567D01*
Y551D01*
X192D01*
X209Y534D01*
Y617D02*
X192Y634D01*
Y667D01*
X209Y684D01*
X275D01*
X292Y667D01*
Y634D01*
X275Y617D01*
X209D01*
X292Y784D02*
Y717D01*
X225Y784D01*
X209D01*
X192Y767D01*
Y734D01*
X209Y717D01*
X11857Y768D02*
X11840Y752D01*
Y718D01*
X11857Y702D01*
X11923D01*
X11940Y718D01*
Y752D01*
X11923Y768D01*
Y802D02*
X11940Y818D01*
Y852D01*
X11923Y868D01*
X11857D01*
X11840Y852D01*
Y818D01*
X11857Y802D01*
X11873D01*
X11890Y818D01*
Y868D01*
X11840Y968D02*
Y902D01*
X11890D01*
X11873Y935D01*
Y952D01*
X11890Y968D01*
X11923D01*
X11940Y952D01*
Y918D01*
X11923Y902D01*
X3314Y601D02*
X3297Y585D01*
Y551D01*
X3314Y535D01*
X3380D01*
X3397Y551D01*
Y585D01*
X3380Y601D01*
Y635D02*
X3397Y651D01*
Y685D01*
X3380Y701D01*
X3314D01*
X3297Y685D01*
Y651D01*
X3314Y635D01*
X3330D01*
X3347Y651D01*
Y701D01*
X3397Y801D02*
Y735D01*
X3330Y801D01*
X3314D01*
X3297Y785D01*
Y751D01*
X3314Y735D01*
X11529Y771D02*
X11512Y755D01*
Y721D01*
X11529Y705D01*
X11595D01*
X11612Y721D01*
Y755D01*
X11595Y771D01*
X11529Y805D02*
X11512Y821D01*
Y855D01*
X11529Y871D01*
X11545D01*
X11562Y855D01*
X11579Y871D01*
X11595D01*
X11612Y855D01*
Y821D01*
X11595Y805D01*
X11579D01*
X11562Y821D01*
X11545Y805D01*
X11529D01*
X11562Y821D02*
Y855D01*
X11512Y971D02*
Y905D01*
X11562D01*
X11545Y938D01*
Y955D01*
X11562Y971D01*
X11595D01*
X11612Y955D01*
Y921D01*
X11595Y905D01*
X3844Y3718D02*
X3828Y3735D01*
X3794D01*
X3778Y3718D01*
Y3652D01*
X3794Y3635D01*
X3828D01*
X3844Y3652D01*
X3878Y3718D02*
X3894Y3735D01*
X3928D01*
X3944Y3718D01*
Y3702D01*
X3928Y3685D01*
X3944Y3668D01*
Y3652D01*
X3928Y3635D01*
X3894D01*
X3878Y3652D01*
Y3668D01*
X3894Y3685D01*
X3878Y3702D01*
Y3718D01*
X3894Y3685D02*
X3928D01*
X4044Y3635D02*
X3978D01*
X4044Y3702D01*
Y3718D01*
X4028Y3735D01*
X3994D01*
X3978Y3718D01*
X10968Y4404D02*
X10952Y4421D01*
X10918D01*
X10902Y4404D01*
Y4337D01*
X10918Y4321D01*
X10952D01*
X10968Y4337D01*
X11002Y4421D02*
X11068D01*
Y4404D01*
X11002Y4337D01*
Y4321D01*
X11168Y4421D02*
X11102D01*
Y4371D01*
X11135Y4387D01*
X11152D01*
X11168Y4371D01*
Y4337D01*
X11152Y4321D01*
X11118D01*
X11102Y4337D01*
X3838Y4468D02*
X3822Y4485D01*
X3788D01*
X3772Y4468D01*
Y4402D01*
X3788Y4385D01*
X3822D01*
X3838Y4402D01*
X3872Y4485D02*
X3938D01*
Y4468D01*
X3872Y4402D01*
Y4385D01*
X4038D02*
X3972D01*
X4038Y4452D01*
Y4468D01*
X4022Y4485D01*
X3988D01*
X3972Y4468D01*
X13600Y8615D02*
X13583Y8599D01*
Y8565D01*
X13600Y8549D01*
X13666D01*
X13683Y8565D01*
Y8599D01*
X13666Y8615D01*
X13583Y8715D02*
X13600Y8682D01*
X13633Y8649D01*
X13666D01*
X13683Y8665D01*
Y8699D01*
X13666Y8715D01*
X13650D01*
X13633Y8699D01*
Y8649D01*
X13583Y8815D02*
X13600Y8782D01*
X13633Y8749D01*
X13666D01*
X13683Y8765D01*
Y8799D01*
X13666Y8815D01*
X13650D01*
X13633Y8799D01*
Y8749D01*
X11228Y763D02*
X11211Y747D01*
Y713D01*
X11228Y697D01*
X11294D01*
X11311Y713D01*
Y747D01*
X11294Y763D01*
X11211Y863D02*
X11228Y830D01*
X11261Y797D01*
X11294D01*
X11311Y813D01*
Y847D01*
X11294Y863D01*
X11278D01*
X11261Y847D01*
Y797D01*
X11211Y963D02*
Y897D01*
X11261D01*
X11244Y930D01*
Y947D01*
X11261Y963D01*
X11294D01*
X11311Y947D01*
Y913D01*
X11294Y897D01*
X957Y2855D02*
X940Y2839D01*
Y2805D01*
X957Y2789D01*
X1023D01*
X1040Y2805D01*
Y2839D01*
X1023Y2855D01*
X940Y2955D02*
X957Y2922D01*
X990Y2889D01*
X1023D01*
X1040Y2905D01*
Y2939D01*
X1023Y2955D01*
X1007D01*
X990Y2939D01*
Y2889D01*
X1040Y3055D02*
Y2989D01*
X973Y3055D01*
X957D01*
X940Y3039D01*
Y3005D01*
X957Y2989D01*
X11228Y8611D02*
X11211Y8595D01*
Y8561D01*
X11228Y8545D01*
X11294D01*
X11311Y8561D01*
Y8595D01*
X11294Y8611D01*
X11211Y8711D02*
Y8645D01*
X11261D01*
X11244Y8678D01*
Y8695D01*
X11261Y8711D01*
X11294D01*
X11311Y8695D01*
Y8661D01*
X11294Y8645D01*
X11211Y8811D02*
X11228Y8778D01*
X11261Y8745D01*
X11294D01*
X11311Y8761D01*
Y8795D01*
X11294Y8811D01*
X11278D01*
X11261Y8795D01*
Y8745D01*
X10289Y6599D02*
X10273Y6616D01*
X10239D01*
X10223Y6599D01*
Y6533D01*
X10239Y6516D01*
X10273D01*
X10289Y6533D01*
X10389Y6616D02*
X10323D01*
Y6566D01*
X10356Y6583D01*
X10373D01*
X10389Y6566D01*
Y6533D01*
X10373Y6516D01*
X10339D01*
X10323Y6533D01*
X10489Y6616D02*
X10423D01*
Y6566D01*
X10456Y6583D01*
X10473D01*
X10489Y6566D01*
Y6533D01*
X10473Y6516D01*
X10439D01*
X10423Y6533D01*
X5225Y570D02*
X5208Y554D01*
Y520D01*
X5225Y504D01*
X5291D01*
X5308Y520D01*
Y554D01*
X5291Y570D01*
X5208Y670D02*
Y604D01*
X5258D01*
X5241Y637D01*
Y654D01*
X5258Y670D01*
X5291D01*
X5308Y654D01*
Y620D01*
X5291Y604D01*
X5308Y770D02*
Y704D01*
X5241Y770D01*
X5225D01*
X5208Y754D01*
Y720D01*
X5225Y704D01*
X9639Y8598D02*
X9622Y8582D01*
Y8548D01*
X9639Y8532D01*
X9705D01*
X9722Y8548D01*
Y8582D01*
X9705Y8598D01*
X9722Y8682D02*
X9622D01*
X9672Y8632D01*
Y8698D01*
X9622Y8798D02*
X9639Y8765D01*
X9672Y8732D01*
X9705D01*
X9722Y8748D01*
Y8782D01*
X9705Y8798D01*
X9689D01*
X9672Y8782D01*
Y8732D01*
X10210Y6952D02*
X10194Y6969D01*
X10160D01*
X10144Y6952D01*
Y6886D01*
X10160Y6869D01*
X10194D01*
X10210Y6886D01*
X10294Y6869D02*
Y6969D01*
X10244Y6919D01*
X10310D01*
X10410Y6969D02*
X10344D01*
Y6919D01*
X10377Y6936D01*
X10394D01*
X10410Y6919D01*
Y6886D01*
X10394Y6869D01*
X10360D01*
X10344Y6886D01*
X4460Y540D02*
X4443Y524D01*
Y490D01*
X4460Y474D01*
X4526D01*
X4543Y490D01*
Y524D01*
X4526Y540D01*
X4543Y624D02*
X4443D01*
X4493Y574D01*
Y640D01*
X4543Y740D02*
Y674D01*
X4476Y740D01*
X4460D01*
X4443Y724D01*
Y690D01*
X4460Y674D01*
X2462Y9674D02*
X2445Y9691D01*
X2412D01*
X2395Y9674D01*
Y9608D01*
X2412Y9591D01*
X2445D01*
X2462Y9608D01*
X2545Y9591D02*
Y9691D01*
X2495Y9641D01*
X2562D01*
X2595Y9591D02*
X2628D01*
X2612D01*
Y9691D01*
X2595Y9674D01*
X13246Y8620D02*
X13229Y8604D01*
Y8570D01*
X13246Y8554D01*
X13312D01*
X13329Y8570D01*
Y8604D01*
X13312Y8620D01*
X13246Y8654D02*
X13229Y8670D01*
Y8704D01*
X13246Y8720D01*
X13262D01*
X13279Y8704D01*
Y8687D01*
Y8704D01*
X13296Y8720D01*
X13312D01*
X13329Y8704D01*
Y8670D01*
X13312Y8654D01*
X13229Y8820D02*
X13246Y8787D01*
X13279Y8754D01*
X13312D01*
X13329Y8770D01*
Y8804D01*
X13312Y8820D01*
X13296D01*
X13279Y8804D01*
Y8754D01*
X14497Y6864D02*
X14480Y6848D01*
Y6814D01*
X14497Y6798D01*
X14563D01*
X14580Y6814D01*
Y6848D01*
X14563Y6864D01*
X14497Y6898D02*
X14480Y6914D01*
Y6948D01*
X14497Y6964D01*
X14513D01*
X14530Y6948D01*
Y6931D01*
Y6948D01*
X14547Y6964D01*
X14563D01*
X14580Y6948D01*
Y6914D01*
X14563Y6898D01*
X14480Y7064D02*
Y6998D01*
X14530D01*
X14513Y7031D01*
Y7048D01*
X14530Y7064D01*
X14563D01*
X14580Y7048D01*
Y7014D01*
X14563Y6998D01*
X2103Y561D02*
X2086Y545D01*
Y511D01*
X2103Y495D01*
X2169D01*
X2186Y511D01*
Y545D01*
X2169Y561D01*
X2103Y595D02*
X2086Y611D01*
Y645D01*
X2103Y661D01*
X2119D01*
X2136Y645D01*
Y628D01*
Y645D01*
X2153Y661D01*
X2169D01*
X2186Y645D01*
Y611D01*
X2169Y595D01*
X2186Y761D02*
Y695D01*
X2119Y761D01*
X2103D01*
X2086Y745D01*
Y711D01*
X2103Y695D01*
X227Y8674D02*
X210Y8690D01*
X177D01*
X160Y8674D01*
Y8607D01*
X177Y8590D01*
X210D01*
X227Y8607D01*
X260Y8674D02*
X277Y8690D01*
X310D01*
X327Y8674D01*
Y8657D01*
X310Y8640D01*
X293D01*
X310D01*
X327Y8624D01*
Y8607D01*
X310Y8590D01*
X277D01*
X260Y8607D01*
X360Y8590D02*
X393D01*
X377D01*
Y8690D01*
X360Y8674D01*
X13445Y8421D02*
X13428Y8405D01*
Y8371D01*
X13445Y8355D01*
X13511D01*
X13528Y8371D01*
Y8405D01*
X13511Y8421D01*
X13528Y8521D02*
Y8455D01*
X13461Y8521D01*
X13445D01*
X13428Y8505D01*
Y8471D01*
X13445Y8455D01*
X13428Y8555D02*
Y8621D01*
X13445D01*
X13511Y8555D01*
X13528D01*
X11476Y8614D02*
X11459Y8598D01*
Y8564D01*
X11476Y8548D01*
X11542D01*
X11559Y8564D01*
Y8598D01*
X11542Y8614D01*
X11559Y8714D02*
Y8648D01*
X11492Y8714D01*
X11476D01*
X11459Y8698D01*
Y8664D01*
X11476Y8648D01*
X11459Y8814D02*
X11476Y8781D01*
X11509Y8748D01*
X11542D01*
X11559Y8764D01*
Y8798D01*
X11542Y8814D01*
X11526D01*
X11509Y8798D01*
Y8748D01*
X10267Y766D02*
X10250Y750D01*
Y716D01*
X10267Y700D01*
X10333D01*
X10350Y716D01*
Y750D01*
X10333Y766D01*
X10350Y866D02*
Y800D01*
X10283Y866D01*
X10267D01*
X10250Y850D01*
Y816D01*
X10267Y800D01*
X10250Y966D02*
Y900D01*
X10300D01*
X10283Y933D01*
Y950D01*
X10300Y966D01*
X10333D01*
X10350Y950D01*
Y916D01*
X10333Y900D01*
X1433Y585D02*
X1416Y569D01*
Y535D01*
X1433Y519D01*
X1499D01*
X1516Y535D01*
Y569D01*
X1499Y585D01*
X1516Y685D02*
Y619D01*
X1449Y685D01*
X1433D01*
X1416Y669D01*
Y635D01*
X1433Y619D01*
X1516Y785D02*
Y719D01*
X1449Y785D01*
X1433D01*
X1416Y769D01*
Y735D01*
X1433Y719D01*
X2449Y8674D02*
X2433Y8690D01*
X2399D01*
X2383Y8674D01*
Y8607D01*
X2399Y8590D01*
X2433D01*
X2449Y8607D01*
X2549Y8590D02*
X2482D01*
X2549Y8657D01*
Y8674D01*
X2532Y8690D01*
X2499D01*
X2482Y8674D01*
X2582Y8590D02*
X2616D01*
X2599D01*
Y8690D01*
X2582Y8674D01*
X11934Y8492D02*
X11917Y8475D01*
Y8442D01*
X11934Y8425D01*
X12000D01*
X12017Y8442D01*
Y8475D01*
X12000Y8492D01*
X12017Y8525D02*
Y8558D01*
Y8542D01*
X11917D01*
X11934Y8525D01*
X11917Y8608D02*
Y8675D01*
X11934D01*
X12000Y8608D01*
X12017D01*
X9382Y8619D02*
X9365Y8602D01*
Y8569D01*
X9382Y8552D01*
X9448D01*
X9465Y8569D01*
Y8602D01*
X9448Y8619D01*
X9465Y8652D02*
Y8685D01*
Y8669D01*
X9365D01*
X9382Y8652D01*
X9365Y8802D02*
X9382Y8769D01*
X9415Y8735D01*
X9448D01*
X9465Y8752D01*
Y8785D01*
X9448Y8802D01*
X9432D01*
X9415Y8785D01*
Y8735D01*
X11428Y4404D02*
X11411Y4421D01*
X11378D01*
X11361Y4404D01*
Y4337D01*
X11378Y4321D01*
X11411D01*
X11428Y4337D01*
X11461Y4321D02*
X11495D01*
X11478D01*
Y4421D01*
X11461Y4404D01*
X11611Y4421D02*
X11545D01*
Y4371D01*
X11578Y4387D01*
X11595D01*
X11611Y4371D01*
Y4337D01*
X11595Y4321D01*
X11561D01*
X11545Y4337D01*
X7035Y9388D02*
X7018Y9371D01*
Y9338D01*
X7035Y9321D01*
X7101D01*
X7118Y9338D01*
Y9371D01*
X7101Y9388D01*
X7118Y9421D02*
Y9454D01*
Y9438D01*
X7018D01*
X7035Y9421D01*
Y9504D02*
X7018Y9521D01*
Y9554D01*
X7035Y9571D01*
X7051D01*
X7068Y9554D01*
Y9538D01*
Y9554D01*
X7085Y9571D01*
X7101D01*
X7118Y9554D01*
Y9521D01*
X7101Y9504D01*
X755Y581D02*
X738Y564D01*
Y531D01*
X755Y514D01*
X821D01*
X838Y531D01*
Y564D01*
X821Y581D01*
X838Y614D02*
Y647D01*
Y631D01*
X738D01*
X755Y614D01*
X838Y764D02*
Y697D01*
X771Y764D01*
X755D01*
X738Y747D01*
Y714D01*
X755Y697D01*
X227Y9674D02*
X210Y9691D01*
X177D01*
X160Y9674D01*
Y9608D01*
X177Y9591D01*
X210D01*
X227Y9608D01*
X260Y9591D02*
X293D01*
X277D01*
Y9691D01*
X260Y9674D01*
X343Y9591D02*
X377D01*
X360D01*
Y9691D01*
X343Y9674D01*
D16*
X15186Y5100D02*
X15086D01*
Y5050D01*
X15103Y5033D01*
X15169D01*
X15186Y5050D01*
Y5100D01*
X15086Y5000D02*
Y4967D01*
Y4983D01*
X15186D01*
X15169Y5000D01*
X15186Y4850D02*
Y4917D01*
X15136D01*
X15153Y4883D01*
Y4867D01*
X15136Y4850D01*
X15103D01*
X15086Y4867D01*
Y4900D01*
X15103Y4917D01*
D17*
X2932Y6398D02*
X2847Y6313D01*
Y6398D02*
X2932Y6313D01*
X2889Y6398D02*
Y6313D01*
X2847Y6356D02*
X2932D01*
X12275Y9392D02*
X12360Y9307D01*
X12275D02*
X12360Y9392D01*
X12275Y9349D02*
X12360D01*
X12317Y9307D02*
Y9392D01*
X10176Y9382D02*
X10261Y9297D01*
X10176D02*
X10261Y9382D01*
X10176Y9339D02*
X10261D01*
X10218Y9297D02*
Y9382D01*
X478Y6474D02*
X393Y6389D01*
Y6474D02*
X478Y6389D01*
X435Y6474D02*
Y6389D01*
X393Y6432D02*
X478D01*
X12832Y8613D02*
X12917Y8528D01*
X12832D02*
X12917Y8613D01*
X12832Y8570D02*
X12917D01*
X12874Y8528D02*
Y8613D01*
X13856Y8534D02*
X13941Y8449D01*
X13856D02*
X13941Y8534D01*
X13856Y8491D02*
X13941D01*
X13898Y8449D02*
Y8534D01*
X7406Y9415D02*
X7491Y9330D01*
X7406D02*
X7491Y9415D01*
X7406Y9372D02*
X7491D01*
X7448Y9330D02*
Y9415D01*
X3327Y7812D02*
X3412Y7728D01*
X3327D02*
X3412Y7812D01*
X3327Y7770D02*
X3412D01*
X3370Y7728D02*
Y7812D01*
X1102Y7815D02*
X1187Y7730D01*
X1102D02*
X1187Y7815D01*
X1102Y7772D02*
X1187D01*
X1145Y7730D02*
Y7815D01*
X14363Y9324D02*
X14448Y9239D01*
X14363D02*
X14448Y9324D01*
X14363Y9281D02*
X14448D01*
X14405Y9239D02*
Y9324D01*
M02*
